<mxfile host="app.diagrams.net" modified="2023-11-01T09:01:58.887Z" agent="Mozilla/5.0 (Windows NT 10.0; Win64; x64) AppleWebKit/537.36 (KHTML, like Gecko) Chrome/118.0.0.0 Safari/537.36" etag="8BzV-VUkw39ct6DsNmIx" version="22.0.8" type="github">
  <diagram id="C5RBs43oDa-KdzZeNtuy" name="Page-1">
    <mxGraphModel dx="4423" dy="2297" grid="1" gridSize="10" guides="1" tooltips="1" connect="1" arrows="1" fold="1" page="1" pageScale="1" pageWidth="4000" pageHeight="6000" background="none" math="0" shadow="0">
      <root>
        <mxCell id="WIyWlLk6GJQsqaUBKTNV-0" />
        <mxCell id="WIyWlLk6GJQsqaUBKTNV-1" parent="WIyWlLk6GJQsqaUBKTNV-0" />
        <mxCell id="d0o_DoR_JnAfmZgIrLK9-316" style="edgeStyle=orthogonalEdgeStyle;rounded=0;orthogonalLoop=1;jettySize=auto;html=1;entryX=0.5;entryY=0;entryDx=0;entryDy=0;" edge="1" parent="WIyWlLk6GJQsqaUBKTNV-1" source="WIyWlLk6GJQsqaUBKTNV-3" target="d0o_DoR_JnAfmZgIrLK9-315">
          <mxGeometry relative="1" as="geometry" />
        </mxCell>
        <mxCell id="WIyWlLk6GJQsqaUBKTNV-3" value="創造一位乘客" style="rounded=1;whiteSpace=wrap;html=1;fontSize=12;glass=0;strokeWidth=1;shadow=0;labelBackgroundColor=none;fillColor=#FAE5C7;strokeColor=#0F8B8D;fontColor=#143642;" parent="WIyWlLk6GJQsqaUBKTNV-1" vertex="1">
          <mxGeometry x="3370" y="635" width="120" height="30" as="geometry" />
        </mxCell>
        <mxCell id="ZRArK_2HsjyMj3cJboqh-5" style="edgeStyle=orthogonalEdgeStyle;rounded=0;orthogonalLoop=1;jettySize=auto;html=1;entryX=0.5;entryY=0;entryDx=0;entryDy=0;" parent="WIyWlLk6GJQsqaUBKTNV-1" source="WIyWlLk6GJQsqaUBKTNV-6" target="WIyWlLk6GJQsqaUBKTNV-3" edge="1">
          <mxGeometry relative="1" as="geometry">
            <Array as="points">
              <mxPoint x="3430" y="545" />
            </Array>
          </mxGeometry>
        </mxCell>
        <mxCell id="ZRArK_2HsjyMj3cJboqh-7" value="Yes" style="edgeLabel;html=1;align=center;verticalAlign=middle;resizable=0;points=[];fontSize=11;fontFamily=Helvetica;fontColor=default;" parent="ZRArK_2HsjyMj3cJboqh-5" vertex="1" connectable="0">
          <mxGeometry x="0.2392" y="2" relative="1" as="geometry">
            <mxPoint as="offset" />
          </mxGeometry>
        </mxCell>
        <mxCell id="d0o_DoR_JnAfmZgIrLK9-327" style="edgeStyle=orthogonalEdgeStyle;rounded=0;orthogonalLoop=1;jettySize=auto;html=1;entryX=0.5;entryY=0;entryDx=0;entryDy=0;" edge="1" parent="WIyWlLk6GJQsqaUBKTNV-1" source="WIyWlLk6GJQsqaUBKTNV-6" target="ZRArK_2HsjyMj3cJboqh-9">
          <mxGeometry relative="1" as="geometry">
            <Array as="points">
              <mxPoint x="3710" y="545" />
              <mxPoint x="3710" y="885" />
              <mxPoint x="3560" y="885" />
            </Array>
          </mxGeometry>
        </mxCell>
        <mxCell id="d0o_DoR_JnAfmZgIrLK9-328" value="NO" style="edgeLabel;html=1;align=center;verticalAlign=middle;resizable=0;points=[];" vertex="1" connectable="0" parent="d0o_DoR_JnAfmZgIrLK9-327">
          <mxGeometry x="-0.8805" y="2" relative="1" as="geometry">
            <mxPoint as="offset" />
          </mxGeometry>
        </mxCell>
        <mxCell id="WIyWlLk6GJQsqaUBKTNV-6" value="&lt;font style=&quot;font-size: 12px;&quot;&gt;判斷peoplel值是否還大於0&lt;/font&gt;" style="rhombus;whiteSpace=wrap;html=1;shadow=0;fontFamily=Helvetica;fontSize=12;align=center;strokeWidth=1;spacing=6;spacingTop=-4;labelBackgroundColor=none;fillColor=#FAE5C7;strokeColor=#0F8B8D;fontColor=#143642;" parent="WIyWlLk6GJQsqaUBKTNV-1" vertex="1">
          <mxGeometry x="3480" y="480" width="160" height="130" as="geometry" />
        </mxCell>
        <mxCell id="ZRArK_2HsjyMj3cJboqh-15" style="edgeStyle=orthogonalEdgeStyle;shape=connector;rounded=0;orthogonalLoop=1;jettySize=auto;html=1;labelBackgroundColor=default;strokeColor=default;align=center;verticalAlign=middle;fontFamily=Helvetica;fontSize=11;fontColor=default;endArrow=classic;" parent="WIyWlLk6GJQsqaUBKTNV-1" source="WIyWlLk6GJQsqaUBKTNV-7" target="WIyWlLk6GJQsqaUBKTNV-12" edge="1">
          <mxGeometry relative="1" as="geometry" />
        </mxCell>
        <mxCell id="WIyWlLk6GJQsqaUBKTNV-7" value="繪製總樓層、按鈕、剩餘人數、總花費時間、當前電梯位置" style="rounded=1;whiteSpace=wrap;html=1;fontSize=12;glass=0;strokeWidth=1;shadow=0;labelBackgroundColor=none;fillColor=#FAE5C7;strokeColor=#0F8B8D;fontColor=#143642;" parent="WIyWlLk6GJQsqaUBKTNV-1" vertex="1">
          <mxGeometry x="3500" y="260" width="120" height="50" as="geometry" />
        </mxCell>
        <mxCell id="ZRArK_2HsjyMj3cJboqh-18" style="edgeStyle=orthogonalEdgeStyle;shape=connector;rounded=0;orthogonalLoop=1;jettySize=auto;html=1;labelBackgroundColor=default;strokeColor=default;align=center;verticalAlign=middle;fontFamily=Helvetica;fontSize=11;fontColor=default;endArrow=classic;" parent="WIyWlLk6GJQsqaUBKTNV-1" source="WIyWlLk6GJQsqaUBKTNV-11" target="WIyWlLk6GJQsqaUBKTNV-6" edge="1">
          <mxGeometry relative="1" as="geometry" />
        </mxCell>
        <mxCell id="WIyWlLk6GJQsqaUBKTNV-11" value="繪製剩餘人數、樓層" style="rounded=1;whiteSpace=wrap;html=1;fontSize=12;glass=0;strokeWidth=1;shadow=0;labelBackgroundColor=none;fillColor=#FAE5C7;strokeColor=#0F8B8D;fontColor=#143642;" parent="WIyWlLk6GJQsqaUBKTNV-1" vertex="1">
          <mxGeometry x="3500" y="410" width="120" height="40" as="geometry" />
        </mxCell>
        <mxCell id="ZRArK_2HsjyMj3cJboqh-17" style="edgeStyle=orthogonalEdgeStyle;shape=connector;rounded=0;orthogonalLoop=1;jettySize=auto;html=1;entryX=0.5;entryY=0;entryDx=0;entryDy=0;labelBackgroundColor=default;strokeColor=default;align=center;verticalAlign=middle;fontFamily=Helvetica;fontSize=11;fontColor=default;endArrow=classic;" parent="WIyWlLk6GJQsqaUBKTNV-1" source="WIyWlLk6GJQsqaUBKTNV-12" target="WIyWlLk6GJQsqaUBKTNV-11" edge="1">
          <mxGeometry relative="1" as="geometry" />
        </mxCell>
        <mxCell id="WIyWlLk6GJQsqaUBKTNV-12" value="開始每秒draw()一次" style="rounded=1;whiteSpace=wrap;html=1;fontSize=12;glass=0;strokeWidth=1;shadow=0;labelBackgroundColor=none;fillColor=#FAE5C7;strokeColor=#0F8B8D;fontColor=#143642;" parent="WIyWlLk6GJQsqaUBKTNV-1" vertex="1">
          <mxGeometry x="3500" y="330" width="120" height="40" as="geometry" />
        </mxCell>
        <mxCell id="ZRArK_2HsjyMj3cJboqh-14" style="edgeStyle=orthogonalEdgeStyle;shape=connector;rounded=0;orthogonalLoop=1;jettySize=auto;html=1;entryX=0.5;entryY=0;entryDx=0;entryDy=0;labelBackgroundColor=default;strokeColor=default;align=center;verticalAlign=middle;fontFamily=Helvetica;fontSize=11;fontColor=default;endArrow=classic;" parent="WIyWlLk6GJQsqaUBKTNV-1" source="ZRArK_2HsjyMj3cJboqh-0" target="WIyWlLk6GJQsqaUBKTNV-7" edge="1">
          <mxGeometry relative="1" as="geometry" />
        </mxCell>
        <mxCell id="ZRArK_2HsjyMj3cJboqh-0" value="開始" style="ellipse;whiteSpace=wrap;html=1;aspect=fixed;fillColor=#ffe6cc;strokeColor=#d79b00;" parent="WIyWlLk6GJQsqaUBKTNV-1" vertex="1">
          <mxGeometry x="3520" y="140" width="80" height="80" as="geometry" />
        </mxCell>
        <mxCell id="ZRArK_2HsjyMj3cJboqh-22" style="edgeStyle=orthogonalEdgeStyle;shape=connector;rounded=0;orthogonalLoop=1;jettySize=auto;html=1;labelBackgroundColor=default;strokeColor=default;align=center;verticalAlign=middle;fontFamily=Helvetica;fontSize=11;fontColor=default;endArrow=classic;" parent="WIyWlLk6GJQsqaUBKTNV-1" source="ZRArK_2HsjyMj3cJboqh-9" target="ZRArK_2HsjyMj3cJboqh-20" edge="1">
          <mxGeometry relative="1" as="geometry">
            <Array as="points">
              <mxPoint x="3430" y="1152.5" />
            </Array>
          </mxGeometry>
        </mxCell>
        <mxCell id="ZRArK_2HsjyMj3cJboqh-24" value="&lt;br&gt;上" style="edgeLabel;html=1;align=center;verticalAlign=middle;resizable=0;points=[];fontSize=11;fontFamily=Helvetica;fontColor=default;" parent="ZRArK_2HsjyMj3cJboqh-22" vertex="1" connectable="0">
          <mxGeometry x="-0.0607" y="-1" relative="1" as="geometry">
            <mxPoint as="offset" />
          </mxGeometry>
        </mxCell>
        <mxCell id="ZRArK_2HsjyMj3cJboqh-23" style="edgeStyle=orthogonalEdgeStyle;shape=connector;rounded=0;orthogonalLoop=1;jettySize=auto;html=1;entryX=0.5;entryY=0;entryDx=0;entryDy=0;labelBackgroundColor=default;strokeColor=default;align=center;verticalAlign=middle;fontFamily=Helvetica;fontSize=11;fontColor=default;endArrow=classic;" parent="WIyWlLk6GJQsqaUBKTNV-1" source="ZRArK_2HsjyMj3cJboqh-9" target="ZRArK_2HsjyMj3cJboqh-21" edge="1">
          <mxGeometry relative="1" as="geometry">
            <Array as="points">
              <mxPoint x="3690" y="1152.5" />
            </Array>
          </mxGeometry>
        </mxCell>
        <mxCell id="ZRArK_2HsjyMj3cJboqh-25" value="下" style="edgeLabel;html=1;align=center;verticalAlign=middle;resizable=0;points=[];fontSize=11;fontFamily=Helvetica;fontColor=default;" parent="ZRArK_2HsjyMj3cJboqh-23" vertex="1" connectable="0">
          <mxGeometry x="-0.072" y="1" relative="1" as="geometry">
            <mxPoint as="offset" />
          </mxGeometry>
        </mxCell>
        <mxCell id="ZRArK_2HsjyMj3cJboqh-9" value="電梯方向為上或是下" style="rhombus;whiteSpace=wrap;html=1;shadow=0;fontFamily=Helvetica;fontSize=12;align=center;strokeWidth=1;spacing=6;spacingTop=-4;labelBackgroundColor=none;fillColor=#FAE5C7;strokeColor=#0F8B8D;fontColor=#143642;" parent="WIyWlLk6GJQsqaUBKTNV-1" vertex="1">
          <mxGeometry x="3480" y="945" width="160" height="130" as="geometry" />
        </mxCell>
        <mxCell id="ZRArK_2HsjyMj3cJboqh-27" style="edgeStyle=orthogonalEdgeStyle;shape=connector;rounded=0;orthogonalLoop=1;jettySize=auto;html=1;entryX=0.5;entryY=0;entryDx=0;entryDy=0;labelBackgroundColor=default;strokeColor=default;align=center;verticalAlign=middle;fontFamily=Helvetica;fontSize=11;fontColor=default;endArrow=classic;" parent="WIyWlLk6GJQsqaUBKTNV-1" source="ZRArK_2HsjyMj3cJboqh-20" target="ZRArK_2HsjyMj3cJboqh-26" edge="1">
          <mxGeometry relative="1" as="geometry">
            <Array as="points">
              <mxPoint x="3430" y="1327.5" />
              <mxPoint x="3560" y="1327.5" />
            </Array>
          </mxGeometry>
        </mxCell>
        <mxCell id="ZRArK_2HsjyMj3cJboqh-20" value="往上" style="rounded=1;whiteSpace=wrap;html=1;fontSize=12;glass=0;strokeWidth=1;shadow=0;labelBackgroundColor=none;fillColor=#FAE5C7;strokeColor=#0F8B8D;fontColor=#143642;" parent="WIyWlLk6GJQsqaUBKTNV-1" vertex="1">
          <mxGeometry x="3370" y="1277.5" width="120" height="30" as="geometry" />
        </mxCell>
        <mxCell id="ZRArK_2HsjyMj3cJboqh-28" style="edgeStyle=orthogonalEdgeStyle;shape=connector;rounded=0;orthogonalLoop=1;jettySize=auto;html=1;entryX=0.5;entryY=0;entryDx=0;entryDy=0;labelBackgroundColor=default;strokeColor=default;align=center;verticalAlign=middle;fontFamily=Helvetica;fontSize=11;fontColor=default;endArrow=classic;" parent="WIyWlLk6GJQsqaUBKTNV-1" source="ZRArK_2HsjyMj3cJboqh-21" target="ZRArK_2HsjyMj3cJboqh-26" edge="1">
          <mxGeometry relative="1" as="geometry">
            <Array as="points">
              <mxPoint x="3690" y="1327.5" />
              <mxPoint x="3560" y="1327.5" />
            </Array>
          </mxGeometry>
        </mxCell>
        <mxCell id="ZRArK_2HsjyMj3cJboqh-21" value="往下" style="rounded=1;whiteSpace=wrap;html=1;fontSize=12;glass=0;strokeWidth=1;shadow=0;labelBackgroundColor=none;fillColor=#FAE5C7;strokeColor=#0F8B8D;fontColor=#143642;" parent="WIyWlLk6GJQsqaUBKTNV-1" vertex="1">
          <mxGeometry x="3630" y="1277.5" width="120" height="30" as="geometry" />
        </mxCell>
        <mxCell id="ZRArK_2HsjyMj3cJboqh-30" style="edgeStyle=orthogonalEdgeStyle;shape=connector;rounded=0;orthogonalLoop=1;jettySize=auto;html=1;entryX=0.5;entryY=0;entryDx=0;entryDy=0;labelBackgroundColor=default;strokeColor=default;align=center;verticalAlign=middle;fontFamily=Helvetica;fontSize=11;fontColor=default;endArrow=classic;" parent="WIyWlLk6GJQsqaUBKTNV-1" source="ZRArK_2HsjyMj3cJboqh-26" target="ZRArK_2HsjyMj3cJboqh-29" edge="1">
          <mxGeometry relative="1" as="geometry" />
        </mxCell>
        <mxCell id="ZRArK_2HsjyMj3cJboqh-26" value="繪製電梯移動後位置" style="rounded=1;whiteSpace=wrap;html=1;fontSize=12;glass=0;strokeWidth=1;shadow=0;labelBackgroundColor=none;fillColor=#FAE5C7;strokeColor=#0F8B8D;fontColor=#143642;" parent="WIyWlLk6GJQsqaUBKTNV-1" vertex="1">
          <mxGeometry x="3500" y="1377.5" width="120" height="30" as="geometry" />
        </mxCell>
        <mxCell id="ZRArK_2HsjyMj3cJboqh-36" style="edgeStyle=orthogonalEdgeStyle;shape=connector;rounded=0;orthogonalLoop=1;jettySize=auto;html=1;entryX=0.5;entryY=0;entryDx=0;entryDy=0;labelBackgroundColor=default;strokeColor=default;align=center;verticalAlign=middle;fontFamily=Helvetica;fontSize=11;fontColor=default;endArrow=classic;exitX=1;exitY=0.5;exitDx=0;exitDy=0;" parent="WIyWlLk6GJQsqaUBKTNV-1" source="ZRArK_2HsjyMj3cJboqh-29" target="ZRArK_2HsjyMj3cJboqh-31" edge="1">
          <mxGeometry relative="1" as="geometry">
            <Array as="points">
              <mxPoint x="3680" y="1513" />
              <mxPoint x="3680" y="1915" />
              <mxPoint x="3545" y="1915" />
            </Array>
          </mxGeometry>
        </mxCell>
        <mxCell id="ZRArK_2HsjyMj3cJboqh-38" value="NO" style="edgeLabel;html=1;align=center;verticalAlign=middle;resizable=0;points=[];fontSize=11;fontFamily=Helvetica;fontColor=default;" parent="ZRArK_2HsjyMj3cJboqh-36" vertex="1" connectable="0">
          <mxGeometry x="-0.551" y="1" relative="1" as="geometry">
            <mxPoint as="offset" />
          </mxGeometry>
        </mxCell>
        <mxCell id="ZRArK_2HsjyMj3cJboqh-39" style="edgeStyle=orthogonalEdgeStyle;shape=connector;rounded=0;orthogonalLoop=1;jettySize=auto;html=1;entryX=0.5;entryY=0;entryDx=0;entryDy=0;labelBackgroundColor=default;strokeColor=default;align=center;verticalAlign=middle;fontFamily=Helvetica;fontSize=11;fontColor=default;endArrow=classic;" parent="WIyWlLk6GJQsqaUBKTNV-1" source="ZRArK_2HsjyMj3cJboqh-29" target="ZRArK_2HsjyMj3cJboqh-32" edge="1">
          <mxGeometry relative="1" as="geometry">
            <Array as="points">
              <mxPoint x="3435" y="1512.5" />
            </Array>
          </mxGeometry>
        </mxCell>
        <mxCell id="ZRArK_2HsjyMj3cJboqh-40" value="YES" style="edgeLabel;html=1;align=center;verticalAlign=middle;resizable=0;points=[];fontSize=11;fontFamily=Helvetica;fontColor=default;" parent="ZRArK_2HsjyMj3cJboqh-39" vertex="1" connectable="0">
          <mxGeometry x="-0.7677" y="-1" relative="1" as="geometry">
            <mxPoint as="offset" />
          </mxGeometry>
        </mxCell>
        <mxCell id="ZRArK_2HsjyMj3cJboqh-29" value="for迴圈判斷&lt;br style=&quot;border-color: var(--border-color);&quot;&gt;電梯內乘客的&lt;br style=&quot;border-color: var(--border-color);&quot;&gt;離開樓層有沒有&lt;br style=&quot;border-color: var(--border-color);&quot;&gt;與當前樓層相同" style="rhombus;whiteSpace=wrap;html=1;shadow=0;fontFamily=Helvetica;fontSize=12;align=center;strokeWidth=1;spacing=6;spacingTop=-4;labelBackgroundColor=none;fillColor=#FAE5C7;strokeColor=#0F8B8D;fontColor=#143642;" parent="WIyWlLk6GJQsqaUBKTNV-1" vertex="1">
          <mxGeometry x="3480" y="1447.5" width="160" height="130" as="geometry" />
        </mxCell>
        <mxCell id="d0o_DoR_JnAfmZgIrLK9-3" style="edgeStyle=orthogonalEdgeStyle;rounded=0;orthogonalLoop=1;jettySize=auto;html=1;entryX=0.5;entryY=0;entryDx=0;entryDy=0;" edge="1" parent="WIyWlLk6GJQsqaUBKTNV-1" source="ZRArK_2HsjyMj3cJboqh-31" target="d0o_DoR_JnAfmZgIrLK9-0">
          <mxGeometry relative="1" as="geometry" />
        </mxCell>
        <mxCell id="ZRArK_2HsjyMj3cJboqh-31" value="顯是&lt;br&gt;還有哪些按鈕被按下" style="rounded=1;whiteSpace=wrap;html=1;fontSize=12;glass=0;strokeWidth=1;shadow=0;labelBackgroundColor=none;fillColor=#FAE5C7;strokeColor=#0F8B8D;fontColor=#143642;" parent="WIyWlLk6GJQsqaUBKTNV-1" vertex="1">
          <mxGeometry x="3465" y="2015" width="160" height="40" as="geometry" />
        </mxCell>
        <mxCell id="d0o_DoR_JnAfmZgIrLK9-334" style="edgeStyle=orthogonalEdgeStyle;rounded=0;orthogonalLoop=1;jettySize=auto;html=1;entryX=0.5;entryY=0;entryDx=0;entryDy=0;" edge="1" parent="WIyWlLk6GJQsqaUBKTNV-1" source="ZRArK_2HsjyMj3cJboqh-32" target="d0o_DoR_JnAfmZgIrLK9-329">
          <mxGeometry relative="1" as="geometry" />
        </mxCell>
        <mxCell id="ZRArK_2HsjyMj3cJboqh-32" value="乘客出電梯&lt;br&gt;numberOfPeopleArrived++" style="rounded=1;whiteSpace=wrap;html=1;fontSize=12;glass=0;strokeWidth=1;shadow=0;labelBackgroundColor=none;fillColor=#FAE5C7;strokeColor=#0F8B8D;fontColor=#143642;" parent="WIyWlLk6GJQsqaUBKTNV-1" vertex="1">
          <mxGeometry x="3360" y="1547.5" width="150" height="50" as="geometry" />
        </mxCell>
        <mxCell id="d0o_DoR_JnAfmZgIrLK9-456" style="edgeStyle=orthogonalEdgeStyle;rounded=0;orthogonalLoop=1;jettySize=auto;html=1;entryX=0.5;entryY=0;entryDx=0;entryDy=0;" edge="1" parent="WIyWlLk6GJQsqaUBKTNV-1" source="d0o_DoR_JnAfmZgIrLK9-0" target="d0o_DoR_JnAfmZgIrLK9-335">
          <mxGeometry relative="1" as="geometry" />
        </mxCell>
        <mxCell id="d0o_DoR_JnAfmZgIrLK9-0" value="繪製還有多少人等電梯畫面" style="rounded=1;whiteSpace=wrap;html=1;fontSize=12;glass=0;strokeWidth=1;shadow=0;labelBackgroundColor=none;fillColor=#FAE5C7;strokeColor=#0F8B8D;fontColor=#143642;" vertex="1" parent="WIyWlLk6GJQsqaUBKTNV-1">
          <mxGeometry x="3470" y="2095" width="150" height="40" as="geometry" />
        </mxCell>
        <mxCell id="d0o_DoR_JnAfmZgIrLK9-28" style="edgeStyle=orthogonalEdgeStyle;rounded=0;orthogonalLoop=1;jettySize=auto;html=1;entryX=0.5;entryY=0;entryDx=0;entryDy=0;" edge="1" parent="WIyWlLk6GJQsqaUBKTNV-1" source="d0o_DoR_JnAfmZgIrLK9-11" target="d0o_DoR_JnAfmZgIrLK9-17">
          <mxGeometry relative="1" as="geometry" />
        </mxCell>
        <mxCell id="d0o_DoR_JnAfmZgIrLK9-11" value="繪製總共經過的時間" style="rounded=1;whiteSpace=wrap;html=1;fontSize=12;glass=0;strokeWidth=1;shadow=0;labelBackgroundColor=none;fillColor=#FAE5C7;strokeColor=#0F8B8D;fontColor=#143642;" vertex="1" parent="WIyWlLk6GJQsqaUBKTNV-1">
          <mxGeometry x="3585" y="3485" width="150" height="50" as="geometry" />
        </mxCell>
        <mxCell id="d0o_DoR_JnAfmZgIrLK9-24" value="" style="edgeStyle=orthogonalEdgeStyle;rounded=0;orthogonalLoop=1;jettySize=auto;html=1;" edge="1" parent="WIyWlLk6GJQsqaUBKTNV-1" source="d0o_DoR_JnAfmZgIrLK9-17" target="d0o_DoR_JnAfmZgIrLK9-23">
          <mxGeometry relative="1" as="geometry" />
        </mxCell>
        <mxCell id="d0o_DoR_JnAfmZgIrLK9-25" value="YES" style="edgeLabel;html=1;align=center;verticalAlign=middle;resizable=0;points=[];" vertex="1" connectable="0" parent="d0o_DoR_JnAfmZgIrLK9-24">
          <mxGeometry x="-0.2156" y="1" relative="1" as="geometry">
            <mxPoint as="offset" />
          </mxGeometry>
        </mxCell>
        <mxCell id="d0o_DoR_JnAfmZgIrLK9-369" style="edgeStyle=orthogonalEdgeStyle;rounded=0;orthogonalLoop=1;jettySize=auto;html=1;entryX=1;entryY=0.5;entryDx=0;entryDy=0;" edge="1" parent="WIyWlLk6GJQsqaUBKTNV-1" source="d0o_DoR_JnAfmZgIrLK9-17" target="WIyWlLk6GJQsqaUBKTNV-11">
          <mxGeometry relative="1" as="geometry">
            <mxPoint x="3740" y="400.111083984375" as="targetPoint" />
            <Array as="points">
              <mxPoint x="3890" y="3655" />
              <mxPoint x="3890" y="430" />
            </Array>
          </mxGeometry>
        </mxCell>
        <mxCell id="d0o_DoR_JnAfmZgIrLK9-17" value="&lt;div style=&quot;&quot;&gt;判斷PartANumberOfPeopleArrived&lt;/div&gt;&lt;div style=&quot;&quot;&gt;是否等於40&lt;/div&gt;" style="rhombus;whiteSpace=wrap;html=1;shadow=0;fontFamily=Helvetica;fontSize=12;align=center;strokeWidth=1;spacing=6;spacingTop=-4;labelBackgroundColor=none;fillColor=#FAE5C7;strokeColor=#0F8B8D;fontColor=#143642;" vertex="1" parent="WIyWlLk6GJQsqaUBKTNV-1">
          <mxGeometry x="3580" y="3590" width="160" height="130" as="geometry" />
        </mxCell>
        <mxCell id="d0o_DoR_JnAfmZgIrLK9-23" value="程式結束" style="whiteSpace=wrap;html=1;fillColor=#FAE5C7;strokeColor=#0F8B8D;fontColor=#143642;shadow=0;strokeWidth=1;spacing=6;spacingTop=-4;labelBackgroundColor=none;" vertex="1" parent="WIyWlLk6GJQsqaUBKTNV-1">
          <mxGeometry x="3350" y="3625" width="120" height="60" as="geometry" />
        </mxCell>
        <mxCell id="d0o_DoR_JnAfmZgIrLK9-32" style="edgeStyle=orthogonalEdgeStyle;rounded=0;orthogonalLoop=1;jettySize=auto;html=1;entryX=0.5;entryY=0;entryDx=0;entryDy=0;exitX=0.487;exitY=1.01;exitDx=0;exitDy=0;exitPerimeter=0;" edge="1" parent="WIyWlLk6GJQsqaUBKTNV-1" source="d0o_DoR_JnAfmZgIrLK9-30" target="ZRArK_2HsjyMj3cJboqh-31">
          <mxGeometry relative="1" as="geometry">
            <Array as="points">
              <mxPoint x="3433" y="1915" />
              <mxPoint x="3545" y="1915" />
            </Array>
          </mxGeometry>
        </mxCell>
        <mxCell id="d0o_DoR_JnAfmZgIrLK9-30" value="繪製乘客出電梯畫面" style="rounded=1;whiteSpace=wrap;html=1;fontSize=12;glass=0;strokeWidth=1;shadow=0;labelBackgroundColor=none;fillColor=#FAE5C7;strokeColor=#0F8B8D;fontColor=#143642;" vertex="1" parent="WIyWlLk6GJQsqaUBKTNV-1">
          <mxGeometry x="3360" y="1880" width="150" height="30" as="geometry" />
        </mxCell>
        <mxCell id="d0o_DoR_JnAfmZgIrLK9-322" style="edgeStyle=orthogonalEdgeStyle;rounded=0;orthogonalLoop=1;jettySize=auto;html=1;entryX=0.5;entryY=0;entryDx=0;entryDy=0;" edge="1" parent="WIyWlLk6GJQsqaUBKTNV-1" source="d0o_DoR_JnAfmZgIrLK9-315" target="d0o_DoR_JnAfmZgIrLK9-315">
          <mxGeometry relative="1" as="geometry">
            <mxPoint x="3340" y="705" as="targetPoint" />
            <Array as="points">
              <mxPoint x="3310" y="770" />
              <mxPoint x="3310" y="705" />
            </Array>
          </mxGeometry>
        </mxCell>
        <mxCell id="d0o_DoR_JnAfmZgIrLK9-324" value="YES" style="edgeLabel;html=1;align=center;verticalAlign=middle;resizable=0;points=[];" vertex="1" connectable="0" parent="d0o_DoR_JnAfmZgIrLK9-322">
          <mxGeometry x="-0.4034" y="3" relative="1" as="geometry">
            <mxPoint as="offset" />
          </mxGeometry>
        </mxCell>
        <mxCell id="d0o_DoR_JnAfmZgIrLK9-325" style="edgeStyle=orthogonalEdgeStyle;rounded=0;orthogonalLoop=1;jettySize=auto;html=1;entryX=0.5;entryY=0;entryDx=0;entryDy=0;" edge="1" parent="WIyWlLk6GJQsqaUBKTNV-1" source="d0o_DoR_JnAfmZgIrLK9-315" target="ZRArK_2HsjyMj3cJboqh-9">
          <mxGeometry relative="1" as="geometry">
            <Array as="points">
              <mxPoint x="3430" y="885" />
              <mxPoint x="3560" y="885" />
            </Array>
          </mxGeometry>
        </mxCell>
        <mxCell id="d0o_DoR_JnAfmZgIrLK9-326" value="NO" style="edgeLabel;html=1;align=center;verticalAlign=middle;resizable=0;points=[];" vertex="1" connectable="0" parent="d0o_DoR_JnAfmZgIrLK9-325">
          <mxGeometry x="-0.0975" relative="1" as="geometry">
            <mxPoint as="offset" />
          </mxGeometry>
        </mxCell>
        <mxCell id="d0o_DoR_JnAfmZgIrLK9-315" value="&lt;blockquote style=&quot;margin: 0 0 0 40px; border: none; padding: 0px;&quot;&gt;&lt;/blockquote&gt;&lt;span style=&quot;background-color: initial;&quot;&gt;判斷隨機出來的&lt;/span&gt;&lt;br&gt;&lt;span style=&quot;background-color: initial;&quot;&gt;進入樓層、&lt;/span&gt;&lt;br&gt;&lt;span style=&quot;background-color: initial;&quot;&gt;離開樓層是否重覆&lt;/span&gt;&lt;br&gt;&lt;blockquote style=&quot;margin: 0 0 0 40px; border: none; padding: 0px;&quot;&gt;&lt;/blockquote&gt;" style="rhombus;whiteSpace=wrap;html=1;shadow=0;fontFamily=Helvetica;fontSize=12;align=center;strokeWidth=1;spacing=6;spacingTop=-4;labelBackgroundColor=none;fillColor=#FAE5C7;strokeColor=#0F8B8D;fontColor=#143642;" vertex="1" parent="WIyWlLk6GJQsqaUBKTNV-1">
          <mxGeometry x="3350" y="705" width="160" height="130" as="geometry" />
        </mxCell>
        <mxCell id="d0o_DoR_JnAfmZgIrLK9-331" style="edgeStyle=orthogonalEdgeStyle;rounded=0;orthogonalLoop=1;jettySize=auto;html=1;entryX=0.5;entryY=0;entryDx=0;entryDy=0;exitX=0;exitY=0.5;exitDx=0;exitDy=0;" edge="1" parent="WIyWlLk6GJQsqaUBKTNV-1" source="d0o_DoR_JnAfmZgIrLK9-329" target="d0o_DoR_JnAfmZgIrLK9-330">
          <mxGeometry relative="1" as="geometry" />
        </mxCell>
        <mxCell id="d0o_DoR_JnAfmZgIrLK9-453" value="tes" style="edgeLabel;html=1;align=center;verticalAlign=middle;resizable=0;points=[];" vertex="1" connectable="0" parent="d0o_DoR_JnAfmZgIrLK9-331">
          <mxGeometry x="-0.3223" y="-3" relative="1" as="geometry">
            <mxPoint as="offset" />
          </mxGeometry>
        </mxCell>
        <mxCell id="d0o_DoR_JnAfmZgIrLK9-333" style="edgeStyle=orthogonalEdgeStyle;rounded=0;orthogonalLoop=1;jettySize=auto;html=1;entryX=0.5;entryY=0;entryDx=0;entryDy=0;exitX=1;exitY=0.5;exitDx=0;exitDy=0;" edge="1" parent="WIyWlLk6GJQsqaUBKTNV-1" source="d0o_DoR_JnAfmZgIrLK9-329" target="d0o_DoR_JnAfmZgIrLK9-30">
          <mxGeometry relative="1" as="geometry">
            <Array as="points">
              <mxPoint x="3535" y="1720" />
              <mxPoint x="3535" y="1845" />
              <mxPoint x="3435" y="1845" />
            </Array>
          </mxGeometry>
        </mxCell>
        <mxCell id="d0o_DoR_JnAfmZgIrLK9-454" value="no" style="edgeLabel;html=1;align=center;verticalAlign=middle;resizable=0;points=[];" vertex="1" connectable="0" parent="d0o_DoR_JnAfmZgIrLK9-333">
          <mxGeometry x="-0.917" y="-1" relative="1" as="geometry">
            <mxPoint as="offset" />
          </mxGeometry>
        </mxCell>
        <mxCell id="d0o_DoR_JnAfmZgIrLK9-329" value="判斷電梯內人數是否為0" style="rhombus;whiteSpace=wrap;html=1;shadow=0;fontFamily=Helvetica;fontSize=12;align=center;strokeWidth=1;spacing=6;spacingTop=-4;labelBackgroundColor=none;fillColor=#FAE5C7;strokeColor=#0F8B8D;fontColor=#143642;" vertex="1" parent="WIyWlLk6GJQsqaUBKTNV-1">
          <mxGeometry x="3355" y="1655" width="160" height="130" as="geometry" />
        </mxCell>
        <mxCell id="d0o_DoR_JnAfmZgIrLK9-332" style="edgeStyle=orthogonalEdgeStyle;rounded=0;orthogonalLoop=1;jettySize=auto;html=1;entryX=0.5;entryY=0;entryDx=0;entryDy=0;exitX=0.5;exitY=1;exitDx=0;exitDy=0;" edge="1" parent="WIyWlLk6GJQsqaUBKTNV-1" source="d0o_DoR_JnAfmZgIrLK9-330" target="d0o_DoR_JnAfmZgIrLK9-30">
          <mxGeometry relative="1" as="geometry">
            <Array as="points">
              <mxPoint x="3295" y="1845" />
              <mxPoint x="3435" y="1845" />
            </Array>
          </mxGeometry>
        </mxCell>
        <mxCell id="d0o_DoR_JnAfmZgIrLK9-330" value="將leftElevatorInfo&lt;span style=&quot;background-color: initial;&quot;&gt;參數的basicTarget跟direction設為none&lt;/span&gt;" style="rounded=1;whiteSpace=wrap;html=1;fontSize=12;glass=0;strokeWidth=1;shadow=0;labelBackgroundColor=none;fillColor=#FAE5C7;strokeColor=#0F8B8D;fontColor=#143642;" vertex="1" parent="WIyWlLk6GJQsqaUBKTNV-1">
          <mxGeometry x="3220" y="1760" width="150" height="50" as="geometry" />
        </mxCell>
        <mxCell id="d0o_DoR_JnAfmZgIrLK9-339" style="edgeStyle=orthogonalEdgeStyle;rounded=0;orthogonalLoop=1;jettySize=auto;html=1;entryX=0.5;entryY=0;entryDx=0;entryDy=0;exitX=0;exitY=0.5;exitDx=0;exitDy=0;" edge="1" parent="WIyWlLk6GJQsqaUBKTNV-1" source="d0o_DoR_JnAfmZgIrLK9-335" target="d0o_DoR_JnAfmZgIrLK9-336">
          <mxGeometry relative="1" as="geometry" />
        </mxCell>
        <mxCell id="d0o_DoR_JnAfmZgIrLK9-343" value="yes" style="edgeLabel;html=1;align=center;verticalAlign=middle;resizable=0;points=[];" vertex="1" connectable="0" parent="d0o_DoR_JnAfmZgIrLK9-339">
          <mxGeometry x="-0.5597" y="-3" relative="1" as="geometry">
            <mxPoint as="offset" />
          </mxGeometry>
        </mxCell>
        <mxCell id="d0o_DoR_JnAfmZgIrLK9-356" style="edgeStyle=orthogonalEdgeStyle;rounded=0;orthogonalLoop=1;jettySize=auto;html=1;entryX=0.5;entryY=0;entryDx=0;entryDy=0;exitX=1;exitY=0.5;exitDx=0;exitDy=0;" edge="1" parent="WIyWlLk6GJQsqaUBKTNV-1" source="d0o_DoR_JnAfmZgIrLK9-335" target="d0o_DoR_JnAfmZgIrLK9-346">
          <mxGeometry relative="1" as="geometry">
            <Array as="points">
              <mxPoint x="3640" y="2220" />
              <mxPoint x="3640" y="2595" />
              <mxPoint x="3545" y="2595" />
            </Array>
          </mxGeometry>
        </mxCell>
        <mxCell id="d0o_DoR_JnAfmZgIrLK9-457" value="no" style="edgeLabel;html=1;align=center;verticalAlign=middle;resizable=0;points=[];" vertex="1" connectable="0" parent="d0o_DoR_JnAfmZgIrLK9-356">
          <mxGeometry x="-0.961" relative="1" as="geometry">
            <mxPoint as="offset" />
          </mxGeometry>
        </mxCell>
        <mxCell id="d0o_DoR_JnAfmZgIrLK9-335" value="&lt;div style=&quot;&quot;&gt;&lt;div style=&quot;border-color: var(--border-color);&quot;&gt;判斷leftElevatorInfo&lt;/div&gt;&lt;div style=&quot;border-color: var(--border-color);&quot;&gt;的basicTarget&lt;/div&gt;&lt;div style=&quot;border-color: var(--border-color);&quot;&gt;是否為none&lt;/div&gt;&lt;/div&gt;" style="rhombus;whiteSpace=wrap;html=1;shadow=0;fontFamily=Helvetica;fontSize=12;align=center;strokeWidth=1;spacing=6;spacingTop=-4;labelBackgroundColor=none;fillColor=#FAE5C7;strokeColor=#0F8B8D;fontColor=#143642;" vertex="1" parent="WIyWlLk6GJQsqaUBKTNV-1">
          <mxGeometry x="3465" y="2155" width="160" height="130" as="geometry" />
        </mxCell>
        <mxCell id="d0o_DoR_JnAfmZgIrLK9-340" style="edgeStyle=orthogonalEdgeStyle;rounded=0;orthogonalLoop=1;jettySize=auto;html=1;entryX=0.5;entryY=0;entryDx=0;entryDy=0;" edge="1" parent="WIyWlLk6GJQsqaUBKTNV-1" source="d0o_DoR_JnAfmZgIrLK9-336" target="d0o_DoR_JnAfmZgIrLK9-338">
          <mxGeometry relative="1" as="geometry" />
        </mxCell>
        <mxCell id="d0o_DoR_JnAfmZgIrLK9-336" value="用for迴圈來找符合條件的人作為初始設定" style="rounded=1;whiteSpace=wrap;html=1;fontSize=12;glass=0;strokeWidth=1;shadow=0;labelBackgroundColor=none;fillColor=#FAE5C7;strokeColor=#0F8B8D;fontColor=#143642;" vertex="1" parent="WIyWlLk6GJQsqaUBKTNV-1">
          <mxGeometry x="3320" y="2325" width="150" height="50" as="geometry" />
        </mxCell>
        <mxCell id="d0o_DoR_JnAfmZgIrLK9-357" style="edgeStyle=orthogonalEdgeStyle;rounded=0;orthogonalLoop=1;jettySize=auto;html=1;entryX=0.5;entryY=0;entryDx=0;entryDy=0;" edge="1" parent="WIyWlLk6GJQsqaUBKTNV-1" source="d0o_DoR_JnAfmZgIrLK9-338" target="d0o_DoR_JnAfmZgIrLK9-346">
          <mxGeometry relative="1" as="geometry">
            <Array as="points">
              <mxPoint x="3395" y="2595" />
              <mxPoint x="3545" y="2595" />
            </Array>
          </mxGeometry>
        </mxCell>
        <mxCell id="d0o_DoR_JnAfmZgIrLK9-338" value="&lt;div style=&quot;&quot;&gt;按順序找出第一個迴圈中&lt;/div&gt;&lt;div style=&quot;&quot;&gt;peopleInfo[i].status == &quot;offTheElevator&quot;&amp;nbsp;&lt;/div&gt;&lt;div style=&quot;&quot;&gt;&amp;nbsp;peopleInfo[i].elevatorResponse == &quot;none&quot;&lt;/div&gt;&lt;div style=&quot;&quot;&gt;的乘客，再去判斷電梯方向&lt;br&gt;&lt;/div&gt;" style="rhombus;whiteSpace=wrap;html=1;shadow=0;fontFamily=Helvetica;fontSize=12;align=center;strokeWidth=1;spacing=6;spacingTop=-4;labelBackgroundColor=none;fillColor=#FAE5C7;strokeColor=#0F8B8D;fontColor=#143642;" vertex="1" parent="WIyWlLk6GJQsqaUBKTNV-1">
          <mxGeometry x="3272.5" y="2405" width="245" height="170" as="geometry" />
        </mxCell>
        <mxCell id="d0o_DoR_JnAfmZgIrLK9-358" style="edgeStyle=orthogonalEdgeStyle;rounded=0;orthogonalLoop=1;jettySize=auto;html=1;entryX=0.5;entryY=0;entryDx=0;entryDy=0;exitX=0;exitY=0.5;exitDx=0;exitDy=0;" edge="1" parent="WIyWlLk6GJQsqaUBKTNV-1" source="d0o_DoR_JnAfmZgIrLK9-346" target="d0o_DoR_JnAfmZgIrLK9-348">
          <mxGeometry relative="1" as="geometry" />
        </mxCell>
        <mxCell id="d0o_DoR_JnAfmZgIrLK9-359" style="edgeStyle=orthogonalEdgeStyle;rounded=0;orthogonalLoop=1;jettySize=auto;html=1;entryX=0.5;entryY=0;entryDx=0;entryDy=0;exitX=1;exitY=0.5;exitDx=0;exitDy=0;" edge="1" parent="WIyWlLk6GJQsqaUBKTNV-1" source="d0o_DoR_JnAfmZgIrLK9-346" target="d0o_DoR_JnAfmZgIrLK9-350">
          <mxGeometry relative="1" as="geometry">
            <Array as="points">
              <mxPoint x="3685" y="2715" />
              <mxPoint x="3685" y="2925" />
              <mxPoint x="3550" y="2925" />
            </Array>
          </mxGeometry>
        </mxCell>
        <mxCell id="d0o_DoR_JnAfmZgIrLK9-346" value="判斷乘客是否還沒搭過電梯、&lt;br&gt;方向是否與電梯一致、&lt;br&gt;樓層是否與電梯相同、&lt;br&gt;電梯內人數是否少於7人" style="rhombus;whiteSpace=wrap;html=1;shadow=0;fontFamily=Helvetica;fontSize=12;align=center;strokeWidth=1;spacing=6;spacingTop=-4;labelBackgroundColor=none;fillColor=#FAE5C7;strokeColor=#0F8B8D;fontColor=#143642;" vertex="1" parent="WIyWlLk6GJQsqaUBKTNV-1">
          <mxGeometry x="3425" y="2635" width="240" height="160" as="geometry" />
        </mxCell>
        <mxCell id="d0o_DoR_JnAfmZgIrLK9-360" style="edgeStyle=orthogonalEdgeStyle;rounded=0;orthogonalLoop=1;jettySize=auto;html=1;entryX=0.5;entryY=0;entryDx=0;entryDy=0;exitX=0.5;exitY=1;exitDx=0;exitDy=0;" edge="1" parent="WIyWlLk6GJQsqaUBKTNV-1" source="d0o_DoR_JnAfmZgIrLK9-348" target="d0o_DoR_JnAfmZgIrLK9-350">
          <mxGeometry relative="1" as="geometry">
            <Array as="points">
              <mxPoint x="3375" y="2925" />
              <mxPoint x="3550" y="2925" />
            </Array>
          </mxGeometry>
        </mxCell>
        <mxCell id="d0o_DoR_JnAfmZgIrLK9-348" value="讓乘客上車，資料推送至leftElevatorPassenger" style="rounded=1;whiteSpace=wrap;html=1;fontSize=12;glass=0;strokeWidth=1;shadow=0;labelBackgroundColor=none;fillColor=#FAE5C7;strokeColor=#0F8B8D;fontColor=#143642;" vertex="1" parent="WIyWlLk6GJQsqaUBKTNV-1">
          <mxGeometry x="3300" y="2835" width="150" height="50" as="geometry" />
        </mxCell>
        <mxCell id="d0o_DoR_JnAfmZgIrLK9-361" style="edgeStyle=orthogonalEdgeStyle;rounded=0;orthogonalLoop=1;jettySize=auto;html=1;entryX=0.5;entryY=0;entryDx=0;entryDy=0;exitX=1;exitY=0.5;exitDx=0;exitDy=0;" edge="1" parent="WIyWlLk6GJQsqaUBKTNV-1" source="d0o_DoR_JnAfmZgIrLK9-350" target="d0o_DoR_JnAfmZgIrLK9-11">
          <mxGeometry relative="1" as="geometry">
            <mxPoint x="3700" y="3465" as="targetPoint" />
          </mxGeometry>
        </mxCell>
        <mxCell id="d0o_DoR_JnAfmZgIrLK9-362" style="edgeStyle=orthogonalEdgeStyle;rounded=0;orthogonalLoop=1;jettySize=auto;html=1;entryX=0.5;entryY=0;entryDx=0;entryDy=0;exitX=0;exitY=0.5;exitDx=0;exitDy=0;" edge="1" parent="WIyWlLk6GJQsqaUBKTNV-1" source="d0o_DoR_JnAfmZgIrLK9-350" target="d0o_DoR_JnAfmZgIrLK9-352">
          <mxGeometry relative="1" as="geometry" />
        </mxCell>
        <mxCell id="d0o_DoR_JnAfmZgIrLK9-350" value="電梯內人數&amp;gt;0" style="rhombus;whiteSpace=wrap;html=1;shadow=0;fontFamily=Helvetica;fontSize=12;align=center;strokeWidth=1;spacing=6;spacingTop=-4;labelBackgroundColor=none;fillColor=#FAE5C7;strokeColor=#0F8B8D;fontColor=#143642;" vertex="1" parent="WIyWlLk6GJQsqaUBKTNV-1">
          <mxGeometry x="3460" y="2955" width="180" height="100" as="geometry" />
        </mxCell>
        <mxCell id="d0o_DoR_JnAfmZgIrLK9-364" style="edgeStyle=orthogonalEdgeStyle;rounded=0;orthogonalLoop=1;jettySize=auto;html=1;entryX=0.5;entryY=0;entryDx=0;entryDy=0;exitX=1;exitY=0.5;exitDx=0;exitDy=0;" edge="1" parent="WIyWlLk6GJQsqaUBKTNV-1" source="d0o_DoR_JnAfmZgIrLK9-352" target="d0o_DoR_JnAfmZgIrLK9-354">
          <mxGeometry relative="1" as="geometry" />
        </mxCell>
        <mxCell id="d0o_DoR_JnAfmZgIrLK9-352" value="如果電梯當前樓層&amp;lt;&lt;br&gt;第一位乘客的離開樓層&lt;br&gt;" style="rhombus;whiteSpace=wrap;html=1;shadow=0;fontFamily=Helvetica;fontSize=12;align=center;strokeWidth=1;spacing=6;spacingTop=-4;labelBackgroundColor=none;fillColor=#FAE5C7;strokeColor=#0F8B8D;fontColor=#143642;" vertex="1" parent="WIyWlLk6GJQsqaUBKTNV-1">
          <mxGeometry x="3300" y="3025" width="180" height="100" as="geometry" />
        </mxCell>
        <mxCell id="d0o_DoR_JnAfmZgIrLK9-365" style="edgeStyle=orthogonalEdgeStyle;rounded=0;orthogonalLoop=1;jettySize=auto;html=1;entryX=0.5;entryY=0;entryDx=0;entryDy=0;" edge="1" parent="WIyWlLk6GJQsqaUBKTNV-1" source="d0o_DoR_JnAfmZgIrLK9-353" target="d0o_DoR_JnAfmZgIrLK9-355">
          <mxGeometry relative="1" as="geometry" />
        </mxCell>
        <mxCell id="d0o_DoR_JnAfmZgIrLK9-353" value="電梯方向為up" style="rounded=1;whiteSpace=wrap;html=1;fontSize=12;glass=0;strokeWidth=1;shadow=0;labelBackgroundColor=none;fillColor=#FAE5C7;strokeColor=#0F8B8D;fontColor=#143642;" vertex="1" parent="WIyWlLk6GJQsqaUBKTNV-1">
          <mxGeometry x="3190" y="3215" width="150" height="50" as="geometry" />
        </mxCell>
        <mxCell id="d0o_DoR_JnAfmZgIrLK9-366" style="edgeStyle=orthogonalEdgeStyle;rounded=0;orthogonalLoop=1;jettySize=auto;html=1;entryX=0.5;entryY=0;entryDx=0;entryDy=0;" edge="1" parent="WIyWlLk6GJQsqaUBKTNV-1" source="d0o_DoR_JnAfmZgIrLK9-354" target="d0o_DoR_JnAfmZgIrLK9-355">
          <mxGeometry relative="1" as="geometry" />
        </mxCell>
        <mxCell id="d0o_DoR_JnAfmZgIrLK9-354" value="電梯方向為down" style="rounded=1;whiteSpace=wrap;html=1;fontSize=12;glass=0;strokeWidth=1;shadow=0;labelBackgroundColor=none;fillColor=#FAE5C7;strokeColor=#0F8B8D;fontColor=#143642;" vertex="1" parent="WIyWlLk6GJQsqaUBKTNV-1">
          <mxGeometry x="3440" y="3215" width="150" height="50" as="geometry" />
        </mxCell>
        <mxCell id="d0o_DoR_JnAfmZgIrLK9-367" style="edgeStyle=orthogonalEdgeStyle;rounded=0;orthogonalLoop=1;jettySize=auto;html=1;entryX=0;entryY=0.5;entryDx=0;entryDy=0;exitX=0.5;exitY=1;exitDx=0;exitDy=0;" edge="1" parent="WIyWlLk6GJQsqaUBKTNV-1" source="d0o_DoR_JnAfmZgIrLK9-355" target="d0o_DoR_JnAfmZgIrLK9-11">
          <mxGeometry relative="1" as="geometry" />
        </mxCell>
        <mxCell id="d0o_DoR_JnAfmZgIrLK9-355" value="如果電梯內人數&amp;gt;1，&lt;br style=&quot;border-color: var(--border-color);&quot;&gt;用方向跟for迴圈&lt;br style=&quot;border-color: var(--border-color);&quot;&gt;決定電梯endfloor" style="rounded=1;whiteSpace=wrap;html=1;fontSize=12;glass=0;strokeWidth=1;shadow=0;labelBackgroundColor=none;fillColor=#FAE5C7;strokeColor=#0F8B8D;fontColor=#143642;" vertex="1" parent="WIyWlLk6GJQsqaUBKTNV-1">
          <mxGeometry x="3320" y="3315" width="150" height="50" as="geometry" />
        </mxCell>
        <mxCell id="d0o_DoR_JnAfmZgIrLK9-363" style="edgeStyle=orthogonalEdgeStyle;rounded=0;orthogonalLoop=1;jettySize=auto;html=1;entryX=0.46;entryY=-0.064;entryDx=0;entryDy=0;entryPerimeter=0;exitX=0;exitY=0.5;exitDx=0;exitDy=0;" edge="1" parent="WIyWlLk6GJQsqaUBKTNV-1" source="d0o_DoR_JnAfmZgIrLK9-352" target="d0o_DoR_JnAfmZgIrLK9-353">
          <mxGeometry relative="1" as="geometry" />
        </mxCell>
        <mxCell id="d0o_DoR_JnAfmZgIrLK9-370" style="edgeStyle=orthogonalEdgeStyle;rounded=0;orthogonalLoop=1;jettySize=auto;html=1;entryX=0.5;entryY=0;entryDx=0;entryDy=0;" edge="1" parent="WIyWlLk6GJQsqaUBKTNV-1" source="d0o_DoR_JnAfmZgIrLK9-371" target="d0o_DoR_JnAfmZgIrLK9-419">
          <mxGeometry relative="1" as="geometry" />
        </mxCell>
        <mxCell id="d0o_DoR_JnAfmZgIrLK9-371" value="創造一位乘客" style="rounded=1;whiteSpace=wrap;html=1;fontSize=12;glass=0;strokeWidth=1;shadow=0;labelBackgroundColor=none;fillColor=#FAE5C7;strokeColor=#0F8B8D;fontColor=#143642;" vertex="1" parent="WIyWlLk6GJQsqaUBKTNV-1">
          <mxGeometry x="300" y="605" width="120" height="30" as="geometry" />
        </mxCell>
        <mxCell id="d0o_DoR_JnAfmZgIrLK9-372" style="edgeStyle=orthogonalEdgeStyle;rounded=0;orthogonalLoop=1;jettySize=auto;html=1;entryX=0.5;entryY=0;entryDx=0;entryDy=0;" edge="1" parent="WIyWlLk6GJQsqaUBKTNV-1" source="d0o_DoR_JnAfmZgIrLK9-376" target="d0o_DoR_JnAfmZgIrLK9-371">
          <mxGeometry relative="1" as="geometry">
            <Array as="points">
              <mxPoint x="360" y="515" />
            </Array>
          </mxGeometry>
        </mxCell>
        <mxCell id="d0o_DoR_JnAfmZgIrLK9-373" value="Yes" style="edgeLabel;html=1;align=center;verticalAlign=middle;resizable=0;points=[];fontSize=11;fontFamily=Helvetica;fontColor=default;" vertex="1" connectable="0" parent="d0o_DoR_JnAfmZgIrLK9-372">
          <mxGeometry x="0.2392" y="2" relative="1" as="geometry">
            <mxPoint as="offset" />
          </mxGeometry>
        </mxCell>
        <mxCell id="d0o_DoR_JnAfmZgIrLK9-374" style="edgeStyle=orthogonalEdgeStyle;rounded=0;orthogonalLoop=1;jettySize=auto;html=1;entryX=0.5;entryY=0;entryDx=0;entryDy=0;" edge="1" parent="WIyWlLk6GJQsqaUBKTNV-1" source="d0o_DoR_JnAfmZgIrLK9-376" target="d0o_DoR_JnAfmZgIrLK9-389">
          <mxGeometry relative="1" as="geometry">
            <Array as="points">
              <mxPoint x="640" y="515" />
              <mxPoint x="640" y="855" />
              <mxPoint x="490" y="855" />
            </Array>
          </mxGeometry>
        </mxCell>
        <mxCell id="d0o_DoR_JnAfmZgIrLK9-375" value="NO" style="edgeLabel;html=1;align=center;verticalAlign=middle;resizable=0;points=[];" vertex="1" connectable="0" parent="d0o_DoR_JnAfmZgIrLK9-374">
          <mxGeometry x="-0.8805" y="2" relative="1" as="geometry">
            <mxPoint as="offset" />
          </mxGeometry>
        </mxCell>
        <mxCell id="d0o_DoR_JnAfmZgIrLK9-376" value="&lt;font style=&quot;font-size: 12px;&quot;&gt;判斷peoplel值是否還大於0&lt;/font&gt;" style="rhombus;whiteSpace=wrap;html=1;shadow=0;fontFamily=Helvetica;fontSize=12;align=center;strokeWidth=1;spacing=6;spacingTop=-4;labelBackgroundColor=none;fillColor=#FAE5C7;strokeColor=#0F8B8D;fontColor=#143642;" vertex="1" parent="WIyWlLk6GJQsqaUBKTNV-1">
          <mxGeometry x="410" y="450" width="160" height="130" as="geometry" />
        </mxCell>
        <mxCell id="d0o_DoR_JnAfmZgIrLK9-377" style="edgeStyle=orthogonalEdgeStyle;shape=connector;rounded=0;orthogonalLoop=1;jettySize=auto;html=1;labelBackgroundColor=default;strokeColor=default;align=center;verticalAlign=middle;fontFamily=Helvetica;fontSize=11;fontColor=default;endArrow=classic;" edge="1" parent="WIyWlLk6GJQsqaUBKTNV-1" source="d0o_DoR_JnAfmZgIrLK9-378" target="d0o_DoR_JnAfmZgIrLK9-382">
          <mxGeometry relative="1" as="geometry" />
        </mxCell>
        <mxCell id="d0o_DoR_JnAfmZgIrLK9-378" value="繪製總樓層、按鈕、剩餘人數、總花費時間、當前電梯位置" style="rounded=1;whiteSpace=wrap;html=1;fontSize=12;glass=0;strokeWidth=1;shadow=0;labelBackgroundColor=none;fillColor=#FAE5C7;strokeColor=#0F8B8D;fontColor=#143642;" vertex="1" parent="WIyWlLk6GJQsqaUBKTNV-1">
          <mxGeometry x="430" y="230" width="120" height="50" as="geometry" />
        </mxCell>
        <mxCell id="d0o_DoR_JnAfmZgIrLK9-379" style="edgeStyle=orthogonalEdgeStyle;shape=connector;rounded=0;orthogonalLoop=1;jettySize=auto;html=1;labelBackgroundColor=default;strokeColor=default;align=center;verticalAlign=middle;fontFamily=Helvetica;fontSize=11;fontColor=default;endArrow=classic;" edge="1" parent="WIyWlLk6GJQsqaUBKTNV-1" source="d0o_DoR_JnAfmZgIrLK9-380" target="d0o_DoR_JnAfmZgIrLK9-376">
          <mxGeometry relative="1" as="geometry" />
        </mxCell>
        <mxCell id="d0o_DoR_JnAfmZgIrLK9-380" value="繪製剩餘人數、樓層" style="rounded=1;whiteSpace=wrap;html=1;fontSize=12;glass=0;strokeWidth=1;shadow=0;labelBackgroundColor=none;fillColor=#FAE5C7;strokeColor=#0F8B8D;fontColor=#143642;" vertex="1" parent="WIyWlLk6GJQsqaUBKTNV-1">
          <mxGeometry x="430" y="380" width="120" height="40" as="geometry" />
        </mxCell>
        <mxCell id="d0o_DoR_JnAfmZgIrLK9-381" style="edgeStyle=orthogonalEdgeStyle;shape=connector;rounded=0;orthogonalLoop=1;jettySize=auto;html=1;entryX=0.5;entryY=0;entryDx=0;entryDy=0;labelBackgroundColor=default;strokeColor=default;align=center;verticalAlign=middle;fontFamily=Helvetica;fontSize=11;fontColor=default;endArrow=classic;" edge="1" parent="WIyWlLk6GJQsqaUBKTNV-1" source="d0o_DoR_JnAfmZgIrLK9-382" target="d0o_DoR_JnAfmZgIrLK9-380">
          <mxGeometry relative="1" as="geometry" />
        </mxCell>
        <mxCell id="d0o_DoR_JnAfmZgIrLK9-382" value="開始每秒draw()一次" style="rounded=1;whiteSpace=wrap;html=1;fontSize=12;glass=0;strokeWidth=1;shadow=0;labelBackgroundColor=none;fillColor=#FAE5C7;strokeColor=#0F8B8D;fontColor=#143642;" vertex="1" parent="WIyWlLk6GJQsqaUBKTNV-1">
          <mxGeometry x="430" y="300" width="120" height="40" as="geometry" />
        </mxCell>
        <mxCell id="d0o_DoR_JnAfmZgIrLK9-383" style="edgeStyle=orthogonalEdgeStyle;shape=connector;rounded=0;orthogonalLoop=1;jettySize=auto;html=1;entryX=0.5;entryY=0;entryDx=0;entryDy=0;labelBackgroundColor=default;strokeColor=default;align=center;verticalAlign=middle;fontFamily=Helvetica;fontSize=11;fontColor=default;endArrow=classic;" edge="1" parent="WIyWlLk6GJQsqaUBKTNV-1" source="d0o_DoR_JnAfmZgIrLK9-384" target="d0o_DoR_JnAfmZgIrLK9-378">
          <mxGeometry relative="1" as="geometry" />
        </mxCell>
        <mxCell id="d0o_DoR_JnAfmZgIrLK9-384" value="開始" style="ellipse;whiteSpace=wrap;html=1;aspect=fixed;fillColor=#ffe6cc;strokeColor=#d79b00;" vertex="1" parent="WIyWlLk6GJQsqaUBKTNV-1">
          <mxGeometry x="450" y="110" width="80" height="80" as="geometry" />
        </mxCell>
        <mxCell id="d0o_DoR_JnAfmZgIrLK9-385" style="edgeStyle=orthogonalEdgeStyle;shape=connector;rounded=0;orthogonalLoop=1;jettySize=auto;html=1;labelBackgroundColor=default;strokeColor=default;align=center;verticalAlign=middle;fontFamily=Helvetica;fontSize=11;fontColor=default;endArrow=classic;" edge="1" parent="WIyWlLk6GJQsqaUBKTNV-1" source="d0o_DoR_JnAfmZgIrLK9-389" target="d0o_DoR_JnAfmZgIrLK9-391">
          <mxGeometry relative="1" as="geometry">
            <Array as="points">
              <mxPoint x="360" y="1122.5" />
            </Array>
          </mxGeometry>
        </mxCell>
        <mxCell id="d0o_DoR_JnAfmZgIrLK9-386" value="&lt;br&gt;上" style="edgeLabel;html=1;align=center;verticalAlign=middle;resizable=0;points=[];fontSize=11;fontFamily=Helvetica;fontColor=default;" vertex="1" connectable="0" parent="d0o_DoR_JnAfmZgIrLK9-385">
          <mxGeometry x="-0.0607" y="-1" relative="1" as="geometry">
            <mxPoint as="offset" />
          </mxGeometry>
        </mxCell>
        <mxCell id="d0o_DoR_JnAfmZgIrLK9-387" style="edgeStyle=orthogonalEdgeStyle;shape=connector;rounded=0;orthogonalLoop=1;jettySize=auto;html=1;entryX=0.5;entryY=0;entryDx=0;entryDy=0;labelBackgroundColor=default;strokeColor=default;align=center;verticalAlign=middle;fontFamily=Helvetica;fontSize=11;fontColor=default;endArrow=classic;" edge="1" parent="WIyWlLk6GJQsqaUBKTNV-1" source="d0o_DoR_JnAfmZgIrLK9-389" target="d0o_DoR_JnAfmZgIrLK9-393">
          <mxGeometry relative="1" as="geometry">
            <Array as="points">
              <mxPoint x="620" y="1122.5" />
            </Array>
          </mxGeometry>
        </mxCell>
        <mxCell id="d0o_DoR_JnAfmZgIrLK9-388" value="下" style="edgeLabel;html=1;align=center;verticalAlign=middle;resizable=0;points=[];fontSize=11;fontFamily=Helvetica;fontColor=default;" vertex="1" connectable="0" parent="d0o_DoR_JnAfmZgIrLK9-387">
          <mxGeometry x="-0.072" y="1" relative="1" as="geometry">
            <mxPoint as="offset" />
          </mxGeometry>
        </mxCell>
        <mxCell id="d0o_DoR_JnAfmZgIrLK9-389" value="電梯方向為上或是下" style="rhombus;whiteSpace=wrap;html=1;shadow=0;fontFamily=Helvetica;fontSize=12;align=center;strokeWidth=1;spacing=6;spacingTop=-4;labelBackgroundColor=none;fillColor=#FAE5C7;strokeColor=#0F8B8D;fontColor=#143642;" vertex="1" parent="WIyWlLk6GJQsqaUBKTNV-1">
          <mxGeometry x="410" y="915" width="160" height="130" as="geometry" />
        </mxCell>
        <mxCell id="d0o_DoR_JnAfmZgIrLK9-390" style="edgeStyle=orthogonalEdgeStyle;shape=connector;rounded=0;orthogonalLoop=1;jettySize=auto;html=1;entryX=0.5;entryY=0;entryDx=0;entryDy=0;labelBackgroundColor=default;strokeColor=default;align=center;verticalAlign=middle;fontFamily=Helvetica;fontSize=11;fontColor=default;endArrow=classic;" edge="1" parent="WIyWlLk6GJQsqaUBKTNV-1" source="d0o_DoR_JnAfmZgIrLK9-391" target="d0o_DoR_JnAfmZgIrLK9-395">
          <mxGeometry relative="1" as="geometry">
            <Array as="points">
              <mxPoint x="360" y="1297.5" />
              <mxPoint x="490" y="1297.5" />
            </Array>
          </mxGeometry>
        </mxCell>
        <mxCell id="d0o_DoR_JnAfmZgIrLK9-391" value="往上" style="rounded=1;whiteSpace=wrap;html=1;fontSize=12;glass=0;strokeWidth=1;shadow=0;labelBackgroundColor=none;fillColor=#FAE5C7;strokeColor=#0F8B8D;fontColor=#143642;" vertex="1" parent="WIyWlLk6GJQsqaUBKTNV-1">
          <mxGeometry x="300" y="1247.5" width="120" height="30" as="geometry" />
        </mxCell>
        <mxCell id="d0o_DoR_JnAfmZgIrLK9-392" style="edgeStyle=orthogonalEdgeStyle;shape=connector;rounded=0;orthogonalLoop=1;jettySize=auto;html=1;entryX=0.5;entryY=0;entryDx=0;entryDy=0;labelBackgroundColor=default;strokeColor=default;align=center;verticalAlign=middle;fontFamily=Helvetica;fontSize=11;fontColor=default;endArrow=classic;" edge="1" parent="WIyWlLk6GJQsqaUBKTNV-1" source="d0o_DoR_JnAfmZgIrLK9-393" target="d0o_DoR_JnAfmZgIrLK9-395">
          <mxGeometry relative="1" as="geometry">
            <Array as="points">
              <mxPoint x="620" y="1297.5" />
              <mxPoint x="490" y="1297.5" />
            </Array>
          </mxGeometry>
        </mxCell>
        <mxCell id="d0o_DoR_JnAfmZgIrLK9-393" value="往下" style="rounded=1;whiteSpace=wrap;html=1;fontSize=12;glass=0;strokeWidth=1;shadow=0;labelBackgroundColor=none;fillColor=#FAE5C7;strokeColor=#0F8B8D;fontColor=#143642;" vertex="1" parent="WIyWlLk6GJQsqaUBKTNV-1">
          <mxGeometry x="560" y="1247.5" width="120" height="30" as="geometry" />
        </mxCell>
        <mxCell id="d0o_DoR_JnAfmZgIrLK9-394" style="edgeStyle=orthogonalEdgeStyle;shape=connector;rounded=0;orthogonalLoop=1;jettySize=auto;html=1;entryX=0.5;entryY=0;entryDx=0;entryDy=0;labelBackgroundColor=default;strokeColor=default;align=center;verticalAlign=middle;fontFamily=Helvetica;fontSize=11;fontColor=default;endArrow=classic;" edge="1" parent="WIyWlLk6GJQsqaUBKTNV-1" source="d0o_DoR_JnAfmZgIrLK9-395" target="d0o_DoR_JnAfmZgIrLK9-400">
          <mxGeometry relative="1" as="geometry" />
        </mxCell>
        <mxCell id="d0o_DoR_JnAfmZgIrLK9-395" value="繪製電梯移動後位置" style="rounded=1;whiteSpace=wrap;html=1;fontSize=12;glass=0;strokeWidth=1;shadow=0;labelBackgroundColor=none;fillColor=#FAE5C7;strokeColor=#0F8B8D;fontColor=#143642;" vertex="1" parent="WIyWlLk6GJQsqaUBKTNV-1">
          <mxGeometry x="430" y="1347.5" width="120" height="30" as="geometry" />
        </mxCell>
        <mxCell id="d0o_DoR_JnAfmZgIrLK9-396" style="edgeStyle=orthogonalEdgeStyle;shape=connector;rounded=0;orthogonalLoop=1;jettySize=auto;html=1;entryX=0.5;entryY=0;entryDx=0;entryDy=0;labelBackgroundColor=default;strokeColor=default;align=center;verticalAlign=middle;fontFamily=Helvetica;fontSize=11;fontColor=default;endArrow=classic;exitX=1;exitY=0.5;exitDx=0;exitDy=0;" edge="1" parent="WIyWlLk6GJQsqaUBKTNV-1" source="d0o_DoR_JnAfmZgIrLK9-400" target="d0o_DoR_JnAfmZgIrLK9-402">
          <mxGeometry relative="1" as="geometry">
            <Array as="points">
              <mxPoint x="610" y="1483" />
              <mxPoint x="610" y="1885" />
              <mxPoint x="475" y="1885" />
            </Array>
          </mxGeometry>
        </mxCell>
        <mxCell id="d0o_DoR_JnAfmZgIrLK9-397" value="NO" style="edgeLabel;html=1;align=center;verticalAlign=middle;resizable=0;points=[];fontSize=11;fontFamily=Helvetica;fontColor=default;" vertex="1" connectable="0" parent="d0o_DoR_JnAfmZgIrLK9-396">
          <mxGeometry x="-0.551" y="1" relative="1" as="geometry">
            <mxPoint as="offset" />
          </mxGeometry>
        </mxCell>
        <mxCell id="d0o_DoR_JnAfmZgIrLK9-398" style="edgeStyle=orthogonalEdgeStyle;shape=connector;rounded=0;orthogonalLoop=1;jettySize=auto;html=1;entryX=0.5;entryY=0;entryDx=0;entryDy=0;labelBackgroundColor=default;strokeColor=default;align=center;verticalAlign=middle;fontFamily=Helvetica;fontSize=11;fontColor=default;endArrow=classic;" edge="1" parent="WIyWlLk6GJQsqaUBKTNV-1" source="d0o_DoR_JnAfmZgIrLK9-400" target="d0o_DoR_JnAfmZgIrLK9-404">
          <mxGeometry relative="1" as="geometry">
            <Array as="points">
              <mxPoint x="365" y="1482.5" />
            </Array>
          </mxGeometry>
        </mxCell>
        <mxCell id="d0o_DoR_JnAfmZgIrLK9-399" value="YES" style="edgeLabel;html=1;align=center;verticalAlign=middle;resizable=0;points=[];fontSize=11;fontFamily=Helvetica;fontColor=default;" vertex="1" connectable="0" parent="d0o_DoR_JnAfmZgIrLK9-398">
          <mxGeometry x="-0.7677" y="-1" relative="1" as="geometry">
            <mxPoint as="offset" />
          </mxGeometry>
        </mxCell>
        <mxCell id="d0o_DoR_JnAfmZgIrLK9-400" value="for迴圈判斷&lt;br&gt;電梯內乘客的&lt;br&gt;離開樓層有沒有&lt;br&gt;與當前樓層相同" style="rhombus;whiteSpace=wrap;html=1;shadow=0;fontFamily=Helvetica;fontSize=12;align=center;strokeWidth=1;spacing=6;spacingTop=-4;labelBackgroundColor=none;fillColor=#FAE5C7;strokeColor=#0F8B8D;fontColor=#143642;" vertex="1" parent="WIyWlLk6GJQsqaUBKTNV-1">
          <mxGeometry x="410" y="1417.5" width="160" height="130" as="geometry" />
        </mxCell>
        <mxCell id="d0o_DoR_JnAfmZgIrLK9-401" style="edgeStyle=orthogonalEdgeStyle;rounded=0;orthogonalLoop=1;jettySize=auto;html=1;entryX=0.5;entryY=0;entryDx=0;entryDy=0;" edge="1" parent="WIyWlLk6GJQsqaUBKTNV-1" source="d0o_DoR_JnAfmZgIrLK9-402" target="d0o_DoR_JnAfmZgIrLK9-405">
          <mxGeometry relative="1" as="geometry" />
        </mxCell>
        <mxCell id="d0o_DoR_JnAfmZgIrLK9-402" value="顯是&lt;br&gt;還有哪些按鈕被按下" style="rounded=1;whiteSpace=wrap;html=1;fontSize=12;glass=0;strokeWidth=1;shadow=0;labelBackgroundColor=none;fillColor=#FAE5C7;strokeColor=#0F8B8D;fontColor=#143642;" vertex="1" parent="WIyWlLk6GJQsqaUBKTNV-1">
          <mxGeometry x="395" y="1985" width="160" height="40" as="geometry" />
        </mxCell>
        <mxCell id="d0o_DoR_JnAfmZgIrLK9-403" style="edgeStyle=orthogonalEdgeStyle;rounded=0;orthogonalLoop=1;jettySize=auto;html=1;entryX=0.5;entryY=0;entryDx=0;entryDy=0;" edge="1" parent="WIyWlLk6GJQsqaUBKTNV-1" source="d0o_DoR_JnAfmZgIrLK9-404" target="d0o_DoR_JnAfmZgIrLK9-422">
          <mxGeometry relative="1" as="geometry" />
        </mxCell>
        <mxCell id="d0o_DoR_JnAfmZgIrLK9-404" value="乘客出電梯&lt;br&gt;numberOfPeopleArrived++" style="rounded=1;whiteSpace=wrap;html=1;fontSize=12;glass=0;strokeWidth=1;shadow=0;labelBackgroundColor=none;fillColor=#FAE5C7;strokeColor=#0F8B8D;fontColor=#143642;" vertex="1" parent="WIyWlLk6GJQsqaUBKTNV-1">
          <mxGeometry x="290" y="1517.5" width="150" height="50" as="geometry" />
        </mxCell>
        <mxCell id="d0o_DoR_JnAfmZgIrLK9-455" style="edgeStyle=orthogonalEdgeStyle;rounded=0;orthogonalLoop=1;jettySize=auto;html=1;entryX=0.5;entryY=0;entryDx=0;entryDy=0;" edge="1" parent="WIyWlLk6GJQsqaUBKTNV-1" source="d0o_DoR_JnAfmZgIrLK9-405" target="d0o_DoR_JnAfmZgIrLK9-428">
          <mxGeometry relative="1" as="geometry" />
        </mxCell>
        <mxCell id="d0o_DoR_JnAfmZgIrLK9-405" value="繪製還有多少人等電梯畫面" style="rounded=1;whiteSpace=wrap;html=1;fontSize=12;glass=0;strokeWidth=1;shadow=0;labelBackgroundColor=none;fillColor=#FAE5C7;strokeColor=#0F8B8D;fontColor=#143642;" vertex="1" parent="WIyWlLk6GJQsqaUBKTNV-1">
          <mxGeometry x="400" y="2065" width="150" height="40" as="geometry" />
        </mxCell>
        <mxCell id="d0o_DoR_JnAfmZgIrLK9-406" style="edgeStyle=orthogonalEdgeStyle;rounded=0;orthogonalLoop=1;jettySize=auto;html=1;entryX=0.5;entryY=0;entryDx=0;entryDy=0;" edge="1" parent="WIyWlLk6GJQsqaUBKTNV-1" source="d0o_DoR_JnAfmZgIrLK9-407" target="d0o_DoR_JnAfmZgIrLK9-411">
          <mxGeometry relative="1" as="geometry" />
        </mxCell>
        <mxCell id="d0o_DoR_JnAfmZgIrLK9-407" value="繪製總共經過的時間" style="rounded=1;whiteSpace=wrap;html=1;fontSize=12;glass=0;strokeWidth=1;shadow=0;labelBackgroundColor=none;fillColor=#FAE5C7;strokeColor=#0F8B8D;fontColor=#143642;" vertex="1" parent="WIyWlLk6GJQsqaUBKTNV-1">
          <mxGeometry x="515" y="3455" width="150" height="50" as="geometry" />
        </mxCell>
        <mxCell id="d0o_DoR_JnAfmZgIrLK9-408" value="" style="edgeStyle=orthogonalEdgeStyle;rounded=0;orthogonalLoop=1;jettySize=auto;html=1;" edge="1" parent="WIyWlLk6GJQsqaUBKTNV-1" source="d0o_DoR_JnAfmZgIrLK9-411" target="d0o_DoR_JnAfmZgIrLK9-412">
          <mxGeometry relative="1" as="geometry" />
        </mxCell>
        <mxCell id="d0o_DoR_JnAfmZgIrLK9-409" value="YES" style="edgeLabel;html=1;align=center;verticalAlign=middle;resizable=0;points=[];" vertex="1" connectable="0" parent="d0o_DoR_JnAfmZgIrLK9-408">
          <mxGeometry x="-0.2156" y="1" relative="1" as="geometry">
            <mxPoint as="offset" />
          </mxGeometry>
        </mxCell>
        <mxCell id="d0o_DoR_JnAfmZgIrLK9-410" style="edgeStyle=orthogonalEdgeStyle;rounded=0;orthogonalLoop=1;jettySize=auto;html=1;entryX=1;entryY=0.5;entryDx=0;entryDy=0;" edge="1" parent="WIyWlLk6GJQsqaUBKTNV-1" source="d0o_DoR_JnAfmZgIrLK9-411" target="d0o_DoR_JnAfmZgIrLK9-380">
          <mxGeometry relative="1" as="geometry">
            <mxPoint x="670" y="370.111083984375" as="targetPoint" />
            <Array as="points">
              <mxPoint x="820" y="3625" />
              <mxPoint x="820" y="400" />
            </Array>
          </mxGeometry>
        </mxCell>
        <mxCell id="d0o_DoR_JnAfmZgIrLK9-411" value="&lt;div style=&quot;&quot;&gt;判斷PartANumberOfPeopleArrived&lt;/div&gt;&lt;div style=&quot;&quot;&gt;是否等於40&lt;/div&gt;" style="rhombus;whiteSpace=wrap;html=1;shadow=0;fontFamily=Helvetica;fontSize=12;align=center;strokeWidth=1;spacing=6;spacingTop=-4;labelBackgroundColor=none;fillColor=#FAE5C7;strokeColor=#0F8B8D;fontColor=#143642;" vertex="1" parent="WIyWlLk6GJQsqaUBKTNV-1">
          <mxGeometry x="510" y="3560" width="160" height="130" as="geometry" />
        </mxCell>
        <mxCell id="d0o_DoR_JnAfmZgIrLK9-412" value="程式結束" style="whiteSpace=wrap;html=1;fillColor=#FAE5C7;strokeColor=#0F8B8D;fontColor=#143642;shadow=0;strokeWidth=1;spacing=6;spacingTop=-4;labelBackgroundColor=none;" vertex="1" parent="WIyWlLk6GJQsqaUBKTNV-1">
          <mxGeometry x="280" y="3595" width="120" height="60" as="geometry" />
        </mxCell>
        <mxCell id="d0o_DoR_JnAfmZgIrLK9-413" style="edgeStyle=orthogonalEdgeStyle;rounded=0;orthogonalLoop=1;jettySize=auto;html=1;entryX=0.5;entryY=0;entryDx=0;entryDy=0;exitX=0.487;exitY=1.01;exitDx=0;exitDy=0;exitPerimeter=0;" edge="1" parent="WIyWlLk6GJQsqaUBKTNV-1" source="d0o_DoR_JnAfmZgIrLK9-414" target="d0o_DoR_JnAfmZgIrLK9-402">
          <mxGeometry relative="1" as="geometry">
            <Array as="points">
              <mxPoint x="363" y="1885" />
              <mxPoint x="475" y="1885" />
            </Array>
          </mxGeometry>
        </mxCell>
        <mxCell id="d0o_DoR_JnAfmZgIrLK9-414" value="繪製乘客出電梯畫面" style="rounded=1;whiteSpace=wrap;html=1;fontSize=12;glass=0;strokeWidth=1;shadow=0;labelBackgroundColor=none;fillColor=#FAE5C7;strokeColor=#0F8B8D;fontColor=#143642;" vertex="1" parent="WIyWlLk6GJQsqaUBKTNV-1">
          <mxGeometry x="290" y="1850" width="150" height="30" as="geometry" />
        </mxCell>
        <mxCell id="d0o_DoR_JnAfmZgIrLK9-415" style="edgeStyle=orthogonalEdgeStyle;rounded=0;orthogonalLoop=1;jettySize=auto;html=1;entryX=0.5;entryY=0;entryDx=0;entryDy=0;" edge="1" parent="WIyWlLk6GJQsqaUBKTNV-1" source="d0o_DoR_JnAfmZgIrLK9-419" target="d0o_DoR_JnAfmZgIrLK9-419">
          <mxGeometry relative="1" as="geometry">
            <mxPoint x="270" y="675" as="targetPoint" />
            <Array as="points">
              <mxPoint x="240" y="740" />
              <mxPoint x="240" y="675" />
            </Array>
          </mxGeometry>
        </mxCell>
        <mxCell id="d0o_DoR_JnAfmZgIrLK9-416" value="YES" style="edgeLabel;html=1;align=center;verticalAlign=middle;resizable=0;points=[];" vertex="1" connectable="0" parent="d0o_DoR_JnAfmZgIrLK9-415">
          <mxGeometry x="-0.4034" y="3" relative="1" as="geometry">
            <mxPoint as="offset" />
          </mxGeometry>
        </mxCell>
        <mxCell id="d0o_DoR_JnAfmZgIrLK9-417" style="edgeStyle=orthogonalEdgeStyle;rounded=0;orthogonalLoop=1;jettySize=auto;html=1;entryX=0.5;entryY=0;entryDx=0;entryDy=0;" edge="1" parent="WIyWlLk6GJQsqaUBKTNV-1" source="d0o_DoR_JnAfmZgIrLK9-419" target="d0o_DoR_JnAfmZgIrLK9-389">
          <mxGeometry relative="1" as="geometry">
            <Array as="points">
              <mxPoint x="360" y="855" />
              <mxPoint x="490" y="855" />
            </Array>
          </mxGeometry>
        </mxCell>
        <mxCell id="d0o_DoR_JnAfmZgIrLK9-418" value="NO" style="edgeLabel;html=1;align=center;verticalAlign=middle;resizable=0;points=[];" vertex="1" connectable="0" parent="d0o_DoR_JnAfmZgIrLK9-417">
          <mxGeometry x="-0.0975" relative="1" as="geometry">
            <mxPoint as="offset" />
          </mxGeometry>
        </mxCell>
        <mxCell id="d0o_DoR_JnAfmZgIrLK9-419" value="&lt;blockquote style=&quot;margin: 0 0 0 40px; border: none; padding: 0px;&quot;&gt;&lt;/blockquote&gt;&lt;span style=&quot;background-color: initial;&quot;&gt;判斷隨機出來的&lt;/span&gt;&lt;br&gt;&lt;span style=&quot;background-color: initial;&quot;&gt;進入樓層、&lt;/span&gt;&lt;br&gt;&lt;span style=&quot;background-color: initial;&quot;&gt;離開樓層是否重覆&lt;/span&gt;&lt;br&gt;&lt;blockquote style=&quot;margin: 0 0 0 40px; border: none; padding: 0px;&quot;&gt;&lt;/blockquote&gt;" style="rhombus;whiteSpace=wrap;html=1;shadow=0;fontFamily=Helvetica;fontSize=12;align=center;strokeWidth=1;spacing=6;spacingTop=-4;labelBackgroundColor=none;fillColor=#FAE5C7;strokeColor=#0F8B8D;fontColor=#143642;" vertex="1" parent="WIyWlLk6GJQsqaUBKTNV-1">
          <mxGeometry x="280" y="675" width="160" height="130" as="geometry" />
        </mxCell>
        <mxCell id="d0o_DoR_JnAfmZgIrLK9-420" style="edgeStyle=orthogonalEdgeStyle;rounded=0;orthogonalLoop=1;jettySize=auto;html=1;entryX=0.5;entryY=0;entryDx=0;entryDy=0;exitX=0;exitY=0.5;exitDx=0;exitDy=0;" edge="1" parent="WIyWlLk6GJQsqaUBKTNV-1" source="d0o_DoR_JnAfmZgIrLK9-422" target="d0o_DoR_JnAfmZgIrLK9-424">
          <mxGeometry relative="1" as="geometry" />
        </mxCell>
        <mxCell id="d0o_DoR_JnAfmZgIrLK9-450" value="yes&lt;br&gt;" style="edgeLabel;html=1;align=center;verticalAlign=middle;resizable=0;points=[];" vertex="1" connectable="0" parent="d0o_DoR_JnAfmZgIrLK9-420">
          <mxGeometry x="-0.4115" y="2" relative="1" as="geometry">
            <mxPoint as="offset" />
          </mxGeometry>
        </mxCell>
        <mxCell id="d0o_DoR_JnAfmZgIrLK9-421" style="edgeStyle=orthogonalEdgeStyle;rounded=0;orthogonalLoop=1;jettySize=auto;html=1;entryX=0.5;entryY=0;entryDx=0;entryDy=0;exitX=1;exitY=0.5;exitDx=0;exitDy=0;" edge="1" parent="WIyWlLk6GJQsqaUBKTNV-1" source="d0o_DoR_JnAfmZgIrLK9-422" target="d0o_DoR_JnAfmZgIrLK9-414">
          <mxGeometry relative="1" as="geometry">
            <Array as="points">
              <mxPoint x="465" y="1690" />
              <mxPoint x="465" y="1815" />
              <mxPoint x="365" y="1815" />
            </Array>
          </mxGeometry>
        </mxCell>
        <mxCell id="d0o_DoR_JnAfmZgIrLK9-451" value="no" style="edgeLabel;html=1;align=center;verticalAlign=middle;resizable=0;points=[];" vertex="1" connectable="0" parent="d0o_DoR_JnAfmZgIrLK9-421">
          <mxGeometry x="-0.9244" relative="1" as="geometry">
            <mxPoint as="offset" />
          </mxGeometry>
        </mxCell>
        <mxCell id="d0o_DoR_JnAfmZgIrLK9-422" value="判斷電梯內人數是否為0" style="rhombus;whiteSpace=wrap;html=1;shadow=0;fontFamily=Helvetica;fontSize=12;align=center;strokeWidth=1;spacing=6;spacingTop=-4;labelBackgroundColor=none;fillColor=#FAE5C7;strokeColor=#0F8B8D;fontColor=#143642;" vertex="1" parent="WIyWlLk6GJQsqaUBKTNV-1">
          <mxGeometry x="285" y="1625" width="160" height="130" as="geometry" />
        </mxCell>
        <mxCell id="d0o_DoR_JnAfmZgIrLK9-423" style="edgeStyle=orthogonalEdgeStyle;rounded=0;orthogonalLoop=1;jettySize=auto;html=1;entryX=0.5;entryY=0;entryDx=0;entryDy=0;exitX=0.5;exitY=1;exitDx=0;exitDy=0;" edge="1" parent="WIyWlLk6GJQsqaUBKTNV-1" source="d0o_DoR_JnAfmZgIrLK9-424" target="d0o_DoR_JnAfmZgIrLK9-414">
          <mxGeometry relative="1" as="geometry">
            <Array as="points">
              <mxPoint x="225" y="1815" />
              <mxPoint x="365" y="1815" />
            </Array>
          </mxGeometry>
        </mxCell>
        <mxCell id="d0o_DoR_JnAfmZgIrLK9-424" value="將leftElevatorInfo&lt;span style=&quot;background-color: initial;&quot;&gt;參數的basicTarget跟direction設為none&lt;/span&gt;" style="rounded=1;whiteSpace=wrap;html=1;fontSize=12;glass=0;strokeWidth=1;shadow=0;labelBackgroundColor=none;fillColor=#FAE5C7;strokeColor=#0F8B8D;fontColor=#143642;" vertex="1" parent="WIyWlLk6GJQsqaUBKTNV-1">
          <mxGeometry x="150" y="1730" width="150" height="50" as="geometry" />
        </mxCell>
        <mxCell id="d0o_DoR_JnAfmZgIrLK9-425" style="edgeStyle=orthogonalEdgeStyle;rounded=0;orthogonalLoop=1;jettySize=auto;html=1;entryX=0.5;entryY=0;entryDx=0;entryDy=0;exitX=0;exitY=0.5;exitDx=0;exitDy=0;" edge="1" parent="WIyWlLk6GJQsqaUBKTNV-1" source="d0o_DoR_JnAfmZgIrLK9-428" target="d0o_DoR_JnAfmZgIrLK9-430">
          <mxGeometry relative="1" as="geometry" />
        </mxCell>
        <mxCell id="d0o_DoR_JnAfmZgIrLK9-426" value="yes" style="edgeLabel;html=1;align=center;verticalAlign=middle;resizable=0;points=[];" vertex="1" connectable="0" parent="d0o_DoR_JnAfmZgIrLK9-425">
          <mxGeometry x="-0.5597" y="-3" relative="1" as="geometry">
            <mxPoint as="offset" />
          </mxGeometry>
        </mxCell>
        <mxCell id="d0o_DoR_JnAfmZgIrLK9-427" style="edgeStyle=orthogonalEdgeStyle;rounded=0;orthogonalLoop=1;jettySize=auto;html=1;entryX=0.5;entryY=0;entryDx=0;entryDy=0;exitX=1;exitY=0.5;exitDx=0;exitDy=0;" edge="1" parent="WIyWlLk6GJQsqaUBKTNV-1" source="d0o_DoR_JnAfmZgIrLK9-428" target="d0o_DoR_JnAfmZgIrLK9-435">
          <mxGeometry relative="1" as="geometry">
            <Array as="points">
              <mxPoint x="570" y="2195" />
              <mxPoint x="570" y="2565" />
              <mxPoint x="475" y="2565" />
            </Array>
          </mxGeometry>
        </mxCell>
        <mxCell id="d0o_DoR_JnAfmZgIrLK9-458" value="no&lt;br&gt;" style="edgeLabel;html=1;align=center;verticalAlign=middle;resizable=0;points=[];" vertex="1" connectable="0" parent="d0o_DoR_JnAfmZgIrLK9-427">
          <mxGeometry x="-0.9868" y="-1" relative="1" as="geometry">
            <mxPoint x="2" y="-1" as="offset" />
          </mxGeometry>
        </mxCell>
        <mxCell id="d0o_DoR_JnAfmZgIrLK9-428" value="&lt;div style=&quot;&quot;&gt;判斷leftElevatorInfo&lt;/div&gt;&lt;div style=&quot;&quot;&gt;的basicTarget&lt;/div&gt;&lt;div style=&quot;&quot;&gt;是否為none&lt;/div&gt;" style="rhombus;whiteSpace=wrap;html=1;shadow=0;fontFamily=Helvetica;fontSize=12;align=center;strokeWidth=1;spacing=6;spacingTop=-4;labelBackgroundColor=none;fillColor=#FAE5C7;strokeColor=#0F8B8D;fontColor=#143642;" vertex="1" parent="WIyWlLk6GJQsqaUBKTNV-1">
          <mxGeometry x="395" y="2130" width="160" height="130" as="geometry" />
        </mxCell>
        <mxCell id="d0o_DoR_JnAfmZgIrLK9-429" style="edgeStyle=orthogonalEdgeStyle;rounded=0;orthogonalLoop=1;jettySize=auto;html=1;entryX=0.5;entryY=0;entryDx=0;entryDy=0;" edge="1" parent="WIyWlLk6GJQsqaUBKTNV-1" source="d0o_DoR_JnAfmZgIrLK9-430" target="d0o_DoR_JnAfmZgIrLK9-432">
          <mxGeometry relative="1" as="geometry" />
        </mxCell>
        <mxCell id="d0o_DoR_JnAfmZgIrLK9-430" value="用for迴圈來找符合條件的人作為初始設定" style="rounded=1;whiteSpace=wrap;html=1;fontSize=12;glass=0;strokeWidth=1;shadow=0;labelBackgroundColor=none;fillColor=#FAE5C7;strokeColor=#0F8B8D;fontColor=#143642;" vertex="1" parent="WIyWlLk6GJQsqaUBKTNV-1">
          <mxGeometry x="250" y="2295" width="150" height="50" as="geometry" />
        </mxCell>
        <mxCell id="d0o_DoR_JnAfmZgIrLK9-431" style="edgeStyle=orthogonalEdgeStyle;rounded=0;orthogonalLoop=1;jettySize=auto;html=1;entryX=0.5;entryY=0;entryDx=0;entryDy=0;" edge="1" parent="WIyWlLk6GJQsqaUBKTNV-1" source="d0o_DoR_JnAfmZgIrLK9-432" target="d0o_DoR_JnAfmZgIrLK9-435">
          <mxGeometry relative="1" as="geometry">
            <Array as="points">
              <mxPoint x="325" y="2565" />
              <mxPoint x="475" y="2565" />
            </Array>
          </mxGeometry>
        </mxCell>
        <mxCell id="d0o_DoR_JnAfmZgIrLK9-432" value="&lt;div style=&quot;&quot;&gt;按順序找出第一個迴圈中&lt;/div&gt;&lt;div style=&quot;&quot;&gt;peopleInfo[i].status == &quot;offTheElevator&quot;&amp;nbsp;&lt;/div&gt;&lt;div style=&quot;&quot;&gt;&amp;nbsp;peopleInfo[i].elevatorResponse == &quot;none&quot;&lt;/div&gt;&lt;div style=&quot;&quot;&gt;的乘客，再去判斷電梯方向&lt;br&gt;&lt;/div&gt;" style="rhombus;whiteSpace=wrap;html=1;shadow=0;fontFamily=Helvetica;fontSize=12;align=center;strokeWidth=1;spacing=6;spacingTop=-4;labelBackgroundColor=none;fillColor=#FAE5C7;strokeColor=#0F8B8D;fontColor=#143642;" vertex="1" parent="WIyWlLk6GJQsqaUBKTNV-1">
          <mxGeometry x="202.5" y="2375" width="245" height="170" as="geometry" />
        </mxCell>
        <mxCell id="d0o_DoR_JnAfmZgIrLK9-433" style="edgeStyle=orthogonalEdgeStyle;rounded=0;orthogonalLoop=1;jettySize=auto;html=1;entryX=0.5;entryY=0;entryDx=0;entryDy=0;exitX=0;exitY=0.5;exitDx=0;exitDy=0;" edge="1" parent="WIyWlLk6GJQsqaUBKTNV-1" source="d0o_DoR_JnAfmZgIrLK9-435" target="d0o_DoR_JnAfmZgIrLK9-437">
          <mxGeometry relative="1" as="geometry" />
        </mxCell>
        <mxCell id="d0o_DoR_JnAfmZgIrLK9-434" style="edgeStyle=orthogonalEdgeStyle;rounded=0;orthogonalLoop=1;jettySize=auto;html=1;entryX=0.5;entryY=0;entryDx=0;entryDy=0;exitX=1;exitY=0.5;exitDx=0;exitDy=0;" edge="1" parent="WIyWlLk6GJQsqaUBKTNV-1" source="d0o_DoR_JnAfmZgIrLK9-435" target="d0o_DoR_JnAfmZgIrLK9-440">
          <mxGeometry relative="1" as="geometry">
            <Array as="points">
              <mxPoint x="615" y="2685" />
              <mxPoint x="615" y="2895" />
              <mxPoint x="480" y="2895" />
            </Array>
          </mxGeometry>
        </mxCell>
        <mxCell id="d0o_DoR_JnAfmZgIrLK9-435" value="判斷乘客是否還沒搭過電梯&lt;br&gt;PartAPeopleInfo的&lt;br&gt;elevatorResponse是否為Yes，&lt;br&gt;樓層是否與電梯相同、&lt;br&gt;電梯內人數是否少於7人" style="rhombus;whiteSpace=wrap;html=1;shadow=0;fontFamily=Helvetica;fontSize=12;align=center;strokeWidth=1;spacing=6;spacingTop=-4;labelBackgroundColor=none;fillColor=#FAE5C7;strokeColor=#0F8B8D;fontColor=#143642;" vertex="1" parent="WIyWlLk6GJQsqaUBKTNV-1">
          <mxGeometry x="355" y="2605" width="240" height="160" as="geometry" />
        </mxCell>
        <mxCell id="d0o_DoR_JnAfmZgIrLK9-436" style="edgeStyle=orthogonalEdgeStyle;rounded=0;orthogonalLoop=1;jettySize=auto;html=1;entryX=0.5;entryY=0;entryDx=0;entryDy=0;exitX=0.5;exitY=1;exitDx=0;exitDy=0;" edge="1" parent="WIyWlLk6GJQsqaUBKTNV-1" source="d0o_DoR_JnAfmZgIrLK9-437" target="d0o_DoR_JnAfmZgIrLK9-440">
          <mxGeometry relative="1" as="geometry">
            <Array as="points">
              <mxPoint x="305" y="2895" />
              <mxPoint x="480" y="2895" />
            </Array>
          </mxGeometry>
        </mxCell>
        <mxCell id="d0o_DoR_JnAfmZgIrLK9-437" value="讓乘客上車，資料推送至PartAElevatorPassenger" style="rounded=1;whiteSpace=wrap;html=1;fontSize=12;glass=0;strokeWidth=1;shadow=0;labelBackgroundColor=none;fillColor=#FAE5C7;strokeColor=#0F8B8D;fontColor=#143642;" vertex="1" parent="WIyWlLk6GJQsqaUBKTNV-1">
          <mxGeometry x="230" y="2805" width="150" height="50" as="geometry" />
        </mxCell>
        <mxCell id="d0o_DoR_JnAfmZgIrLK9-438" style="edgeStyle=orthogonalEdgeStyle;rounded=0;orthogonalLoop=1;jettySize=auto;html=1;entryX=0.5;entryY=0;entryDx=0;entryDy=0;exitX=1;exitY=0.5;exitDx=0;exitDy=0;" edge="1" parent="WIyWlLk6GJQsqaUBKTNV-1" source="d0o_DoR_JnAfmZgIrLK9-440" target="d0o_DoR_JnAfmZgIrLK9-407">
          <mxGeometry relative="1" as="geometry">
            <mxPoint x="630" y="3435" as="targetPoint" />
          </mxGeometry>
        </mxCell>
        <mxCell id="d0o_DoR_JnAfmZgIrLK9-439" style="edgeStyle=orthogonalEdgeStyle;rounded=0;orthogonalLoop=1;jettySize=auto;html=1;entryX=0.5;entryY=0;entryDx=0;entryDy=0;exitX=0;exitY=0.5;exitDx=0;exitDy=0;" edge="1" parent="WIyWlLk6GJQsqaUBKTNV-1" source="d0o_DoR_JnAfmZgIrLK9-440" target="d0o_DoR_JnAfmZgIrLK9-442">
          <mxGeometry relative="1" as="geometry" />
        </mxCell>
        <mxCell id="d0o_DoR_JnAfmZgIrLK9-440" value="電梯內人數&amp;gt;0" style="rhombus;whiteSpace=wrap;html=1;shadow=0;fontFamily=Helvetica;fontSize=12;align=center;strokeWidth=1;spacing=6;spacingTop=-4;labelBackgroundColor=none;fillColor=#FAE5C7;strokeColor=#0F8B8D;fontColor=#143642;" vertex="1" parent="WIyWlLk6GJQsqaUBKTNV-1">
          <mxGeometry x="390" y="2925" width="180" height="100" as="geometry" />
        </mxCell>
        <mxCell id="d0o_DoR_JnAfmZgIrLK9-441" style="edgeStyle=orthogonalEdgeStyle;rounded=0;orthogonalLoop=1;jettySize=auto;html=1;entryX=0.5;entryY=0;entryDx=0;entryDy=0;exitX=1;exitY=0.5;exitDx=0;exitDy=0;" edge="1" parent="WIyWlLk6GJQsqaUBKTNV-1" source="d0o_DoR_JnAfmZgIrLK9-442" target="d0o_DoR_JnAfmZgIrLK9-446">
          <mxGeometry relative="1" as="geometry" />
        </mxCell>
        <mxCell id="d0o_DoR_JnAfmZgIrLK9-442" value="如果電梯當前樓層&amp;lt;&lt;br&gt;第一位乘客的離開樓層&lt;br&gt;" style="rhombus;whiteSpace=wrap;html=1;shadow=0;fontFamily=Helvetica;fontSize=12;align=center;strokeWidth=1;spacing=6;spacingTop=-4;labelBackgroundColor=none;fillColor=#FAE5C7;strokeColor=#0F8B8D;fontColor=#143642;" vertex="1" parent="WIyWlLk6GJQsqaUBKTNV-1">
          <mxGeometry x="230" y="2995" width="180" height="100" as="geometry" />
        </mxCell>
        <mxCell id="d0o_DoR_JnAfmZgIrLK9-459" style="edgeStyle=orthogonalEdgeStyle;rounded=0;orthogonalLoop=1;jettySize=auto;html=1;entryX=0;entryY=0.5;entryDx=0;entryDy=0;exitX=0.5;exitY=1;exitDx=0;exitDy=0;" edge="1" parent="WIyWlLk6GJQsqaUBKTNV-1" source="d0o_DoR_JnAfmZgIrLK9-444" target="d0o_DoR_JnAfmZgIrLK9-407">
          <mxGeometry relative="1" as="geometry" />
        </mxCell>
        <mxCell id="d0o_DoR_JnAfmZgIrLK9-444" value="電梯方向為up" style="rounded=1;whiteSpace=wrap;html=1;fontSize=12;glass=0;strokeWidth=1;shadow=0;labelBackgroundColor=none;fillColor=#FAE5C7;strokeColor=#0F8B8D;fontColor=#143642;" vertex="1" parent="WIyWlLk6GJQsqaUBKTNV-1">
          <mxGeometry x="120" y="3185" width="150" height="50" as="geometry" />
        </mxCell>
        <mxCell id="d0o_DoR_JnAfmZgIrLK9-460" style="edgeStyle=orthogonalEdgeStyle;rounded=0;orthogonalLoop=1;jettySize=auto;html=1;entryX=0;entryY=0.5;entryDx=0;entryDy=0;" edge="1" parent="WIyWlLk6GJQsqaUBKTNV-1" source="d0o_DoR_JnAfmZgIrLK9-446" target="d0o_DoR_JnAfmZgIrLK9-407">
          <mxGeometry relative="1" as="geometry" />
        </mxCell>
        <mxCell id="d0o_DoR_JnAfmZgIrLK9-446" value="電梯方向為down" style="rounded=1;whiteSpace=wrap;html=1;fontSize=12;glass=0;strokeWidth=1;shadow=0;labelBackgroundColor=none;fillColor=#FAE5C7;strokeColor=#0F8B8D;fontColor=#143642;" vertex="1" parent="WIyWlLk6GJQsqaUBKTNV-1">
          <mxGeometry x="370" y="3185" width="150" height="50" as="geometry" />
        </mxCell>
        <mxCell id="d0o_DoR_JnAfmZgIrLK9-449" style="edgeStyle=orthogonalEdgeStyle;rounded=0;orthogonalLoop=1;jettySize=auto;html=1;entryX=0.46;entryY=-0.064;entryDx=0;entryDy=0;entryPerimeter=0;exitX=0;exitY=0.5;exitDx=0;exitDy=0;" edge="1" parent="WIyWlLk6GJQsqaUBKTNV-1" source="d0o_DoR_JnAfmZgIrLK9-442" target="d0o_DoR_JnAfmZgIrLK9-444">
          <mxGeometry relative="1" as="geometry" />
        </mxCell>
        <mxCell id="d0o_DoR_JnAfmZgIrLK9-461" style="edgeStyle=orthogonalEdgeStyle;rounded=0;orthogonalLoop=1;jettySize=auto;html=1;entryX=0.5;entryY=0;entryDx=0;entryDy=0;" edge="1" parent="WIyWlLk6GJQsqaUBKTNV-1" source="d0o_DoR_JnAfmZgIrLK9-462" target="d0o_DoR_JnAfmZgIrLK9-511">
          <mxGeometry relative="1" as="geometry" />
        </mxCell>
        <mxCell id="d0o_DoR_JnAfmZgIrLK9-462" value="創造一位乘客" style="rounded=1;whiteSpace=wrap;html=1;fontSize=12;glass=0;strokeWidth=1;shadow=0;labelBackgroundColor=none;fillColor=#FAE5C7;strokeColor=#0F8B8D;fontColor=#143642;" vertex="1" parent="WIyWlLk6GJQsqaUBKTNV-1">
          <mxGeometry x="2450" y="685" width="120" height="30" as="geometry" />
        </mxCell>
        <mxCell id="d0o_DoR_JnAfmZgIrLK9-463" style="edgeStyle=orthogonalEdgeStyle;rounded=0;orthogonalLoop=1;jettySize=auto;html=1;entryX=0.5;entryY=0;entryDx=0;entryDy=0;" edge="1" parent="WIyWlLk6GJQsqaUBKTNV-1" source="d0o_DoR_JnAfmZgIrLK9-467" target="d0o_DoR_JnAfmZgIrLK9-462">
          <mxGeometry relative="1" as="geometry">
            <Array as="points">
              <mxPoint x="2510" y="595" />
            </Array>
          </mxGeometry>
        </mxCell>
        <mxCell id="d0o_DoR_JnAfmZgIrLK9-464" value="Yes" style="edgeLabel;html=1;align=center;verticalAlign=middle;resizable=0;points=[];fontSize=11;fontFamily=Helvetica;fontColor=default;" vertex="1" connectable="0" parent="d0o_DoR_JnAfmZgIrLK9-463">
          <mxGeometry x="0.2392" y="2" relative="1" as="geometry">
            <mxPoint as="offset" />
          </mxGeometry>
        </mxCell>
        <mxCell id="d0o_DoR_JnAfmZgIrLK9-465" style="edgeStyle=orthogonalEdgeStyle;rounded=0;orthogonalLoop=1;jettySize=auto;html=1;entryX=0.5;entryY=0;entryDx=0;entryDy=0;" edge="1" parent="WIyWlLk6GJQsqaUBKTNV-1" source="d0o_DoR_JnAfmZgIrLK9-467" target="d0o_DoR_JnAfmZgIrLK9-480">
          <mxGeometry relative="1" as="geometry">
            <Array as="points">
              <mxPoint x="2790" y="595" />
              <mxPoint x="2790" y="935" />
              <mxPoint x="2640" y="935" />
            </Array>
          </mxGeometry>
        </mxCell>
        <mxCell id="d0o_DoR_JnAfmZgIrLK9-466" value="NO" style="edgeLabel;html=1;align=center;verticalAlign=middle;resizable=0;points=[];" vertex="1" connectable="0" parent="d0o_DoR_JnAfmZgIrLK9-465">
          <mxGeometry x="-0.8805" y="2" relative="1" as="geometry">
            <mxPoint as="offset" />
          </mxGeometry>
        </mxCell>
        <mxCell id="d0o_DoR_JnAfmZgIrLK9-467" value="&lt;font style=&quot;font-size: 12px;&quot;&gt;判斷peoplel值是否還大於0&lt;/font&gt;" style="rhombus;whiteSpace=wrap;html=1;shadow=0;fontFamily=Helvetica;fontSize=12;align=center;strokeWidth=1;spacing=6;spacingTop=-4;labelBackgroundColor=none;fillColor=#FAE5C7;strokeColor=#0F8B8D;fontColor=#143642;" vertex="1" parent="WIyWlLk6GJQsqaUBKTNV-1">
          <mxGeometry x="2560" y="530" width="160" height="130" as="geometry" />
        </mxCell>
        <mxCell id="d0o_DoR_JnAfmZgIrLK9-468" style="edgeStyle=orthogonalEdgeStyle;shape=connector;rounded=0;orthogonalLoop=1;jettySize=auto;html=1;labelBackgroundColor=default;strokeColor=default;align=center;verticalAlign=middle;fontFamily=Helvetica;fontSize=11;fontColor=default;endArrow=classic;" edge="1" parent="WIyWlLk6GJQsqaUBKTNV-1" source="d0o_DoR_JnAfmZgIrLK9-469" target="d0o_DoR_JnAfmZgIrLK9-473">
          <mxGeometry relative="1" as="geometry" />
        </mxCell>
        <mxCell id="d0o_DoR_JnAfmZgIrLK9-469" value="繪製總樓層、按鈕、剩餘人數、總花費時間、當前電梯位置" style="rounded=1;whiteSpace=wrap;html=1;fontSize=12;glass=0;strokeWidth=1;shadow=0;labelBackgroundColor=none;fillColor=#FAE5C7;strokeColor=#0F8B8D;fontColor=#143642;" vertex="1" parent="WIyWlLk6GJQsqaUBKTNV-1">
          <mxGeometry x="2580" y="310" width="120" height="50" as="geometry" />
        </mxCell>
        <mxCell id="d0o_DoR_JnAfmZgIrLK9-470" style="edgeStyle=orthogonalEdgeStyle;shape=connector;rounded=0;orthogonalLoop=1;jettySize=auto;html=1;labelBackgroundColor=default;strokeColor=default;align=center;verticalAlign=middle;fontFamily=Helvetica;fontSize=11;fontColor=default;endArrow=classic;" edge="1" parent="WIyWlLk6GJQsqaUBKTNV-1" source="d0o_DoR_JnAfmZgIrLK9-471" target="d0o_DoR_JnAfmZgIrLK9-467">
          <mxGeometry relative="1" as="geometry" />
        </mxCell>
        <mxCell id="d0o_DoR_JnAfmZgIrLK9-471" value="繪製剩餘人數、樓層" style="rounded=1;whiteSpace=wrap;html=1;fontSize=12;glass=0;strokeWidth=1;shadow=0;labelBackgroundColor=none;fillColor=#FAE5C7;strokeColor=#0F8B8D;fontColor=#143642;" vertex="1" parent="WIyWlLk6GJQsqaUBKTNV-1">
          <mxGeometry x="2580" y="460" width="120" height="40" as="geometry" />
        </mxCell>
        <mxCell id="d0o_DoR_JnAfmZgIrLK9-472" style="edgeStyle=orthogonalEdgeStyle;shape=connector;rounded=0;orthogonalLoop=1;jettySize=auto;html=1;entryX=0.5;entryY=0;entryDx=0;entryDy=0;labelBackgroundColor=default;strokeColor=default;align=center;verticalAlign=middle;fontFamily=Helvetica;fontSize=11;fontColor=default;endArrow=classic;" edge="1" parent="WIyWlLk6GJQsqaUBKTNV-1" source="d0o_DoR_JnAfmZgIrLK9-473" target="d0o_DoR_JnAfmZgIrLK9-471">
          <mxGeometry relative="1" as="geometry" />
        </mxCell>
        <mxCell id="d0o_DoR_JnAfmZgIrLK9-473" value="開始每秒draw()一次" style="rounded=1;whiteSpace=wrap;html=1;fontSize=12;glass=0;strokeWidth=1;shadow=0;labelBackgroundColor=none;fillColor=#FAE5C7;strokeColor=#0F8B8D;fontColor=#143642;" vertex="1" parent="WIyWlLk6GJQsqaUBKTNV-1">
          <mxGeometry x="2580" y="380" width="120" height="40" as="geometry" />
        </mxCell>
        <mxCell id="d0o_DoR_JnAfmZgIrLK9-474" style="edgeStyle=orthogonalEdgeStyle;shape=connector;rounded=0;orthogonalLoop=1;jettySize=auto;html=1;entryX=0.5;entryY=0;entryDx=0;entryDy=0;labelBackgroundColor=default;strokeColor=default;align=center;verticalAlign=middle;fontFamily=Helvetica;fontSize=11;fontColor=default;endArrow=classic;" edge="1" parent="WIyWlLk6GJQsqaUBKTNV-1" source="d0o_DoR_JnAfmZgIrLK9-475" target="d0o_DoR_JnAfmZgIrLK9-469">
          <mxGeometry relative="1" as="geometry" />
        </mxCell>
        <mxCell id="d0o_DoR_JnAfmZgIrLK9-475" value="開始" style="ellipse;whiteSpace=wrap;html=1;aspect=fixed;fillColor=#ffe6cc;strokeColor=#d79b00;" vertex="1" parent="WIyWlLk6GJQsqaUBKTNV-1">
          <mxGeometry x="2600" y="190" width="80" height="80" as="geometry" />
        </mxCell>
        <mxCell id="d0o_DoR_JnAfmZgIrLK9-476" style="edgeStyle=orthogonalEdgeStyle;shape=connector;rounded=0;orthogonalLoop=1;jettySize=auto;html=1;labelBackgroundColor=default;strokeColor=default;align=center;verticalAlign=middle;fontFamily=Helvetica;fontSize=11;fontColor=default;endArrow=classic;" edge="1" parent="WIyWlLk6GJQsqaUBKTNV-1" source="d0o_DoR_JnAfmZgIrLK9-480" target="d0o_DoR_JnAfmZgIrLK9-482">
          <mxGeometry relative="1" as="geometry">
            <Array as="points">
              <mxPoint x="2510" y="1202.5" />
            </Array>
          </mxGeometry>
        </mxCell>
        <mxCell id="d0o_DoR_JnAfmZgIrLK9-477" value="&lt;br&gt;上" style="edgeLabel;html=1;align=center;verticalAlign=middle;resizable=0;points=[];fontSize=11;fontFamily=Helvetica;fontColor=default;" vertex="1" connectable="0" parent="d0o_DoR_JnAfmZgIrLK9-476">
          <mxGeometry x="-0.0607" y="-1" relative="1" as="geometry">
            <mxPoint as="offset" />
          </mxGeometry>
        </mxCell>
        <mxCell id="d0o_DoR_JnAfmZgIrLK9-478" style="edgeStyle=orthogonalEdgeStyle;shape=connector;rounded=0;orthogonalLoop=1;jettySize=auto;html=1;entryX=0.5;entryY=0;entryDx=0;entryDy=0;labelBackgroundColor=default;strokeColor=default;align=center;verticalAlign=middle;fontFamily=Helvetica;fontSize=11;fontColor=default;endArrow=classic;" edge="1" parent="WIyWlLk6GJQsqaUBKTNV-1" source="d0o_DoR_JnAfmZgIrLK9-480" target="d0o_DoR_JnAfmZgIrLK9-484">
          <mxGeometry relative="1" as="geometry">
            <Array as="points">
              <mxPoint x="2770" y="1202.5" />
            </Array>
          </mxGeometry>
        </mxCell>
        <mxCell id="d0o_DoR_JnAfmZgIrLK9-479" value="下" style="edgeLabel;html=1;align=center;verticalAlign=middle;resizable=0;points=[];fontSize=11;fontFamily=Helvetica;fontColor=default;" vertex="1" connectable="0" parent="d0o_DoR_JnAfmZgIrLK9-478">
          <mxGeometry x="-0.072" y="1" relative="1" as="geometry">
            <mxPoint as="offset" />
          </mxGeometry>
        </mxCell>
        <mxCell id="d0o_DoR_JnAfmZgIrLK9-480" value="電梯方向為上或是下" style="rhombus;whiteSpace=wrap;html=1;shadow=0;fontFamily=Helvetica;fontSize=12;align=center;strokeWidth=1;spacing=6;spacingTop=-4;labelBackgroundColor=none;fillColor=#FAE5C7;strokeColor=#0F8B8D;fontColor=#143642;" vertex="1" parent="WIyWlLk6GJQsqaUBKTNV-1">
          <mxGeometry x="2560" y="995" width="160" height="130" as="geometry" />
        </mxCell>
        <mxCell id="d0o_DoR_JnAfmZgIrLK9-481" style="edgeStyle=orthogonalEdgeStyle;shape=connector;rounded=0;orthogonalLoop=1;jettySize=auto;html=1;entryX=0.5;entryY=0;entryDx=0;entryDy=0;labelBackgroundColor=default;strokeColor=default;align=center;verticalAlign=middle;fontFamily=Helvetica;fontSize=11;fontColor=default;endArrow=classic;" edge="1" parent="WIyWlLk6GJQsqaUBKTNV-1" source="d0o_DoR_JnAfmZgIrLK9-482" target="d0o_DoR_JnAfmZgIrLK9-486">
          <mxGeometry relative="1" as="geometry">
            <Array as="points">
              <mxPoint x="2510" y="1377.5" />
              <mxPoint x="2640" y="1377.5" />
            </Array>
          </mxGeometry>
        </mxCell>
        <mxCell id="d0o_DoR_JnAfmZgIrLK9-482" value="往上" style="rounded=1;whiteSpace=wrap;html=1;fontSize=12;glass=0;strokeWidth=1;shadow=0;labelBackgroundColor=none;fillColor=#FAE5C7;strokeColor=#0F8B8D;fontColor=#143642;" vertex="1" parent="WIyWlLk6GJQsqaUBKTNV-1">
          <mxGeometry x="2450" y="1327.5" width="120" height="30" as="geometry" />
        </mxCell>
        <mxCell id="d0o_DoR_JnAfmZgIrLK9-483" style="edgeStyle=orthogonalEdgeStyle;shape=connector;rounded=0;orthogonalLoop=1;jettySize=auto;html=1;entryX=0.5;entryY=0;entryDx=0;entryDy=0;labelBackgroundColor=default;strokeColor=default;align=center;verticalAlign=middle;fontFamily=Helvetica;fontSize=11;fontColor=default;endArrow=classic;" edge="1" parent="WIyWlLk6GJQsqaUBKTNV-1" source="d0o_DoR_JnAfmZgIrLK9-484" target="d0o_DoR_JnAfmZgIrLK9-486">
          <mxGeometry relative="1" as="geometry">
            <Array as="points">
              <mxPoint x="2770" y="1377.5" />
              <mxPoint x="2640" y="1377.5" />
            </Array>
          </mxGeometry>
        </mxCell>
        <mxCell id="d0o_DoR_JnAfmZgIrLK9-484" value="往下" style="rounded=1;whiteSpace=wrap;html=1;fontSize=12;glass=0;strokeWidth=1;shadow=0;labelBackgroundColor=none;fillColor=#FAE5C7;strokeColor=#0F8B8D;fontColor=#143642;" vertex="1" parent="WIyWlLk6GJQsqaUBKTNV-1">
          <mxGeometry x="2710" y="1327.5" width="120" height="30" as="geometry" />
        </mxCell>
        <mxCell id="d0o_DoR_JnAfmZgIrLK9-485" style="edgeStyle=orthogonalEdgeStyle;shape=connector;rounded=0;orthogonalLoop=1;jettySize=auto;html=1;entryX=0.5;entryY=0;entryDx=0;entryDy=0;labelBackgroundColor=default;strokeColor=default;align=center;verticalAlign=middle;fontFamily=Helvetica;fontSize=11;fontColor=default;endArrow=classic;" edge="1" parent="WIyWlLk6GJQsqaUBKTNV-1" source="d0o_DoR_JnAfmZgIrLK9-486" target="d0o_DoR_JnAfmZgIrLK9-491">
          <mxGeometry relative="1" as="geometry" />
        </mxCell>
        <mxCell id="d0o_DoR_JnAfmZgIrLK9-486" value="繪製電梯移動後位置" style="rounded=1;whiteSpace=wrap;html=1;fontSize=12;glass=0;strokeWidth=1;shadow=0;labelBackgroundColor=none;fillColor=#FAE5C7;strokeColor=#0F8B8D;fontColor=#143642;" vertex="1" parent="WIyWlLk6GJQsqaUBKTNV-1">
          <mxGeometry x="2580" y="1427.5" width="120" height="30" as="geometry" />
        </mxCell>
        <mxCell id="d0o_DoR_JnAfmZgIrLK9-487" style="edgeStyle=orthogonalEdgeStyle;shape=connector;rounded=0;orthogonalLoop=1;jettySize=auto;html=1;entryX=0.5;entryY=0;entryDx=0;entryDy=0;labelBackgroundColor=default;strokeColor=default;align=center;verticalAlign=middle;fontFamily=Helvetica;fontSize=11;fontColor=default;endArrow=classic;exitX=1;exitY=0.5;exitDx=0;exitDy=0;" edge="1" parent="WIyWlLk6GJQsqaUBKTNV-1" source="d0o_DoR_JnAfmZgIrLK9-491" target="d0o_DoR_JnAfmZgIrLK9-493">
          <mxGeometry relative="1" as="geometry">
            <Array as="points">
              <mxPoint x="2760" y="1563" />
              <mxPoint x="2760" y="1965" />
              <mxPoint x="2625" y="1965" />
            </Array>
          </mxGeometry>
        </mxCell>
        <mxCell id="d0o_DoR_JnAfmZgIrLK9-488" value="NO" style="edgeLabel;html=1;align=center;verticalAlign=middle;resizable=0;points=[];fontSize=11;fontFamily=Helvetica;fontColor=default;" vertex="1" connectable="0" parent="d0o_DoR_JnAfmZgIrLK9-487">
          <mxGeometry x="-0.551" y="1" relative="1" as="geometry">
            <mxPoint as="offset" />
          </mxGeometry>
        </mxCell>
        <mxCell id="d0o_DoR_JnAfmZgIrLK9-489" style="edgeStyle=orthogonalEdgeStyle;shape=connector;rounded=0;orthogonalLoop=1;jettySize=auto;html=1;entryX=0.5;entryY=0;entryDx=0;entryDy=0;labelBackgroundColor=default;strokeColor=default;align=center;verticalAlign=middle;fontFamily=Helvetica;fontSize=11;fontColor=default;endArrow=classic;" edge="1" parent="WIyWlLk6GJQsqaUBKTNV-1" source="d0o_DoR_JnAfmZgIrLK9-491" target="d0o_DoR_JnAfmZgIrLK9-495">
          <mxGeometry relative="1" as="geometry">
            <Array as="points">
              <mxPoint x="2515" y="1562.5" />
            </Array>
          </mxGeometry>
        </mxCell>
        <mxCell id="d0o_DoR_JnAfmZgIrLK9-490" value="YES" style="edgeLabel;html=1;align=center;verticalAlign=middle;resizable=0;points=[];fontSize=11;fontFamily=Helvetica;fontColor=default;" vertex="1" connectable="0" parent="d0o_DoR_JnAfmZgIrLK9-489">
          <mxGeometry x="-0.7677" y="-1" relative="1" as="geometry">
            <mxPoint as="offset" />
          </mxGeometry>
        </mxCell>
        <mxCell id="d0o_DoR_JnAfmZgIrLK9-491" value="for迴圈判斷&lt;br style=&quot;border-color: var(--border-color);&quot;&gt;電梯內乘客的&lt;br style=&quot;border-color: var(--border-color);&quot;&gt;離開樓層有沒有&lt;br style=&quot;border-color: var(--border-color);&quot;&gt;與當前樓層相同" style="rhombus;whiteSpace=wrap;html=1;shadow=0;fontFamily=Helvetica;fontSize=12;align=center;strokeWidth=1;spacing=6;spacingTop=-4;labelBackgroundColor=none;fillColor=#FAE5C7;strokeColor=#0F8B8D;fontColor=#143642;" vertex="1" parent="WIyWlLk6GJQsqaUBKTNV-1">
          <mxGeometry x="2560" y="1497.5" width="160" height="130" as="geometry" />
        </mxCell>
        <mxCell id="d0o_DoR_JnAfmZgIrLK9-492" style="edgeStyle=orthogonalEdgeStyle;rounded=0;orthogonalLoop=1;jettySize=auto;html=1;entryX=0.5;entryY=0;entryDx=0;entryDy=0;" edge="1" parent="WIyWlLk6GJQsqaUBKTNV-1" source="d0o_DoR_JnAfmZgIrLK9-493" target="d0o_DoR_JnAfmZgIrLK9-497">
          <mxGeometry relative="1" as="geometry" />
        </mxCell>
        <mxCell id="d0o_DoR_JnAfmZgIrLK9-493" value="顯是&lt;br&gt;還有哪些按鈕被按下" style="rounded=1;whiteSpace=wrap;html=1;fontSize=12;glass=0;strokeWidth=1;shadow=0;labelBackgroundColor=none;fillColor=#FAE5C7;strokeColor=#0F8B8D;fontColor=#143642;" vertex="1" parent="WIyWlLk6GJQsqaUBKTNV-1">
          <mxGeometry x="2545" y="2065" width="160" height="40" as="geometry" />
        </mxCell>
        <mxCell id="d0o_DoR_JnAfmZgIrLK9-494" style="edgeStyle=orthogonalEdgeStyle;rounded=0;orthogonalLoop=1;jettySize=auto;html=1;entryX=0.5;entryY=0;entryDx=0;entryDy=0;" edge="1" parent="WIyWlLk6GJQsqaUBKTNV-1" source="d0o_DoR_JnAfmZgIrLK9-495" target="d0o_DoR_JnAfmZgIrLK9-516">
          <mxGeometry relative="1" as="geometry" />
        </mxCell>
        <mxCell id="d0o_DoR_JnAfmZgIrLK9-495" value="乘客出電梯&lt;br&gt;numberOfPeopleArrived++" style="rounded=1;whiteSpace=wrap;html=1;fontSize=12;glass=0;strokeWidth=1;shadow=0;labelBackgroundColor=none;fillColor=#FAE5C7;strokeColor=#0F8B8D;fontColor=#143642;" vertex="1" parent="WIyWlLk6GJQsqaUBKTNV-1">
          <mxGeometry x="2440" y="1597.5" width="150" height="50" as="geometry" />
        </mxCell>
        <mxCell id="d0o_DoR_JnAfmZgIrLK9-496" style="edgeStyle=orthogonalEdgeStyle;rounded=0;orthogonalLoop=1;jettySize=auto;html=1;entryX=0.5;entryY=0;entryDx=0;entryDy=0;" edge="1" parent="WIyWlLk6GJQsqaUBKTNV-1" source="d0o_DoR_JnAfmZgIrLK9-497" target="d0o_DoR_JnAfmZgIrLK9-523">
          <mxGeometry relative="1" as="geometry" />
        </mxCell>
        <mxCell id="d0o_DoR_JnAfmZgIrLK9-497" value="繪製還有多少人等電梯畫面" style="rounded=1;whiteSpace=wrap;html=1;fontSize=12;glass=0;strokeWidth=1;shadow=0;labelBackgroundColor=none;fillColor=#FAE5C7;strokeColor=#0F8B8D;fontColor=#143642;" vertex="1" parent="WIyWlLk6GJQsqaUBKTNV-1">
          <mxGeometry x="2550" y="2145" width="150" height="40" as="geometry" />
        </mxCell>
        <mxCell id="d0o_DoR_JnAfmZgIrLK9-498" style="edgeStyle=orthogonalEdgeStyle;rounded=0;orthogonalLoop=1;jettySize=auto;html=1;entryX=0.5;entryY=0;entryDx=0;entryDy=0;" edge="1" parent="WIyWlLk6GJQsqaUBKTNV-1" source="d0o_DoR_JnAfmZgIrLK9-499" target="d0o_DoR_JnAfmZgIrLK9-503">
          <mxGeometry relative="1" as="geometry" />
        </mxCell>
        <mxCell id="d0o_DoR_JnAfmZgIrLK9-499" value="繪製總共經過的時間" style="rounded=1;whiteSpace=wrap;html=1;fontSize=12;glass=0;strokeWidth=1;shadow=0;labelBackgroundColor=none;fillColor=#FAE5C7;strokeColor=#0F8B8D;fontColor=#143642;" vertex="1" parent="WIyWlLk6GJQsqaUBKTNV-1">
          <mxGeometry x="2550" y="3055" width="150" height="50" as="geometry" />
        </mxCell>
        <mxCell id="d0o_DoR_JnAfmZgIrLK9-500" value="" style="edgeStyle=orthogonalEdgeStyle;rounded=0;orthogonalLoop=1;jettySize=auto;html=1;" edge="1" parent="WIyWlLk6GJQsqaUBKTNV-1" source="d0o_DoR_JnAfmZgIrLK9-503" target="d0o_DoR_JnAfmZgIrLK9-504">
          <mxGeometry relative="1" as="geometry" />
        </mxCell>
        <mxCell id="d0o_DoR_JnAfmZgIrLK9-501" value="YES" style="edgeLabel;html=1;align=center;verticalAlign=middle;resizable=0;points=[];" vertex="1" connectable="0" parent="d0o_DoR_JnAfmZgIrLK9-500">
          <mxGeometry x="-0.2156" y="1" relative="1" as="geometry">
            <mxPoint as="offset" />
          </mxGeometry>
        </mxCell>
        <mxCell id="d0o_DoR_JnAfmZgIrLK9-502" style="edgeStyle=orthogonalEdgeStyle;rounded=0;orthogonalLoop=1;jettySize=auto;html=1;entryX=1;entryY=0.5;entryDx=0;entryDy=0;" edge="1" parent="WIyWlLk6GJQsqaUBKTNV-1" source="d0o_DoR_JnAfmZgIrLK9-503" target="d0o_DoR_JnAfmZgIrLK9-471">
          <mxGeometry relative="1" as="geometry">
            <mxPoint x="2820" y="450.111083984375" as="targetPoint" />
            <Array as="points">
              <mxPoint x="2970" y="3225" />
              <mxPoint x="2970" y="480" />
            </Array>
          </mxGeometry>
        </mxCell>
        <mxCell id="d0o_DoR_JnAfmZgIrLK9-503" value="&lt;div style=&quot;&quot;&gt;判斷PartANumberOfPeopleArrived&lt;/div&gt;&lt;div style=&quot;&quot;&gt;是否等於40&lt;/div&gt;" style="rhombus;whiteSpace=wrap;html=1;shadow=0;fontFamily=Helvetica;fontSize=12;align=center;strokeWidth=1;spacing=6;spacingTop=-4;labelBackgroundColor=none;fillColor=#FAE5C7;strokeColor=#0F8B8D;fontColor=#143642;" vertex="1" parent="WIyWlLk6GJQsqaUBKTNV-1">
          <mxGeometry x="2545" y="3160" width="160" height="130" as="geometry" />
        </mxCell>
        <mxCell id="d0o_DoR_JnAfmZgIrLK9-504" value="程式結束" style="whiteSpace=wrap;html=1;fillColor=#FAE5C7;strokeColor=#0F8B8D;fontColor=#143642;shadow=0;strokeWidth=1;spacing=6;spacingTop=-4;labelBackgroundColor=none;" vertex="1" parent="WIyWlLk6GJQsqaUBKTNV-1">
          <mxGeometry x="2315" y="3195" width="120" height="60" as="geometry" />
        </mxCell>
        <mxCell id="d0o_DoR_JnAfmZgIrLK9-505" style="edgeStyle=orthogonalEdgeStyle;rounded=0;orthogonalLoop=1;jettySize=auto;html=1;entryX=0.5;entryY=0;entryDx=0;entryDy=0;exitX=0.487;exitY=1.01;exitDx=0;exitDy=0;exitPerimeter=0;" edge="1" parent="WIyWlLk6GJQsqaUBKTNV-1" source="d0o_DoR_JnAfmZgIrLK9-506" target="d0o_DoR_JnAfmZgIrLK9-493">
          <mxGeometry relative="1" as="geometry">
            <Array as="points">
              <mxPoint x="2513" y="1965" />
              <mxPoint x="2625" y="1965" />
            </Array>
          </mxGeometry>
        </mxCell>
        <mxCell id="d0o_DoR_JnAfmZgIrLK9-506" value="繪製乘客出電梯畫面" style="rounded=1;whiteSpace=wrap;html=1;fontSize=12;glass=0;strokeWidth=1;shadow=0;labelBackgroundColor=none;fillColor=#FAE5C7;strokeColor=#0F8B8D;fontColor=#143642;" vertex="1" parent="WIyWlLk6GJQsqaUBKTNV-1">
          <mxGeometry x="2440" y="1930" width="150" height="30" as="geometry" />
        </mxCell>
        <mxCell id="d0o_DoR_JnAfmZgIrLK9-507" style="edgeStyle=orthogonalEdgeStyle;rounded=0;orthogonalLoop=1;jettySize=auto;html=1;entryX=0.5;entryY=0;entryDx=0;entryDy=0;" edge="1" parent="WIyWlLk6GJQsqaUBKTNV-1" source="d0o_DoR_JnAfmZgIrLK9-511" target="d0o_DoR_JnAfmZgIrLK9-511">
          <mxGeometry relative="1" as="geometry">
            <mxPoint x="2420" y="755" as="targetPoint" />
            <Array as="points">
              <mxPoint x="2390" y="820" />
              <mxPoint x="2390" y="755" />
            </Array>
          </mxGeometry>
        </mxCell>
        <mxCell id="d0o_DoR_JnAfmZgIrLK9-508" value="YES" style="edgeLabel;html=1;align=center;verticalAlign=middle;resizable=0;points=[];" vertex="1" connectable="0" parent="d0o_DoR_JnAfmZgIrLK9-507">
          <mxGeometry x="-0.4034" y="3" relative="1" as="geometry">
            <mxPoint as="offset" />
          </mxGeometry>
        </mxCell>
        <mxCell id="d0o_DoR_JnAfmZgIrLK9-509" style="edgeStyle=orthogonalEdgeStyle;rounded=0;orthogonalLoop=1;jettySize=auto;html=1;entryX=0.5;entryY=0;entryDx=0;entryDy=0;" edge="1" parent="WIyWlLk6GJQsqaUBKTNV-1" source="d0o_DoR_JnAfmZgIrLK9-511" target="d0o_DoR_JnAfmZgIrLK9-480">
          <mxGeometry relative="1" as="geometry">
            <Array as="points">
              <mxPoint x="2510" y="935" />
              <mxPoint x="2640" y="935" />
            </Array>
          </mxGeometry>
        </mxCell>
        <mxCell id="d0o_DoR_JnAfmZgIrLK9-510" value="NO" style="edgeLabel;html=1;align=center;verticalAlign=middle;resizable=0;points=[];" vertex="1" connectable="0" parent="d0o_DoR_JnAfmZgIrLK9-509">
          <mxGeometry x="-0.0975" relative="1" as="geometry">
            <mxPoint as="offset" />
          </mxGeometry>
        </mxCell>
        <mxCell id="d0o_DoR_JnAfmZgIrLK9-511" value="&lt;blockquote style=&quot;margin: 0 0 0 40px; border: none; padding: 0px;&quot;&gt;&lt;/blockquote&gt;&lt;span style=&quot;background-color: initial;&quot;&gt;判斷隨機出來的&lt;/span&gt;&lt;br&gt;&lt;span style=&quot;background-color: initial;&quot;&gt;進入樓層、&lt;/span&gt;&lt;br&gt;&lt;span style=&quot;background-color: initial;&quot;&gt;離開樓層是否重覆&lt;/span&gt;&lt;br&gt;&lt;blockquote style=&quot;margin: 0 0 0 40px; border: none; padding: 0px;&quot;&gt;&lt;/blockquote&gt;" style="rhombus;whiteSpace=wrap;html=1;shadow=0;fontFamily=Helvetica;fontSize=12;align=center;strokeWidth=1;spacing=6;spacingTop=-4;labelBackgroundColor=none;fillColor=#FAE5C7;strokeColor=#0F8B8D;fontColor=#143642;" vertex="1" parent="WIyWlLk6GJQsqaUBKTNV-1">
          <mxGeometry x="2430" y="755" width="160" height="130" as="geometry" />
        </mxCell>
        <mxCell id="d0o_DoR_JnAfmZgIrLK9-512" style="edgeStyle=orthogonalEdgeStyle;rounded=0;orthogonalLoop=1;jettySize=auto;html=1;entryX=0.5;entryY=0;entryDx=0;entryDy=0;exitX=0;exitY=0.5;exitDx=0;exitDy=0;" edge="1" parent="WIyWlLk6GJQsqaUBKTNV-1" source="d0o_DoR_JnAfmZgIrLK9-516" target="d0o_DoR_JnAfmZgIrLK9-518">
          <mxGeometry relative="1" as="geometry" />
        </mxCell>
        <mxCell id="d0o_DoR_JnAfmZgIrLK9-513" value="tes" style="edgeLabel;html=1;align=center;verticalAlign=middle;resizable=0;points=[];" vertex="1" connectable="0" parent="d0o_DoR_JnAfmZgIrLK9-512">
          <mxGeometry x="-0.3223" y="-3" relative="1" as="geometry">
            <mxPoint as="offset" />
          </mxGeometry>
        </mxCell>
        <mxCell id="d0o_DoR_JnAfmZgIrLK9-514" style="edgeStyle=orthogonalEdgeStyle;rounded=0;orthogonalLoop=1;jettySize=auto;html=1;entryX=0.5;entryY=0;entryDx=0;entryDy=0;exitX=1;exitY=0.5;exitDx=0;exitDy=0;" edge="1" parent="WIyWlLk6GJQsqaUBKTNV-1" source="d0o_DoR_JnAfmZgIrLK9-516" target="d0o_DoR_JnAfmZgIrLK9-506">
          <mxGeometry relative="1" as="geometry">
            <Array as="points">
              <mxPoint x="2615" y="1770" />
              <mxPoint x="2615" y="1895" />
              <mxPoint x="2515" y="1895" />
            </Array>
          </mxGeometry>
        </mxCell>
        <mxCell id="d0o_DoR_JnAfmZgIrLK9-515" value="no" style="edgeLabel;html=1;align=center;verticalAlign=middle;resizable=0;points=[];" vertex="1" connectable="0" parent="d0o_DoR_JnAfmZgIrLK9-514">
          <mxGeometry x="-0.917" y="-1" relative="1" as="geometry">
            <mxPoint as="offset" />
          </mxGeometry>
        </mxCell>
        <mxCell id="d0o_DoR_JnAfmZgIrLK9-516" value="判斷電梯內人數是否為0" style="rhombus;whiteSpace=wrap;html=1;shadow=0;fontFamily=Helvetica;fontSize=12;align=center;strokeWidth=1;spacing=6;spacingTop=-4;labelBackgroundColor=none;fillColor=#FAE5C7;strokeColor=#0F8B8D;fontColor=#143642;" vertex="1" parent="WIyWlLk6GJQsqaUBKTNV-1">
          <mxGeometry x="2435" y="1705" width="160" height="130" as="geometry" />
        </mxCell>
        <mxCell id="d0o_DoR_JnAfmZgIrLK9-517" style="edgeStyle=orthogonalEdgeStyle;rounded=0;orthogonalLoop=1;jettySize=auto;html=1;entryX=0.5;entryY=0;entryDx=0;entryDy=0;exitX=0.5;exitY=1;exitDx=0;exitDy=0;" edge="1" parent="WIyWlLk6GJQsqaUBKTNV-1" source="d0o_DoR_JnAfmZgIrLK9-518" target="d0o_DoR_JnAfmZgIrLK9-506">
          <mxGeometry relative="1" as="geometry">
            <Array as="points">
              <mxPoint x="2375" y="1895" />
              <mxPoint x="2515" y="1895" />
            </Array>
          </mxGeometry>
        </mxCell>
        <mxCell id="d0o_DoR_JnAfmZgIrLK9-518" value="將leftElevatorInfo&lt;span style=&quot;background-color: initial;&quot;&gt;參數的basicTarget跟direction設為none&lt;/span&gt;" style="rounded=1;whiteSpace=wrap;html=1;fontSize=12;glass=0;strokeWidth=1;shadow=0;labelBackgroundColor=none;fillColor=#FAE5C7;strokeColor=#0F8B8D;fontColor=#143642;" vertex="1" parent="WIyWlLk6GJQsqaUBKTNV-1">
          <mxGeometry x="2300" y="1810" width="150" height="50" as="geometry" />
        </mxCell>
        <mxCell id="d0o_DoR_JnAfmZgIrLK9-519" style="edgeStyle=orthogonalEdgeStyle;rounded=0;orthogonalLoop=1;jettySize=auto;html=1;entryX=0.5;entryY=0;entryDx=0;entryDy=0;exitX=0;exitY=0.5;exitDx=0;exitDy=0;" edge="1" parent="WIyWlLk6GJQsqaUBKTNV-1" source="d0o_DoR_JnAfmZgIrLK9-523" target="d0o_DoR_JnAfmZgIrLK9-525">
          <mxGeometry relative="1" as="geometry" />
        </mxCell>
        <mxCell id="d0o_DoR_JnAfmZgIrLK9-520" value="yes" style="edgeLabel;html=1;align=center;verticalAlign=middle;resizable=0;points=[];" vertex="1" connectable="0" parent="d0o_DoR_JnAfmZgIrLK9-519">
          <mxGeometry x="-0.5597" y="-3" relative="1" as="geometry">
            <mxPoint as="offset" />
          </mxGeometry>
        </mxCell>
        <mxCell id="d0o_DoR_JnAfmZgIrLK9-547" style="edgeStyle=orthogonalEdgeStyle;rounded=0;orthogonalLoop=1;jettySize=auto;html=1;entryX=0.5;entryY=0;entryDx=0;entryDy=0;exitX=1;exitY=0.5;exitDx=0;exitDy=0;" edge="1" parent="WIyWlLk6GJQsqaUBKTNV-1" source="d0o_DoR_JnAfmZgIrLK9-523" target="d0o_DoR_JnAfmZgIrLK9-545">
          <mxGeometry relative="1" as="geometry" />
        </mxCell>
        <mxCell id="d0o_DoR_JnAfmZgIrLK9-548" value="no&lt;br&gt;" style="edgeLabel;html=1;align=center;verticalAlign=middle;resizable=0;points=[];" vertex="1" connectable="0" parent="d0o_DoR_JnAfmZgIrLK9-547">
          <mxGeometry x="-0.694" relative="1" as="geometry">
            <mxPoint as="offset" />
          </mxGeometry>
        </mxCell>
        <mxCell id="d0o_DoR_JnAfmZgIrLK9-523" value="&lt;div style=&quot;&quot;&gt;&lt;div style=&quot;border-color: var(--border-color);&quot;&gt;判斷leftElevatorInfo&lt;/div&gt;&lt;div style=&quot;border-color: var(--border-color);&quot;&gt;的currentFloor是否為0&lt;/div&gt;&lt;div style=&quot;border-color: var(--border-color);&quot;&gt;&lt;br&gt;&lt;/div&gt;&lt;/div&gt;" style="rhombus;whiteSpace=wrap;html=1;shadow=0;fontFamily=Helvetica;fontSize=12;align=center;strokeWidth=1;spacing=6;spacingTop=-4;labelBackgroundColor=none;fillColor=#FAE5C7;strokeColor=#0F8B8D;fontColor=#143642;" vertex="1" parent="WIyWlLk6GJQsqaUBKTNV-1">
          <mxGeometry x="2545" y="2205" width="160" height="130" as="geometry" />
        </mxCell>
        <mxCell id="d0o_DoR_JnAfmZgIrLK9-524" style="edgeStyle=orthogonalEdgeStyle;rounded=0;orthogonalLoop=1;jettySize=auto;html=1;entryX=0.5;entryY=0;entryDx=0;entryDy=0;" edge="1" parent="WIyWlLk6GJQsqaUBKTNV-1" source="d0o_DoR_JnAfmZgIrLK9-525" target="d0o_DoR_JnAfmZgIrLK9-530">
          <mxGeometry relative="1" as="geometry">
            <mxPoint x="2475" y="2455" as="targetPoint" />
            <Array as="points">
              <mxPoint x="2475" y="2685" />
            </Array>
          </mxGeometry>
        </mxCell>
        <mxCell id="d0o_DoR_JnAfmZgIrLK9-525" value="電梯方向為up" style="rounded=1;whiteSpace=wrap;html=1;fontSize=12;glass=0;strokeWidth=1;shadow=0;labelBackgroundColor=none;fillColor=#FAE5C7;strokeColor=#0F8B8D;fontColor=#143642;" vertex="1" parent="WIyWlLk6GJQsqaUBKTNV-1">
          <mxGeometry x="2400" y="2375" width="150" height="50" as="geometry" />
        </mxCell>
        <mxCell id="d0o_DoR_JnAfmZgIrLK9-528" style="edgeStyle=orthogonalEdgeStyle;rounded=0;orthogonalLoop=1;jettySize=auto;html=1;entryX=0.5;entryY=0;entryDx=0;entryDy=0;exitX=0;exitY=0.5;exitDx=0;exitDy=0;" edge="1" parent="WIyWlLk6GJQsqaUBKTNV-1" source="d0o_DoR_JnAfmZgIrLK9-530" target="d0o_DoR_JnAfmZgIrLK9-532">
          <mxGeometry relative="1" as="geometry" />
        </mxCell>
        <mxCell id="d0o_DoR_JnAfmZgIrLK9-557" style="edgeStyle=orthogonalEdgeStyle;rounded=0;orthogonalLoop=1;jettySize=auto;html=1;entryX=0.5;entryY=0;entryDx=0;entryDy=0;exitX=1;exitY=0.5;exitDx=0;exitDy=0;" edge="1" parent="WIyWlLk6GJQsqaUBKTNV-1" source="d0o_DoR_JnAfmZgIrLK9-530" target="d0o_DoR_JnAfmZgIrLK9-499">
          <mxGeometry relative="1" as="geometry">
            <Array as="points">
              <mxPoint x="2765" y="2765" />
              <mxPoint x="2765" y="3030" />
              <mxPoint x="2625" y="3030" />
            </Array>
          </mxGeometry>
        </mxCell>
        <mxCell id="d0o_DoR_JnAfmZgIrLK9-530" value="判斷乘客是否還沒搭過電梯、&lt;br&gt;樓層是否與電梯相同、&lt;br&gt;電梯內人數是否少於7人" style="rhombus;whiteSpace=wrap;html=1;shadow=0;fontFamily=Helvetica;fontSize=12;align=center;strokeWidth=1;spacing=6;spacingTop=-4;labelBackgroundColor=none;fillColor=#FAE5C7;strokeColor=#0F8B8D;fontColor=#143642;" vertex="1" parent="WIyWlLk6GJQsqaUBKTNV-1">
          <mxGeometry x="2505" y="2685" width="240" height="160" as="geometry" />
        </mxCell>
        <mxCell id="d0o_DoR_JnAfmZgIrLK9-556" style="edgeStyle=orthogonalEdgeStyle;rounded=0;orthogonalLoop=1;jettySize=auto;html=1;entryX=0.5;entryY=0;entryDx=0;entryDy=0;exitX=0.5;exitY=1;exitDx=0;exitDy=0;" edge="1" parent="WIyWlLk6GJQsqaUBKTNV-1" source="d0o_DoR_JnAfmZgIrLK9-532" target="d0o_DoR_JnAfmZgIrLK9-499">
          <mxGeometry relative="1" as="geometry">
            <Array as="points">
              <mxPoint x="2455" y="3030" />
              <mxPoint x="2625" y="3030" />
            </Array>
          </mxGeometry>
        </mxCell>
        <mxCell id="d0o_DoR_JnAfmZgIrLK9-532" value="讓乘客上車，資料推送至PartCElevatorPassenger" style="rounded=1;whiteSpace=wrap;html=1;fontSize=12;glass=0;strokeWidth=1;shadow=0;labelBackgroundColor=none;fillColor=#FAE5C7;strokeColor=#0F8B8D;fontColor=#143642;" vertex="1" parent="WIyWlLk6GJQsqaUBKTNV-1">
          <mxGeometry x="2380" y="2885" width="150" height="50" as="geometry" />
        </mxCell>
        <mxCell id="d0o_DoR_JnAfmZgIrLK9-550" style="edgeStyle=orthogonalEdgeStyle;rounded=0;orthogonalLoop=1;jettySize=auto;html=1;entryX=0.5;entryY=0;entryDx=0;entryDy=0;exitX=0;exitY=0.5;exitDx=0;exitDy=0;" edge="1" parent="WIyWlLk6GJQsqaUBKTNV-1" source="d0o_DoR_JnAfmZgIrLK9-545" target="d0o_DoR_JnAfmZgIrLK9-546">
          <mxGeometry relative="1" as="geometry" />
        </mxCell>
        <mxCell id="d0o_DoR_JnAfmZgIrLK9-553" value="yes" style="edgeLabel;html=1;align=center;verticalAlign=middle;resizable=0;points=[];" vertex="1" connectable="0" parent="d0o_DoR_JnAfmZgIrLK9-550">
          <mxGeometry x="-0.8509" relative="1" as="geometry">
            <mxPoint as="offset" />
          </mxGeometry>
        </mxCell>
        <mxCell id="d0o_DoR_JnAfmZgIrLK9-551" style="edgeStyle=orthogonalEdgeStyle;rounded=0;orthogonalLoop=1;jettySize=auto;html=1;entryX=0.5;entryY=0;entryDx=0;entryDy=0;exitX=1;exitY=0.5;exitDx=0;exitDy=0;" edge="1" parent="WIyWlLk6GJQsqaUBKTNV-1" source="d0o_DoR_JnAfmZgIrLK9-545" target="d0o_DoR_JnAfmZgIrLK9-530">
          <mxGeometry relative="1" as="geometry">
            <Array as="points">
              <mxPoint x="2830" y="2400" />
              <mxPoint x="2830" y="2685" />
            </Array>
          </mxGeometry>
        </mxCell>
        <mxCell id="d0o_DoR_JnAfmZgIrLK9-555" value="no" style="edgeLabel;html=1;align=center;verticalAlign=middle;resizable=0;points=[];" vertex="1" connectable="0" parent="d0o_DoR_JnAfmZgIrLK9-551">
          <mxGeometry x="-0.9589" y="1" relative="1" as="geometry">
            <mxPoint as="offset" />
          </mxGeometry>
        </mxCell>
        <mxCell id="d0o_DoR_JnAfmZgIrLK9-545" value="&lt;div style=&quot;&quot;&gt;&lt;div style=&quot;border-color: var(--border-color);&quot;&gt;判斷leftElevatorInfo&lt;/div&gt;&lt;div style=&quot;border-color: var(--border-color);&quot;&gt;的currentFloor是否為9&lt;/div&gt;&lt;/div&gt;" style="rhombus;whiteSpace=wrap;html=1;shadow=0;fontFamily=Helvetica;fontSize=12;align=center;strokeWidth=1;spacing=6;spacingTop=-4;labelBackgroundColor=none;fillColor=#FAE5C7;strokeColor=#0F8B8D;fontColor=#143642;" vertex="1" parent="WIyWlLk6GJQsqaUBKTNV-1">
          <mxGeometry x="2650" y="2335" width="160" height="130" as="geometry" />
        </mxCell>
        <mxCell id="d0o_DoR_JnAfmZgIrLK9-552" style="edgeStyle=orthogonalEdgeStyle;rounded=0;orthogonalLoop=1;jettySize=auto;html=1;" edge="1" parent="WIyWlLk6GJQsqaUBKTNV-1" source="d0o_DoR_JnAfmZgIrLK9-546" target="d0o_DoR_JnAfmZgIrLK9-530">
          <mxGeometry relative="1" as="geometry" />
        </mxCell>
        <mxCell id="d0o_DoR_JnAfmZgIrLK9-546" value="電梯方向為down" style="rounded=1;whiteSpace=wrap;html=1;fontSize=12;glass=0;strokeWidth=1;shadow=0;labelBackgroundColor=none;fillColor=#FAE5C7;strokeColor=#0F8B8D;fontColor=#143642;" vertex="1" parent="WIyWlLk6GJQsqaUBKTNV-1">
          <mxGeometry x="2550" y="2495" width="150" height="50" as="geometry" />
        </mxCell>
        <mxCell id="d0o_DoR_JnAfmZgIrLK9-558" style="edgeStyle=orthogonalEdgeStyle;rounded=0;orthogonalLoop=1;jettySize=auto;html=1;entryX=0.5;entryY=0;entryDx=0;entryDy=0;" edge="1" parent="WIyWlLk6GJQsqaUBKTNV-1" source="d0o_DoR_JnAfmZgIrLK9-559" target="d0o_DoR_JnAfmZgIrLK9-608">
          <mxGeometry relative="1" as="geometry" />
        </mxCell>
        <mxCell id="d0o_DoR_JnAfmZgIrLK9-559" value="創造一位乘客" style="rounded=1;whiteSpace=wrap;html=1;fontSize=12;glass=0;strokeWidth=1;shadow=0;labelBackgroundColor=none;fillColor=#FAE5C7;strokeColor=#0F8B8D;fontColor=#143642;" vertex="1" parent="WIyWlLk6GJQsqaUBKTNV-1">
          <mxGeometry x="1400" y="615" width="120" height="30" as="geometry" />
        </mxCell>
        <mxCell id="d0o_DoR_JnAfmZgIrLK9-560" style="edgeStyle=orthogonalEdgeStyle;rounded=0;orthogonalLoop=1;jettySize=auto;html=1;entryX=0.5;entryY=0;entryDx=0;entryDy=0;" edge="1" parent="WIyWlLk6GJQsqaUBKTNV-1" source="d0o_DoR_JnAfmZgIrLK9-564" target="d0o_DoR_JnAfmZgIrLK9-559">
          <mxGeometry relative="1" as="geometry">
            <Array as="points">
              <mxPoint x="1460" y="525" />
            </Array>
          </mxGeometry>
        </mxCell>
        <mxCell id="d0o_DoR_JnAfmZgIrLK9-561" value="Yes" style="edgeLabel;html=1;align=center;verticalAlign=middle;resizable=0;points=[];fontSize=11;fontFamily=Helvetica;fontColor=default;" vertex="1" connectable="0" parent="d0o_DoR_JnAfmZgIrLK9-560">
          <mxGeometry x="0.2392" y="2" relative="1" as="geometry">
            <mxPoint as="offset" />
          </mxGeometry>
        </mxCell>
        <mxCell id="d0o_DoR_JnAfmZgIrLK9-562" style="edgeStyle=orthogonalEdgeStyle;rounded=0;orthogonalLoop=1;jettySize=auto;html=1;entryX=0.5;entryY=0;entryDx=0;entryDy=0;" edge="1" parent="WIyWlLk6GJQsqaUBKTNV-1" source="d0o_DoR_JnAfmZgIrLK9-564" target="d0o_DoR_JnAfmZgIrLK9-577">
          <mxGeometry relative="1" as="geometry">
            <Array as="points">
              <mxPoint x="1740" y="525" />
              <mxPoint x="1740" y="865" />
              <mxPoint x="1590" y="865" />
            </Array>
          </mxGeometry>
        </mxCell>
        <mxCell id="d0o_DoR_JnAfmZgIrLK9-563" value="NO" style="edgeLabel;html=1;align=center;verticalAlign=middle;resizable=0;points=[];" vertex="1" connectable="0" parent="d0o_DoR_JnAfmZgIrLK9-562">
          <mxGeometry x="-0.8805" y="2" relative="1" as="geometry">
            <mxPoint as="offset" />
          </mxGeometry>
        </mxCell>
        <mxCell id="d0o_DoR_JnAfmZgIrLK9-564" value="&lt;font style=&quot;font-size: 12px;&quot;&gt;判斷peoplel值是否還大於0&lt;/font&gt;" style="rhombus;whiteSpace=wrap;html=1;shadow=0;fontFamily=Helvetica;fontSize=12;align=center;strokeWidth=1;spacing=6;spacingTop=-4;labelBackgroundColor=none;fillColor=#FAE5C7;strokeColor=#0F8B8D;fontColor=#143642;" vertex="1" parent="WIyWlLk6GJQsqaUBKTNV-1">
          <mxGeometry x="1510" y="460" width="160" height="130" as="geometry" />
        </mxCell>
        <mxCell id="d0o_DoR_JnAfmZgIrLK9-565" style="edgeStyle=orthogonalEdgeStyle;shape=connector;rounded=0;orthogonalLoop=1;jettySize=auto;html=1;labelBackgroundColor=default;strokeColor=default;align=center;verticalAlign=middle;fontFamily=Helvetica;fontSize=11;fontColor=default;endArrow=classic;" edge="1" parent="WIyWlLk6GJQsqaUBKTNV-1" source="d0o_DoR_JnAfmZgIrLK9-566" target="d0o_DoR_JnAfmZgIrLK9-570">
          <mxGeometry relative="1" as="geometry" />
        </mxCell>
        <mxCell id="d0o_DoR_JnAfmZgIrLK9-566" value="繪製總樓層、按鈕、剩餘人數、總花費時間、當前電梯位置" style="rounded=1;whiteSpace=wrap;html=1;fontSize=12;glass=0;strokeWidth=1;shadow=0;labelBackgroundColor=none;fillColor=#FAE5C7;strokeColor=#0F8B8D;fontColor=#143642;" vertex="1" parent="WIyWlLk6GJQsqaUBKTNV-1">
          <mxGeometry x="1530" y="240" width="120" height="50" as="geometry" />
        </mxCell>
        <mxCell id="d0o_DoR_JnAfmZgIrLK9-567" style="edgeStyle=orthogonalEdgeStyle;shape=connector;rounded=0;orthogonalLoop=1;jettySize=auto;html=1;labelBackgroundColor=default;strokeColor=default;align=center;verticalAlign=middle;fontFamily=Helvetica;fontSize=11;fontColor=default;endArrow=classic;" edge="1" parent="WIyWlLk6GJQsqaUBKTNV-1" source="d0o_DoR_JnAfmZgIrLK9-568" target="d0o_DoR_JnAfmZgIrLK9-564">
          <mxGeometry relative="1" as="geometry" />
        </mxCell>
        <mxCell id="d0o_DoR_JnAfmZgIrLK9-568" value="繪製剩餘人數、樓層" style="rounded=1;whiteSpace=wrap;html=1;fontSize=12;glass=0;strokeWidth=1;shadow=0;labelBackgroundColor=none;fillColor=#FAE5C7;strokeColor=#0F8B8D;fontColor=#143642;" vertex="1" parent="WIyWlLk6GJQsqaUBKTNV-1">
          <mxGeometry x="1530" y="390" width="120" height="40" as="geometry" />
        </mxCell>
        <mxCell id="d0o_DoR_JnAfmZgIrLK9-569" style="edgeStyle=orthogonalEdgeStyle;shape=connector;rounded=0;orthogonalLoop=1;jettySize=auto;html=1;entryX=0.5;entryY=0;entryDx=0;entryDy=0;labelBackgroundColor=default;strokeColor=default;align=center;verticalAlign=middle;fontFamily=Helvetica;fontSize=11;fontColor=default;endArrow=classic;" edge="1" parent="WIyWlLk6GJQsqaUBKTNV-1" source="d0o_DoR_JnAfmZgIrLK9-570" target="d0o_DoR_JnAfmZgIrLK9-568">
          <mxGeometry relative="1" as="geometry" />
        </mxCell>
        <mxCell id="d0o_DoR_JnAfmZgIrLK9-570" value="開始每秒draw()一次" style="rounded=1;whiteSpace=wrap;html=1;fontSize=12;glass=0;strokeWidth=1;shadow=0;labelBackgroundColor=none;fillColor=#FAE5C7;strokeColor=#0F8B8D;fontColor=#143642;" vertex="1" parent="WIyWlLk6GJQsqaUBKTNV-1">
          <mxGeometry x="1530" y="310" width="120" height="40" as="geometry" />
        </mxCell>
        <mxCell id="d0o_DoR_JnAfmZgIrLK9-571" style="edgeStyle=orthogonalEdgeStyle;shape=connector;rounded=0;orthogonalLoop=1;jettySize=auto;html=1;entryX=0.5;entryY=0;entryDx=0;entryDy=0;labelBackgroundColor=default;strokeColor=default;align=center;verticalAlign=middle;fontFamily=Helvetica;fontSize=11;fontColor=default;endArrow=classic;" edge="1" parent="WIyWlLk6GJQsqaUBKTNV-1" source="d0o_DoR_JnAfmZgIrLK9-572" target="d0o_DoR_JnAfmZgIrLK9-566">
          <mxGeometry relative="1" as="geometry" />
        </mxCell>
        <mxCell id="d0o_DoR_JnAfmZgIrLK9-572" value="開始" style="ellipse;whiteSpace=wrap;html=1;aspect=fixed;fillColor=#ffe6cc;strokeColor=#d79b00;" vertex="1" parent="WIyWlLk6GJQsqaUBKTNV-1">
          <mxGeometry x="1550" y="120" width="80" height="80" as="geometry" />
        </mxCell>
        <mxCell id="d0o_DoR_JnAfmZgIrLK9-573" style="edgeStyle=orthogonalEdgeStyle;shape=connector;rounded=0;orthogonalLoop=1;jettySize=auto;html=1;labelBackgroundColor=default;strokeColor=default;align=center;verticalAlign=middle;fontFamily=Helvetica;fontSize=11;fontColor=default;endArrow=classic;" edge="1" parent="WIyWlLk6GJQsqaUBKTNV-1" source="d0o_DoR_JnAfmZgIrLK9-577" target="d0o_DoR_JnAfmZgIrLK9-579">
          <mxGeometry relative="1" as="geometry">
            <Array as="points">
              <mxPoint x="1460" y="1132.5" />
            </Array>
          </mxGeometry>
        </mxCell>
        <mxCell id="d0o_DoR_JnAfmZgIrLK9-574" value="&lt;br&gt;上" style="edgeLabel;html=1;align=center;verticalAlign=middle;resizable=0;points=[];fontSize=11;fontFamily=Helvetica;fontColor=default;" vertex="1" connectable="0" parent="d0o_DoR_JnAfmZgIrLK9-573">
          <mxGeometry x="-0.0607" y="-1" relative="1" as="geometry">
            <mxPoint as="offset" />
          </mxGeometry>
        </mxCell>
        <mxCell id="d0o_DoR_JnAfmZgIrLK9-575" style="edgeStyle=orthogonalEdgeStyle;shape=connector;rounded=0;orthogonalLoop=1;jettySize=auto;html=1;entryX=0.5;entryY=0;entryDx=0;entryDy=0;labelBackgroundColor=default;strokeColor=default;align=center;verticalAlign=middle;fontFamily=Helvetica;fontSize=11;fontColor=default;endArrow=classic;" edge="1" parent="WIyWlLk6GJQsqaUBKTNV-1" source="d0o_DoR_JnAfmZgIrLK9-577" target="d0o_DoR_JnAfmZgIrLK9-581">
          <mxGeometry relative="1" as="geometry">
            <Array as="points">
              <mxPoint x="1720" y="1132.5" />
            </Array>
          </mxGeometry>
        </mxCell>
        <mxCell id="d0o_DoR_JnAfmZgIrLK9-576" value="下" style="edgeLabel;html=1;align=center;verticalAlign=middle;resizable=0;points=[];fontSize=11;fontFamily=Helvetica;fontColor=default;" vertex="1" connectable="0" parent="d0o_DoR_JnAfmZgIrLK9-575">
          <mxGeometry x="-0.072" y="1" relative="1" as="geometry">
            <mxPoint as="offset" />
          </mxGeometry>
        </mxCell>
        <mxCell id="d0o_DoR_JnAfmZgIrLK9-577" value="電梯方向為上或是下" style="rhombus;whiteSpace=wrap;html=1;shadow=0;fontFamily=Helvetica;fontSize=12;align=center;strokeWidth=1;spacing=6;spacingTop=-4;labelBackgroundColor=none;fillColor=#FAE5C7;strokeColor=#0F8B8D;fontColor=#143642;" vertex="1" parent="WIyWlLk6GJQsqaUBKTNV-1">
          <mxGeometry x="1510" y="925" width="160" height="130" as="geometry" />
        </mxCell>
        <mxCell id="d0o_DoR_JnAfmZgIrLK9-578" style="edgeStyle=orthogonalEdgeStyle;shape=connector;rounded=0;orthogonalLoop=1;jettySize=auto;html=1;entryX=0.5;entryY=0;entryDx=0;entryDy=0;labelBackgroundColor=default;strokeColor=default;align=center;verticalAlign=middle;fontFamily=Helvetica;fontSize=11;fontColor=default;endArrow=classic;" edge="1" parent="WIyWlLk6GJQsqaUBKTNV-1" source="d0o_DoR_JnAfmZgIrLK9-579" target="d0o_DoR_JnAfmZgIrLK9-583">
          <mxGeometry relative="1" as="geometry">
            <Array as="points">
              <mxPoint x="1460" y="1307.5" />
              <mxPoint x="1590" y="1307.5" />
            </Array>
          </mxGeometry>
        </mxCell>
        <mxCell id="d0o_DoR_JnAfmZgIrLK9-579" value="往上" style="rounded=1;whiteSpace=wrap;html=1;fontSize=12;glass=0;strokeWidth=1;shadow=0;labelBackgroundColor=none;fillColor=#FAE5C7;strokeColor=#0F8B8D;fontColor=#143642;" vertex="1" parent="WIyWlLk6GJQsqaUBKTNV-1">
          <mxGeometry x="1400" y="1257.5" width="120" height="30" as="geometry" />
        </mxCell>
        <mxCell id="d0o_DoR_JnAfmZgIrLK9-580" style="edgeStyle=orthogonalEdgeStyle;shape=connector;rounded=0;orthogonalLoop=1;jettySize=auto;html=1;entryX=0.5;entryY=0;entryDx=0;entryDy=0;labelBackgroundColor=default;strokeColor=default;align=center;verticalAlign=middle;fontFamily=Helvetica;fontSize=11;fontColor=default;endArrow=classic;" edge="1" parent="WIyWlLk6GJQsqaUBKTNV-1" source="d0o_DoR_JnAfmZgIrLK9-581" target="d0o_DoR_JnAfmZgIrLK9-583">
          <mxGeometry relative="1" as="geometry">
            <Array as="points">
              <mxPoint x="1720" y="1307.5" />
              <mxPoint x="1590" y="1307.5" />
            </Array>
          </mxGeometry>
        </mxCell>
        <mxCell id="d0o_DoR_JnAfmZgIrLK9-581" value="往下" style="rounded=1;whiteSpace=wrap;html=1;fontSize=12;glass=0;strokeWidth=1;shadow=0;labelBackgroundColor=none;fillColor=#FAE5C7;strokeColor=#0F8B8D;fontColor=#143642;" vertex="1" parent="WIyWlLk6GJQsqaUBKTNV-1">
          <mxGeometry x="1660" y="1257.5" width="120" height="30" as="geometry" />
        </mxCell>
        <mxCell id="d0o_DoR_JnAfmZgIrLK9-582" style="edgeStyle=orthogonalEdgeStyle;shape=connector;rounded=0;orthogonalLoop=1;jettySize=auto;html=1;entryX=0.5;entryY=0;entryDx=0;entryDy=0;labelBackgroundColor=default;strokeColor=default;align=center;verticalAlign=middle;fontFamily=Helvetica;fontSize=11;fontColor=default;endArrow=classic;" edge="1" parent="WIyWlLk6GJQsqaUBKTNV-1" source="d0o_DoR_JnAfmZgIrLK9-583" target="d0o_DoR_JnAfmZgIrLK9-588">
          <mxGeometry relative="1" as="geometry" />
        </mxCell>
        <mxCell id="d0o_DoR_JnAfmZgIrLK9-583" value="繪製電梯移動後位置" style="rounded=1;whiteSpace=wrap;html=1;fontSize=12;glass=0;strokeWidth=1;shadow=0;labelBackgroundColor=none;fillColor=#FAE5C7;strokeColor=#0F8B8D;fontColor=#143642;" vertex="1" parent="WIyWlLk6GJQsqaUBKTNV-1">
          <mxGeometry x="1530" y="1357.5" width="120" height="30" as="geometry" />
        </mxCell>
        <mxCell id="d0o_DoR_JnAfmZgIrLK9-584" style="edgeStyle=orthogonalEdgeStyle;shape=connector;rounded=0;orthogonalLoop=1;jettySize=auto;html=1;entryX=0.5;entryY=0;entryDx=0;entryDy=0;labelBackgroundColor=default;strokeColor=default;align=center;verticalAlign=middle;fontFamily=Helvetica;fontSize=11;fontColor=default;endArrow=classic;exitX=1;exitY=0.5;exitDx=0;exitDy=0;" edge="1" parent="WIyWlLk6GJQsqaUBKTNV-1" source="d0o_DoR_JnAfmZgIrLK9-588" target="d0o_DoR_JnAfmZgIrLK9-590">
          <mxGeometry relative="1" as="geometry">
            <Array as="points">
              <mxPoint x="1710" y="1493" />
              <mxPoint x="1710" y="1895" />
              <mxPoint x="1575" y="1895" />
            </Array>
          </mxGeometry>
        </mxCell>
        <mxCell id="d0o_DoR_JnAfmZgIrLK9-585" value="NO" style="edgeLabel;html=1;align=center;verticalAlign=middle;resizable=0;points=[];fontSize=11;fontFamily=Helvetica;fontColor=default;" vertex="1" connectable="0" parent="d0o_DoR_JnAfmZgIrLK9-584">
          <mxGeometry x="-0.551" y="1" relative="1" as="geometry">
            <mxPoint as="offset" />
          </mxGeometry>
        </mxCell>
        <mxCell id="d0o_DoR_JnAfmZgIrLK9-586" style="edgeStyle=orthogonalEdgeStyle;shape=connector;rounded=0;orthogonalLoop=1;jettySize=auto;html=1;entryX=0.5;entryY=0;entryDx=0;entryDy=0;labelBackgroundColor=default;strokeColor=default;align=center;verticalAlign=middle;fontFamily=Helvetica;fontSize=11;fontColor=default;endArrow=classic;" edge="1" parent="WIyWlLk6GJQsqaUBKTNV-1" source="d0o_DoR_JnAfmZgIrLK9-588" target="d0o_DoR_JnAfmZgIrLK9-592">
          <mxGeometry relative="1" as="geometry">
            <Array as="points">
              <mxPoint x="1465" y="1492.5" />
            </Array>
          </mxGeometry>
        </mxCell>
        <mxCell id="d0o_DoR_JnAfmZgIrLK9-587" value="YES" style="edgeLabel;html=1;align=center;verticalAlign=middle;resizable=0;points=[];fontSize=11;fontFamily=Helvetica;fontColor=default;" vertex="1" connectable="0" parent="d0o_DoR_JnAfmZgIrLK9-586">
          <mxGeometry x="-0.7677" y="-1" relative="1" as="geometry">
            <mxPoint as="offset" />
          </mxGeometry>
        </mxCell>
        <mxCell id="d0o_DoR_JnAfmZgIrLK9-588" value="for迴圈判斷&lt;br style=&quot;border-color: var(--border-color);&quot;&gt;電梯內乘客的&lt;br style=&quot;border-color: var(--border-color);&quot;&gt;離開樓層有沒有&lt;br style=&quot;border-color: var(--border-color);&quot;&gt;與當前樓層相同" style="rhombus;whiteSpace=wrap;html=1;shadow=0;fontFamily=Helvetica;fontSize=12;align=center;strokeWidth=1;spacing=6;spacingTop=-4;labelBackgroundColor=none;fillColor=#FAE5C7;strokeColor=#0F8B8D;fontColor=#143642;" vertex="1" parent="WIyWlLk6GJQsqaUBKTNV-1">
          <mxGeometry x="1510" y="1427.5" width="160" height="130" as="geometry" />
        </mxCell>
        <mxCell id="d0o_DoR_JnAfmZgIrLK9-589" style="edgeStyle=orthogonalEdgeStyle;rounded=0;orthogonalLoop=1;jettySize=auto;html=1;entryX=0.5;entryY=0;entryDx=0;entryDy=0;" edge="1" parent="WIyWlLk6GJQsqaUBKTNV-1" source="d0o_DoR_JnAfmZgIrLK9-590" target="d0o_DoR_JnAfmZgIrLK9-594">
          <mxGeometry relative="1" as="geometry" />
        </mxCell>
        <mxCell id="d0o_DoR_JnAfmZgIrLK9-590" value="顯是&lt;br&gt;還有哪些按鈕被按下" style="rounded=1;whiteSpace=wrap;html=1;fontSize=12;glass=0;strokeWidth=1;shadow=0;labelBackgroundColor=none;fillColor=#FAE5C7;strokeColor=#0F8B8D;fontColor=#143642;" vertex="1" parent="WIyWlLk6GJQsqaUBKTNV-1">
          <mxGeometry x="1495" y="1995" width="160" height="40" as="geometry" />
        </mxCell>
        <mxCell id="d0o_DoR_JnAfmZgIrLK9-591" style="edgeStyle=orthogonalEdgeStyle;rounded=0;orthogonalLoop=1;jettySize=auto;html=1;entryX=0.5;entryY=0;entryDx=0;entryDy=0;" edge="1" parent="WIyWlLk6GJQsqaUBKTNV-1" source="d0o_DoR_JnAfmZgIrLK9-592" target="d0o_DoR_JnAfmZgIrLK9-613">
          <mxGeometry relative="1" as="geometry" />
        </mxCell>
        <mxCell id="d0o_DoR_JnAfmZgIrLK9-592" value="乘客出電梯&lt;br&gt;numberOfPeopleArrived++" style="rounded=1;whiteSpace=wrap;html=1;fontSize=12;glass=0;strokeWidth=1;shadow=0;labelBackgroundColor=none;fillColor=#FAE5C7;strokeColor=#0F8B8D;fontColor=#143642;" vertex="1" parent="WIyWlLk6GJQsqaUBKTNV-1">
          <mxGeometry x="1390" y="1527.5" width="150" height="50" as="geometry" />
        </mxCell>
        <mxCell id="d0o_DoR_JnAfmZgIrLK9-593" style="edgeStyle=orthogonalEdgeStyle;rounded=0;orthogonalLoop=1;jettySize=auto;html=1;entryX=0.5;entryY=0;entryDx=0;entryDy=0;" edge="1" parent="WIyWlLk6GJQsqaUBKTNV-1" source="d0o_DoR_JnAfmZgIrLK9-594" target="d0o_DoR_JnAfmZgIrLK9-620">
          <mxGeometry relative="1" as="geometry" />
        </mxCell>
        <mxCell id="d0o_DoR_JnAfmZgIrLK9-594" value="繪製還有多少人等電梯畫面" style="rounded=1;whiteSpace=wrap;html=1;fontSize=12;glass=0;strokeWidth=1;shadow=0;labelBackgroundColor=none;fillColor=#FAE5C7;strokeColor=#0F8B8D;fontColor=#143642;" vertex="1" parent="WIyWlLk6GJQsqaUBKTNV-1">
          <mxGeometry x="1500" y="2075" width="150" height="40" as="geometry" />
        </mxCell>
        <mxCell id="d0o_DoR_JnAfmZgIrLK9-595" style="edgeStyle=orthogonalEdgeStyle;rounded=0;orthogonalLoop=1;jettySize=auto;html=1;entryX=0.5;entryY=0;entryDx=0;entryDy=0;" edge="1" parent="WIyWlLk6GJQsqaUBKTNV-1" source="d0o_DoR_JnAfmZgIrLK9-596" target="d0o_DoR_JnAfmZgIrLK9-600">
          <mxGeometry relative="1" as="geometry" />
        </mxCell>
        <mxCell id="d0o_DoR_JnAfmZgIrLK9-596" value="繪製總共經過的時間" style="rounded=1;whiteSpace=wrap;html=1;fontSize=12;glass=0;strokeWidth=1;shadow=0;labelBackgroundColor=none;fillColor=#FAE5C7;strokeColor=#0F8B8D;fontColor=#143642;" vertex="1" parent="WIyWlLk6GJQsqaUBKTNV-1">
          <mxGeometry x="1615" y="3465" width="150" height="50" as="geometry" />
        </mxCell>
        <mxCell id="d0o_DoR_JnAfmZgIrLK9-597" value="" style="edgeStyle=orthogonalEdgeStyle;rounded=0;orthogonalLoop=1;jettySize=auto;html=1;" edge="1" parent="WIyWlLk6GJQsqaUBKTNV-1" source="d0o_DoR_JnAfmZgIrLK9-600" target="d0o_DoR_JnAfmZgIrLK9-601">
          <mxGeometry relative="1" as="geometry" />
        </mxCell>
        <mxCell id="d0o_DoR_JnAfmZgIrLK9-598" value="YES" style="edgeLabel;html=1;align=center;verticalAlign=middle;resizable=0;points=[];" vertex="1" connectable="0" parent="d0o_DoR_JnAfmZgIrLK9-597">
          <mxGeometry x="-0.2156" y="1" relative="1" as="geometry">
            <mxPoint as="offset" />
          </mxGeometry>
        </mxCell>
        <mxCell id="d0o_DoR_JnAfmZgIrLK9-599" style="edgeStyle=orthogonalEdgeStyle;rounded=0;orthogonalLoop=1;jettySize=auto;html=1;entryX=1;entryY=0.5;entryDx=0;entryDy=0;" edge="1" parent="WIyWlLk6GJQsqaUBKTNV-1" source="d0o_DoR_JnAfmZgIrLK9-600" target="d0o_DoR_JnAfmZgIrLK9-568">
          <mxGeometry relative="1" as="geometry">
            <mxPoint x="1770" y="380.111083984375" as="targetPoint" />
            <Array as="points">
              <mxPoint x="1920" y="3635" />
              <mxPoint x="1920" y="410" />
            </Array>
          </mxGeometry>
        </mxCell>
        <mxCell id="d0o_DoR_JnAfmZgIrLK9-600" value="&lt;div style=&quot;&quot;&gt;判斷PartANumberOfPeopleArrived&lt;/div&gt;&lt;div style=&quot;&quot;&gt;是否等於40&lt;/div&gt;" style="rhombus;whiteSpace=wrap;html=1;shadow=0;fontFamily=Helvetica;fontSize=12;align=center;strokeWidth=1;spacing=6;spacingTop=-4;labelBackgroundColor=none;fillColor=#FAE5C7;strokeColor=#0F8B8D;fontColor=#143642;" vertex="1" parent="WIyWlLk6GJQsqaUBKTNV-1">
          <mxGeometry x="1610" y="3570" width="160" height="130" as="geometry" />
        </mxCell>
        <mxCell id="d0o_DoR_JnAfmZgIrLK9-601" value="程式結束" style="whiteSpace=wrap;html=1;fillColor=#FAE5C7;strokeColor=#0F8B8D;fontColor=#143642;shadow=0;strokeWidth=1;spacing=6;spacingTop=-4;labelBackgroundColor=none;" vertex="1" parent="WIyWlLk6GJQsqaUBKTNV-1">
          <mxGeometry x="1380" y="3605" width="120" height="60" as="geometry" />
        </mxCell>
        <mxCell id="d0o_DoR_JnAfmZgIrLK9-602" style="edgeStyle=orthogonalEdgeStyle;rounded=0;orthogonalLoop=1;jettySize=auto;html=1;entryX=0.5;entryY=0;entryDx=0;entryDy=0;exitX=0.487;exitY=1.01;exitDx=0;exitDy=0;exitPerimeter=0;" edge="1" parent="WIyWlLk6GJQsqaUBKTNV-1" source="d0o_DoR_JnAfmZgIrLK9-603" target="d0o_DoR_JnAfmZgIrLK9-590">
          <mxGeometry relative="1" as="geometry">
            <Array as="points">
              <mxPoint x="1463" y="1895" />
              <mxPoint x="1575" y="1895" />
            </Array>
          </mxGeometry>
        </mxCell>
        <mxCell id="d0o_DoR_JnAfmZgIrLK9-603" value="繪製乘客出電梯畫面" style="rounded=1;whiteSpace=wrap;html=1;fontSize=12;glass=0;strokeWidth=1;shadow=0;labelBackgroundColor=none;fillColor=#FAE5C7;strokeColor=#0F8B8D;fontColor=#143642;" vertex="1" parent="WIyWlLk6GJQsqaUBKTNV-1">
          <mxGeometry x="1390" y="1860" width="150" height="30" as="geometry" />
        </mxCell>
        <mxCell id="d0o_DoR_JnAfmZgIrLK9-604" style="edgeStyle=orthogonalEdgeStyle;rounded=0;orthogonalLoop=1;jettySize=auto;html=1;entryX=0.5;entryY=0;entryDx=0;entryDy=0;" edge="1" parent="WIyWlLk6GJQsqaUBKTNV-1" source="d0o_DoR_JnAfmZgIrLK9-608" target="d0o_DoR_JnAfmZgIrLK9-608">
          <mxGeometry relative="1" as="geometry">
            <mxPoint x="1370" y="685" as="targetPoint" />
            <Array as="points">
              <mxPoint x="1340" y="750" />
              <mxPoint x="1340" y="685" />
            </Array>
          </mxGeometry>
        </mxCell>
        <mxCell id="d0o_DoR_JnAfmZgIrLK9-605" value="YES" style="edgeLabel;html=1;align=center;verticalAlign=middle;resizable=0;points=[];" vertex="1" connectable="0" parent="d0o_DoR_JnAfmZgIrLK9-604">
          <mxGeometry x="-0.4034" y="3" relative="1" as="geometry">
            <mxPoint as="offset" />
          </mxGeometry>
        </mxCell>
        <mxCell id="d0o_DoR_JnAfmZgIrLK9-606" style="edgeStyle=orthogonalEdgeStyle;rounded=0;orthogonalLoop=1;jettySize=auto;html=1;entryX=0.5;entryY=0;entryDx=0;entryDy=0;" edge="1" parent="WIyWlLk6GJQsqaUBKTNV-1" source="d0o_DoR_JnAfmZgIrLK9-608" target="d0o_DoR_JnAfmZgIrLK9-577">
          <mxGeometry relative="1" as="geometry">
            <Array as="points">
              <mxPoint x="1460" y="865" />
              <mxPoint x="1590" y="865" />
            </Array>
          </mxGeometry>
        </mxCell>
        <mxCell id="d0o_DoR_JnAfmZgIrLK9-607" value="NO" style="edgeLabel;html=1;align=center;verticalAlign=middle;resizable=0;points=[];" vertex="1" connectable="0" parent="d0o_DoR_JnAfmZgIrLK9-606">
          <mxGeometry x="-0.0975" relative="1" as="geometry">
            <mxPoint as="offset" />
          </mxGeometry>
        </mxCell>
        <mxCell id="d0o_DoR_JnAfmZgIrLK9-608" value="&lt;blockquote style=&quot;margin: 0 0 0 40px; border: none; padding: 0px;&quot;&gt;&lt;/blockquote&gt;&lt;span style=&quot;background-color: initial;&quot;&gt;判斷隨機出來的&lt;/span&gt;&lt;br&gt;&lt;span style=&quot;background-color: initial;&quot;&gt;進入樓層、&lt;/span&gt;&lt;br&gt;&lt;span style=&quot;background-color: initial;&quot;&gt;離開樓層是否重覆&lt;/span&gt;&lt;br&gt;&lt;blockquote style=&quot;margin: 0 0 0 40px; border: none; padding: 0px;&quot;&gt;&lt;/blockquote&gt;" style="rhombus;whiteSpace=wrap;html=1;shadow=0;fontFamily=Helvetica;fontSize=12;align=center;strokeWidth=1;spacing=6;spacingTop=-4;labelBackgroundColor=none;fillColor=#FAE5C7;strokeColor=#0F8B8D;fontColor=#143642;" vertex="1" parent="WIyWlLk6GJQsqaUBKTNV-1">
          <mxGeometry x="1380" y="685" width="160" height="130" as="geometry" />
        </mxCell>
        <mxCell id="d0o_DoR_JnAfmZgIrLK9-609" style="edgeStyle=orthogonalEdgeStyle;rounded=0;orthogonalLoop=1;jettySize=auto;html=1;entryX=0.5;entryY=0;entryDx=0;entryDy=0;exitX=0;exitY=0.5;exitDx=0;exitDy=0;" edge="1" parent="WIyWlLk6GJQsqaUBKTNV-1" source="d0o_DoR_JnAfmZgIrLK9-613" target="d0o_DoR_JnAfmZgIrLK9-615">
          <mxGeometry relative="1" as="geometry" />
        </mxCell>
        <mxCell id="d0o_DoR_JnAfmZgIrLK9-610" value="tes" style="edgeLabel;html=1;align=center;verticalAlign=middle;resizable=0;points=[];" vertex="1" connectable="0" parent="d0o_DoR_JnAfmZgIrLK9-609">
          <mxGeometry x="-0.3223" y="-3" relative="1" as="geometry">
            <mxPoint as="offset" />
          </mxGeometry>
        </mxCell>
        <mxCell id="d0o_DoR_JnAfmZgIrLK9-611" style="edgeStyle=orthogonalEdgeStyle;rounded=0;orthogonalLoop=1;jettySize=auto;html=1;entryX=0.5;entryY=0;entryDx=0;entryDy=0;exitX=1;exitY=0.5;exitDx=0;exitDy=0;" edge="1" parent="WIyWlLk6GJQsqaUBKTNV-1" source="d0o_DoR_JnAfmZgIrLK9-613" target="d0o_DoR_JnAfmZgIrLK9-603">
          <mxGeometry relative="1" as="geometry">
            <Array as="points">
              <mxPoint x="1565" y="1700" />
              <mxPoint x="1565" y="1825" />
              <mxPoint x="1465" y="1825" />
            </Array>
          </mxGeometry>
        </mxCell>
        <mxCell id="d0o_DoR_JnAfmZgIrLK9-612" value="no" style="edgeLabel;html=1;align=center;verticalAlign=middle;resizable=0;points=[];" vertex="1" connectable="0" parent="d0o_DoR_JnAfmZgIrLK9-611">
          <mxGeometry x="-0.917" y="-1" relative="1" as="geometry">
            <mxPoint as="offset" />
          </mxGeometry>
        </mxCell>
        <mxCell id="d0o_DoR_JnAfmZgIrLK9-613" value="判斷電梯內人數是否為0" style="rhombus;whiteSpace=wrap;html=1;shadow=0;fontFamily=Helvetica;fontSize=12;align=center;strokeWidth=1;spacing=6;spacingTop=-4;labelBackgroundColor=none;fillColor=#FAE5C7;strokeColor=#0F8B8D;fontColor=#143642;" vertex="1" parent="WIyWlLk6GJQsqaUBKTNV-1">
          <mxGeometry x="1385" y="1635" width="160" height="130" as="geometry" />
        </mxCell>
        <mxCell id="d0o_DoR_JnAfmZgIrLK9-614" style="edgeStyle=orthogonalEdgeStyle;rounded=0;orthogonalLoop=1;jettySize=auto;html=1;entryX=0.5;entryY=0;entryDx=0;entryDy=0;exitX=0.5;exitY=1;exitDx=0;exitDy=0;" edge="1" parent="WIyWlLk6GJQsqaUBKTNV-1" source="d0o_DoR_JnAfmZgIrLK9-615" target="d0o_DoR_JnAfmZgIrLK9-603">
          <mxGeometry relative="1" as="geometry">
            <Array as="points">
              <mxPoint x="1325" y="1825" />
              <mxPoint x="1465" y="1825" />
            </Array>
          </mxGeometry>
        </mxCell>
        <mxCell id="d0o_DoR_JnAfmZgIrLK9-615" value="將leftElevatorInfo&lt;span style=&quot;background-color: initial;&quot;&gt;參數的basicTarget跟direction設為none&lt;/span&gt;" style="rounded=1;whiteSpace=wrap;html=1;fontSize=12;glass=0;strokeWidth=1;shadow=0;labelBackgroundColor=none;fillColor=#FAE5C7;strokeColor=#0F8B8D;fontColor=#143642;" vertex="1" parent="WIyWlLk6GJQsqaUBKTNV-1">
          <mxGeometry x="1250" y="1740" width="150" height="50" as="geometry" />
        </mxCell>
        <mxCell id="d0o_DoR_JnAfmZgIrLK9-616" style="edgeStyle=orthogonalEdgeStyle;rounded=0;orthogonalLoop=1;jettySize=auto;html=1;entryX=0.5;entryY=0;entryDx=0;entryDy=0;exitX=0;exitY=0.5;exitDx=0;exitDy=0;" edge="1" parent="WIyWlLk6GJQsqaUBKTNV-1" source="d0o_DoR_JnAfmZgIrLK9-620" target="d0o_DoR_JnAfmZgIrLK9-622">
          <mxGeometry relative="1" as="geometry" />
        </mxCell>
        <mxCell id="d0o_DoR_JnAfmZgIrLK9-617" value="yes" style="edgeLabel;html=1;align=center;verticalAlign=middle;resizable=0;points=[];" vertex="1" connectable="0" parent="d0o_DoR_JnAfmZgIrLK9-616">
          <mxGeometry x="-0.5597" y="-3" relative="1" as="geometry">
            <mxPoint as="offset" />
          </mxGeometry>
        </mxCell>
        <mxCell id="d0o_DoR_JnAfmZgIrLK9-618" style="edgeStyle=orthogonalEdgeStyle;rounded=0;orthogonalLoop=1;jettySize=auto;html=1;entryX=0.5;entryY=0;entryDx=0;entryDy=0;exitX=1;exitY=0.5;exitDx=0;exitDy=0;" edge="1" parent="WIyWlLk6GJQsqaUBKTNV-1" source="d0o_DoR_JnAfmZgIrLK9-620" target="d0o_DoR_JnAfmZgIrLK9-627">
          <mxGeometry relative="1" as="geometry">
            <Array as="points">
              <mxPoint x="1670" y="2200" />
              <mxPoint x="1670" y="2575" />
              <mxPoint x="1575" y="2575" />
            </Array>
          </mxGeometry>
        </mxCell>
        <mxCell id="d0o_DoR_JnAfmZgIrLK9-619" value="no" style="edgeLabel;html=1;align=center;verticalAlign=middle;resizable=0;points=[];" vertex="1" connectable="0" parent="d0o_DoR_JnAfmZgIrLK9-618">
          <mxGeometry x="-0.961" relative="1" as="geometry">
            <mxPoint as="offset" />
          </mxGeometry>
        </mxCell>
        <mxCell id="d0o_DoR_JnAfmZgIrLK9-620" value="&lt;div style=&quot;&quot;&gt;&lt;div style=&quot;border-color: var(--border-color);&quot;&gt;判斷leftElevatorInfo&lt;/div&gt;&lt;div style=&quot;border-color: var(--border-color);&quot;&gt;的basicTarget&lt;/div&gt;&lt;div style=&quot;border-color: var(--border-color);&quot;&gt;是否為none&lt;/div&gt;&lt;/div&gt;" style="rhombus;whiteSpace=wrap;html=1;shadow=0;fontFamily=Helvetica;fontSize=12;align=center;strokeWidth=1;spacing=6;spacingTop=-4;labelBackgroundColor=none;fillColor=#FAE5C7;strokeColor=#0F8B8D;fontColor=#143642;" vertex="1" parent="WIyWlLk6GJQsqaUBKTNV-1">
          <mxGeometry x="1495" y="2135" width="160" height="130" as="geometry" />
        </mxCell>
        <mxCell id="d0o_DoR_JnAfmZgIrLK9-621" style="edgeStyle=orthogonalEdgeStyle;rounded=0;orthogonalLoop=1;jettySize=auto;html=1;entryX=0.5;entryY=0;entryDx=0;entryDy=0;" edge="1" parent="WIyWlLk6GJQsqaUBKTNV-1" source="d0o_DoR_JnAfmZgIrLK9-622" target="d0o_DoR_JnAfmZgIrLK9-624">
          <mxGeometry relative="1" as="geometry" />
        </mxCell>
        <mxCell id="d0o_DoR_JnAfmZgIrLK9-622" value="用for迴圈來找符合條件的人作為初始設定" style="rounded=1;whiteSpace=wrap;html=1;fontSize=12;glass=0;strokeWidth=1;shadow=0;labelBackgroundColor=none;fillColor=#FAE5C7;strokeColor=#0F8B8D;fontColor=#143642;" vertex="1" parent="WIyWlLk6GJQsqaUBKTNV-1">
          <mxGeometry x="1350" y="2305" width="150" height="50" as="geometry" />
        </mxCell>
        <mxCell id="d0o_DoR_JnAfmZgIrLK9-623" style="edgeStyle=orthogonalEdgeStyle;rounded=0;orthogonalLoop=1;jettySize=auto;html=1;entryX=0.5;entryY=0;entryDx=0;entryDy=0;" edge="1" parent="WIyWlLk6GJQsqaUBKTNV-1" source="d0o_DoR_JnAfmZgIrLK9-624" target="d0o_DoR_JnAfmZgIrLK9-627">
          <mxGeometry relative="1" as="geometry">
            <Array as="points">
              <mxPoint x="1425" y="2575" />
              <mxPoint x="1575" y="2575" />
            </Array>
          </mxGeometry>
        </mxCell>
        <mxCell id="d0o_DoR_JnAfmZgIrLK9-624" value="&lt;div style=&quot;&quot;&gt;按順序找出第一個迴圈中&lt;/div&gt;&lt;div style=&quot;&quot;&gt;peopleInfo[i].status == &quot;offTheElevator&quot;&amp;nbsp;&lt;/div&gt;&lt;div style=&quot;&quot;&gt;&amp;nbsp;peopleInfo[i].elevatorResponse == &quot;none&quot;&lt;/div&gt;&lt;div style=&quot;&quot;&gt;的乘客，再去判斷電梯方向&lt;br&gt;&lt;/div&gt;" style="rhombus;whiteSpace=wrap;html=1;shadow=0;fontFamily=Helvetica;fontSize=12;align=center;strokeWidth=1;spacing=6;spacingTop=-4;labelBackgroundColor=none;fillColor=#FAE5C7;strokeColor=#0F8B8D;fontColor=#143642;" vertex="1" parent="WIyWlLk6GJQsqaUBKTNV-1">
          <mxGeometry x="1302.5" y="2385" width="245" height="170" as="geometry" />
        </mxCell>
        <mxCell id="d0o_DoR_JnAfmZgIrLK9-625" style="edgeStyle=orthogonalEdgeStyle;rounded=0;orthogonalLoop=1;jettySize=auto;html=1;entryX=0.5;entryY=0;entryDx=0;entryDy=0;exitX=0;exitY=0.5;exitDx=0;exitDy=0;" edge="1" parent="WIyWlLk6GJQsqaUBKTNV-1" source="d0o_DoR_JnAfmZgIrLK9-627" target="d0o_DoR_JnAfmZgIrLK9-629">
          <mxGeometry relative="1" as="geometry" />
        </mxCell>
        <mxCell id="d0o_DoR_JnAfmZgIrLK9-626" style="edgeStyle=orthogonalEdgeStyle;rounded=0;orthogonalLoop=1;jettySize=auto;html=1;entryX=0.5;entryY=0;entryDx=0;entryDy=0;exitX=1;exitY=0.5;exitDx=0;exitDy=0;" edge="1" parent="WIyWlLk6GJQsqaUBKTNV-1" source="d0o_DoR_JnAfmZgIrLK9-627" target="d0o_DoR_JnAfmZgIrLK9-632">
          <mxGeometry relative="1" as="geometry">
            <Array as="points">
              <mxPoint x="1715" y="2695" />
              <mxPoint x="1715" y="2905" />
              <mxPoint x="1580" y="2905" />
            </Array>
          </mxGeometry>
        </mxCell>
        <mxCell id="d0o_DoR_JnAfmZgIrLK9-627" value="判斷乘客是否還沒搭過電梯、&lt;br&gt;方向是否與電梯一致、&lt;br&gt;樓層是否與電梯相同、&lt;br&gt;電梯內人數是否少於7人" style="rhombus;whiteSpace=wrap;html=1;shadow=0;fontFamily=Helvetica;fontSize=12;align=center;strokeWidth=1;spacing=6;spacingTop=-4;labelBackgroundColor=none;fillColor=#FAE5C7;strokeColor=#0F8B8D;fontColor=#143642;" vertex="1" parent="WIyWlLk6GJQsqaUBKTNV-1">
          <mxGeometry x="1455" y="2615" width="240" height="160" as="geometry" />
        </mxCell>
        <mxCell id="d0o_DoR_JnAfmZgIrLK9-628" style="edgeStyle=orthogonalEdgeStyle;rounded=0;orthogonalLoop=1;jettySize=auto;html=1;entryX=0.5;entryY=0;entryDx=0;entryDy=0;exitX=0.5;exitY=1;exitDx=0;exitDy=0;" edge="1" parent="WIyWlLk6GJQsqaUBKTNV-1" source="d0o_DoR_JnAfmZgIrLK9-629" target="d0o_DoR_JnAfmZgIrLK9-632">
          <mxGeometry relative="1" as="geometry">
            <Array as="points">
              <mxPoint x="1405" y="2905" />
              <mxPoint x="1580" y="2905" />
            </Array>
          </mxGeometry>
        </mxCell>
        <mxCell id="d0o_DoR_JnAfmZgIrLK9-629" value="讓乘客上車，資料推送至leftElevatorPassenger" style="rounded=1;whiteSpace=wrap;html=1;fontSize=12;glass=0;strokeWidth=1;shadow=0;labelBackgroundColor=none;fillColor=#FAE5C7;strokeColor=#0F8B8D;fontColor=#143642;" vertex="1" parent="WIyWlLk6GJQsqaUBKTNV-1">
          <mxGeometry x="1330" y="2815" width="150" height="50" as="geometry" />
        </mxCell>
        <mxCell id="d0o_DoR_JnAfmZgIrLK9-630" style="edgeStyle=orthogonalEdgeStyle;rounded=0;orthogonalLoop=1;jettySize=auto;html=1;entryX=0.5;entryY=0;entryDx=0;entryDy=0;exitX=1;exitY=0.5;exitDx=0;exitDy=0;" edge="1" parent="WIyWlLk6GJQsqaUBKTNV-1" source="d0o_DoR_JnAfmZgIrLK9-632" target="d0o_DoR_JnAfmZgIrLK9-596">
          <mxGeometry relative="1" as="geometry">
            <mxPoint x="1730" y="3445" as="targetPoint" />
          </mxGeometry>
        </mxCell>
        <mxCell id="d0o_DoR_JnAfmZgIrLK9-631" style="edgeStyle=orthogonalEdgeStyle;rounded=0;orthogonalLoop=1;jettySize=auto;html=1;entryX=0.5;entryY=0;entryDx=0;entryDy=0;exitX=0;exitY=0.5;exitDx=0;exitDy=0;" edge="1" parent="WIyWlLk6GJQsqaUBKTNV-1" source="d0o_DoR_JnAfmZgIrLK9-632" target="d0o_DoR_JnAfmZgIrLK9-634">
          <mxGeometry relative="1" as="geometry" />
        </mxCell>
        <mxCell id="d0o_DoR_JnAfmZgIrLK9-632" value="電梯內人數&amp;gt;0" style="rhombus;whiteSpace=wrap;html=1;shadow=0;fontFamily=Helvetica;fontSize=12;align=center;strokeWidth=1;spacing=6;spacingTop=-4;labelBackgroundColor=none;fillColor=#FAE5C7;strokeColor=#0F8B8D;fontColor=#143642;" vertex="1" parent="WIyWlLk6GJQsqaUBKTNV-1">
          <mxGeometry x="1490" y="2935" width="180" height="100" as="geometry" />
        </mxCell>
        <mxCell id="d0o_DoR_JnAfmZgIrLK9-633" style="edgeStyle=orthogonalEdgeStyle;rounded=0;orthogonalLoop=1;jettySize=auto;html=1;entryX=0.5;entryY=0;entryDx=0;entryDy=0;exitX=1;exitY=0.5;exitDx=0;exitDy=0;" edge="1" parent="WIyWlLk6GJQsqaUBKTNV-1" source="d0o_DoR_JnAfmZgIrLK9-634" target="d0o_DoR_JnAfmZgIrLK9-638">
          <mxGeometry relative="1" as="geometry" />
        </mxCell>
        <mxCell id="d0o_DoR_JnAfmZgIrLK9-634" value="如果電梯當前樓層&amp;lt;&lt;br&gt;第一位乘客的離開樓層&lt;br&gt;" style="rhombus;whiteSpace=wrap;html=1;shadow=0;fontFamily=Helvetica;fontSize=12;align=center;strokeWidth=1;spacing=6;spacingTop=-4;labelBackgroundColor=none;fillColor=#FAE5C7;strokeColor=#0F8B8D;fontColor=#143642;" vertex="1" parent="WIyWlLk6GJQsqaUBKTNV-1">
          <mxGeometry x="1330" y="3005" width="180" height="100" as="geometry" />
        </mxCell>
        <mxCell id="d0o_DoR_JnAfmZgIrLK9-635" style="edgeStyle=orthogonalEdgeStyle;rounded=0;orthogonalLoop=1;jettySize=auto;html=1;entryX=0.5;entryY=0;entryDx=0;entryDy=0;" edge="1" parent="WIyWlLk6GJQsqaUBKTNV-1" source="d0o_DoR_JnAfmZgIrLK9-636" target="d0o_DoR_JnAfmZgIrLK9-640">
          <mxGeometry relative="1" as="geometry" />
        </mxCell>
        <mxCell id="d0o_DoR_JnAfmZgIrLK9-636" value="電梯方向為up" style="rounded=1;whiteSpace=wrap;html=1;fontSize=12;glass=0;strokeWidth=1;shadow=0;labelBackgroundColor=none;fillColor=#FAE5C7;strokeColor=#0F8B8D;fontColor=#143642;" vertex="1" parent="WIyWlLk6GJQsqaUBKTNV-1">
          <mxGeometry x="1220" y="3195" width="150" height="50" as="geometry" />
        </mxCell>
        <mxCell id="d0o_DoR_JnAfmZgIrLK9-637" style="edgeStyle=orthogonalEdgeStyle;rounded=0;orthogonalLoop=1;jettySize=auto;html=1;entryX=0.5;entryY=0;entryDx=0;entryDy=0;" edge="1" parent="WIyWlLk6GJQsqaUBKTNV-1" source="d0o_DoR_JnAfmZgIrLK9-638" target="d0o_DoR_JnAfmZgIrLK9-640">
          <mxGeometry relative="1" as="geometry" />
        </mxCell>
        <mxCell id="d0o_DoR_JnAfmZgIrLK9-638" value="電梯方向為down" style="rounded=1;whiteSpace=wrap;html=1;fontSize=12;glass=0;strokeWidth=1;shadow=0;labelBackgroundColor=none;fillColor=#FAE5C7;strokeColor=#0F8B8D;fontColor=#143642;" vertex="1" parent="WIyWlLk6GJQsqaUBKTNV-1">
          <mxGeometry x="1470" y="3195" width="150" height="50" as="geometry" />
        </mxCell>
        <mxCell id="d0o_DoR_JnAfmZgIrLK9-639" style="edgeStyle=orthogonalEdgeStyle;rounded=0;orthogonalLoop=1;jettySize=auto;html=1;entryX=0;entryY=0.5;entryDx=0;entryDy=0;exitX=0.5;exitY=1;exitDx=0;exitDy=0;" edge="1" parent="WIyWlLk6GJQsqaUBKTNV-1" source="d0o_DoR_JnAfmZgIrLK9-640" target="d0o_DoR_JnAfmZgIrLK9-596">
          <mxGeometry relative="1" as="geometry" />
        </mxCell>
        <mxCell id="d0o_DoR_JnAfmZgIrLK9-640" value="如果電梯內人數&amp;gt;1，&lt;br style=&quot;border-color: var(--border-color);&quot;&gt;用方向跟for迴圈&lt;br style=&quot;border-color: var(--border-color);&quot;&gt;決定電梯endfloor" style="rounded=1;whiteSpace=wrap;html=1;fontSize=12;glass=0;strokeWidth=1;shadow=0;labelBackgroundColor=none;fillColor=#FAE5C7;strokeColor=#0F8B8D;fontColor=#143642;" vertex="1" parent="WIyWlLk6GJQsqaUBKTNV-1">
          <mxGeometry x="1350" y="3295" width="150" height="50" as="geometry" />
        </mxCell>
        <mxCell id="d0o_DoR_JnAfmZgIrLK9-641" style="edgeStyle=orthogonalEdgeStyle;rounded=0;orthogonalLoop=1;jettySize=auto;html=1;entryX=0.46;entryY=-0.064;entryDx=0;entryDy=0;entryPerimeter=0;exitX=0;exitY=0.5;exitDx=0;exitDy=0;" edge="1" parent="WIyWlLk6GJQsqaUBKTNV-1" source="d0o_DoR_JnAfmZgIrLK9-634" target="d0o_DoR_JnAfmZgIrLK9-636">
          <mxGeometry relative="1" as="geometry" />
        </mxCell>
      </root>
    </mxGraphModel>
  </diagram>
</mxfile>
